<svg id="Layer_1" data-name="Layer 1" xmlns="http://www.w3.org/2000/svg" xmlns:xlink="http://www.w3.org/1999/xlink" viewBox="0 0 263 103">
  <defs>
    <linearGradient id="New_Gradient_Swatch" data-name="New Gradient Swatch" x1="18" y1="114" x2="281" y2="114" gradientUnits="userSpaceOnUse">
      <stop offset="0" stop-color="#f3dfab"/>
      <stop offset="0.229" stop-color="#f8d565"/>
      <stop offset="0.443" stop-color="#a86a18"/>
      <stop offset="0.537" stop-color="#fadb6e"/>
      <stop offset="0.751" stop-color="#fff"/>
      <stop offset="0.856" stop-color="#f5e5bb"/>
      <stop offset="1" stop-color="#e0ad2a"/>
    </linearGradient>
    <linearGradient id="New_Gradient_Swatch_copy" data-name="New Gradient Swatch copy" x1="131.5" y1="32.333" x2="131.5" y2="114.068" gradientUnits="userSpaceOnUse">
      <stop offset="0" stop-color="#484d4d"/>
      <stop offset="1"/>
    </linearGradient>
  </defs>
  <title>chips-deck</title>
  <g>
    <path d="M281,147H18V81H281ZM26,139H273V89H26Z" transform="translate(-18 -44)" style="fill: url(#New_Gradient_Swatch)"/>
    <rect x="4" y="41" width="255" height="58" style="fill: url(#New_Gradient_Swatch_copy)"/>
  </g>
  <g id="Select-50">
    <circle cx="224.353" cy="55.5" r="25.647" style="fill: #055fe0"/>
    <g>
      <circle cx="224.353" cy="55.5" r="25.647" style="fill: #055fe0"/>
      <path d="M242.353,73.853h-2.082l-.013,0h-.415l-.012,0h-.059l-.013,0h-.006l-.012,0h-.077l-.011,0h-.166l-.011,0h-.007l-.012,0H239.4l-.012,0h-.13l-.012,0h-.006l-.012,0h-.086l-.01,0h-.061l-.01,0h-.007l-.011,0H239l-.01,0h-.033l-.012,0h-.007l-.01,0h-.042l-.011,0h-.026l-.008,0h-.026l-.01,0h-.034l-.01,0h-.033l-.012,0H238.7l-.011,0h-.033l-.011,0h-.015l-.011,0H238.6l-.009,0h-.025l-.009,0h-.018l-.009,0h-.016l-.011,0h-.018l-.007,0h-.018l-.009,0h-.025l-.011,0H238.4l-.011,0h-.007l-.009,0h-.017l-.01,0h-.016l-.011,0h-.007l-.01,0h-.016l-.011,0h-.015l-.011,0h-.007l-.01,0h-.008l-.008,0h-.011l-.007,0h-.007l-.011,0h-.018l-.008,0h-.007l-.011,0h-.017l-.009,0h-.007l-.011,0h-.007l-.009,0h-.009l-.009,0h-.008l-.01,0h-.006l-.012,0h-.015l-.01,0h-.008l-.01,0h-.008l-.008,0-.01,0h-.007l-.01,0h-.016l-.011,0-.008,0H237.9l-.011,0h-.007l-.01,0h-.008l-.008,0h-.01l-.008,0h-.008l-.01,0h-.008l-.009,0-.008,0h-.008l-.011,0h-.007l-.008,0-.01,0h-.008l-.009,0h-.016l-.011,0H237.7l-.01,0h-.008l-.008,0h-.01l-.008,0h-.007l-.011,0-.007,0-.012,0H237.6l-.01,0-.008,0h-.007l-.012,0-.006,0-.012,0h-.007l-.008,0h-.009l-.009,0h-.007l-.011,0-.006,0-.012,0h-.007l-.009,0-.008,0h-.009l-.007,0-.011,0h-.006l-.012,0-.007,0h-.009l-.008,0-.009,0h-.008l-.01,0h-.006l-.012,0h-.006l-.011,0-.007,0h-.009l-.008,0-.01,0h-.006l-.012,0h-.006l-.012,0h-.006l-.009,0-.008,0-.01,0h0l-.013,0h0l-.013,0h0l-.011,0h-.006l-.011,0h-.005l-.013,0h-.005l-.013,0h0l-.011,0h-.006l-.011,0h0l-.013,0h0l-.013,0h0l-.013,0h0l-.011,0h0l-.013,0h0l-.013,0h0l-.013,0h0l-.012,0h0l-.013,0h0l-.013,0h0l-.014,0h0l-.012,0h0l-.014,0h0l-.013,0h0l-.013,0h0l-.012,0h0l-.012,0h0l-.013,0h0l-.014,0h0l-.013,0h0l-.013,0h0l-.013,0h0l-.014,0h0l-.013,0h0l-.012,0h0l-.014,0h0l-.013,0h0l-.014,0h0l-.013,0h0l-.014,0h0l-.015,0h0l-.014,0h0l-.014,0h0l-.014,0h0l-.014,0h0l-.015,0h0l-.014,0h0l-.015,0h0l-.014,0h0l-.015,0h0l-.015,0h0l-.015,0h0l-.015,0h0l-.015,0h0l-.031.008h0l-.015,0h0l-.015,0h0l-.032.008h0l-.015,0h0l-.015,0h0l-.033.008h0l-.015,0h0l-.016,0h0l-.016,0h0l-.033.009h0l-.015,0h0l-.016,0h0l-.033.009h0l-.016,0h0l-.135.035h0q-1.208.316-2.365.743l1.043,2.831a22.548,22.548,0,0,1,7.823-1.388V73.853ZM225.717,79.98a26.014,26.014,0,0,0-2.074,1.979h0l-.013.014h0l-.033.035h0l-.013.014h0l-.012.012v0l-.012.012v0l-.032.034h0l-.012.013v0l-.011.012,0,0-.011.012h0l-.011.012,0,0-.019.021v0l-.011.012,0,0-.01.011,0,0-.009.01,0,0-.009.01,0,0-.006.006,0,0-.008.009-.005,0-.007.009,0,0-.008.008,0,.005-.008.009,0,0-.008.008,0,.005,0,.006-.007.008-.006.006,0,0-.008.009,0,0-.009.011,0,0-.008.01,0,0-.007.008-.006.006-.005.006-.007.008,0,.005-.006.007-.006.007-.005.006-.007.007-.005.006-.007.008-.005,0-.007.008-.005.006,0,.006-.008.008,0,0-.008.009,0,0-.007.008,0,.006-.006.007-.006.006-.006.007,0,.005-.008.009,0,0-.008.009,0,.005-.008.009,0,.005-.007.007,0,.006-.006.008,0,0-.007.008,0,0-.008.01,0,0-.008.009,0,.005-.008.009,0,0-.008.01,0,0L223,82.67l0,0-.009.01,0,0-.009.011,0,0-.009.011,0,0-.009.01,0,0-.01.011,0,0-.009.01,0,0-.009.011,0,0-.01.01,0,0-.009.011,0,0-.009.011,0,0-.009.011,0,0-.01.011h0l-.01.011,0,0-.01.011,0,0-.009.01,0,0-.009.011,0,0-.01.011v0l-.011.012h0l-.01.013h0l-.01.012v0l-.01.012,0,0-.01.011v0l-.01.012,0,0-.021.025h0l-.01.012v0l-.01.012,0,0-.01.012h0l-.011.013h0l-.022.026h0l-.011.013h0l-.011.013h0l-.011.013h0l-.011.013h0l-.044.054h0l-.011.013h0l-.056.067h0a25.658,25.658,0,0,0-2.494,3.651l2.629,1.481a22.664,22.664,0,0,1,5.055-6.137l-1.959-2.3Zm-8.69,15.453c-.051.319-.1.638-.135.96v0l0,.029h0l-.006.05h0v.01h0l0,.018v0l0,.027v0l0,.017h0v.012l0,.016V96.6l0,.013v.036l0,.026v0l0,.014v.214l0,.012v.241l0,.013v.4l0,.014h0v.032h0v.031h0V97.7h0v.032h0v.079h0v.017l0,.029v.017h0v.111h0v.031h0v.065l0,.029v.017h0v.031h0v.015h0v.016h0v.015h0v.064h0v.047h0v.063h0v.047h0v.031h0V98.5h0v.257h0V98.8h0v.032h0v.032h0v.111h0V99.1h0v.032h0v.032h0v.112h0v.079h0V99.5h0v.4h0v.01h0v.052h0v.009h0v.143h0v.041h0v.009h0v.1h0v.009h0v.009h0v.01h0l0,.1h0l0,.041h0v.009h0v.009h0v.01h0v.01h0v.009h0c0,.051,0,.1.007.153h0a25.692,25.692,0,0,0,.449,3.782l2.962-.577a22.919,22.919,0,0,1-.136-7.953l-2.98-.475Zm5.989,15.829-2.576,1.57,0,.006,0,0,.006.011,0,.005.006.009,0,.007,0,.007.006.009,0,.006.006.01,0,.006,0,.008,0,.007.006.008,0,.007,0,.008,0,.006.007.01,0,.005.006.011,0,0,.007.011,0,0,.006.011,0,0,.006.01,0,0,.008.012,0,0,.007.012,0,0,.008.012,0,0,.007.012,0,0,.008.012,0,0,.008.012v0l.009.013v0l.008.013,0,0,.008.013v0l.009.014h0l.009.014h0l.028.045h0l.009.015h0a25.78,25.78,0,0,0,5.7,6.329l1.879-2.361a22.683,22.683,0,0,1-5.263-5.96ZM235.266,121l-.944,2.865a25.5,25.5,0,0,0,5.707,1.179h0l.112.01h0l.048,0h0l.032,0h0l.032,0h.049l.031,0h0l.032,0h0l.048,0h0l.031,0h.017l.031,0h0l.03,0h0l.031,0h.017l.031,0h0l.031,0h.017l.031,0h0l.03,0h.083l.031,0h.131l.031,0h1.544c.234,0,.465-.006.7-.014l-.1-3.016q-.39.014-.783.014A22.63,22.63,0,0,1,235.266,121Zm22.351-4.792a22.574,22.574,0,0,1-6.713,4.252l1.141,2.794q.936-.384,1.837-.837h0l.016-.008h0l.016-.008h0l.042-.021h0l.015-.008h0l.015-.008h0l.014-.007h0l.013-.007,0,0,.007,0h0l.014-.008,0,0,.013-.006,0,0,.012-.007,0,0,.012-.006,0,0,.011-.006,0,0,.008,0,.007,0,.009,0,.007,0,.009,0,.007,0,.009,0,.007,0,.009-.005.007,0,.007,0,.01-.006.006,0,.01-.005.006,0,.008,0,.008,0,.008,0,.007,0,.009,0,0,0,.011-.006,0,0,.011-.006,0,0,.012-.006,0,0,.011-.006,0,0,.01,0,.005,0,.011-.006,0,0,.012-.006,0,0,.012-.007,0,0,.012-.006,0,0,.013-.007h0l.013-.007h0l.014-.007,0,0,.013-.007h0l.013-.007,0,0,.013-.007h0l.015-.008h0l.014-.008h0l.014-.008h0l.015-.008h0l.014-.008h0l.014-.008h0l.03-.017h0l.015-.008h0l.014-.008h0l.015-.008h0l.015-.008h0l.03-.017h0l.015-.009h0l.015-.008h0l.093-.052h0a25.771,25.771,0,0,0,4.1-2.856h0l.08-.068h0l.08-.069h0l.079-.069h0l.012-.011h0l.013-.01h0l.038-.034h0l.012-.01v0l.013-.01h0l.012-.011h0l.026-.023h0l.012-.011h0l.012-.01h0l.013-.011h0l.013-.011h0l.025-.022h0l.012-.011h0l.012-.01,0,0,.011-.01h0l.013-.011h0l.025-.022h0l.012-.011h0l.011-.011h0l.012-.011h0l.012-.011h0l.012-.01h0l.012-.011h0l.011-.011h0l.012-.011h0l.012-.011h0l.012-.011h0l.012-.011h0l.011-.01v0l-2.035-2.227Zm7.192-13.888a22.4,22.4,0,0,1-2.352,7.582l2.678,1.389a25.488,25.488,0,0,0,2.669-8.6l-2.995-.371Zm-1.016-16.9-2.521,1.659a22.415,22.415,0,0,1,3.129,7.3l2.939-.68q-.2-.859-.454-1.7h0l-.031-.1h0l-.021-.067h0l-.005-.016h0l0-.016h0l-.011-.033h0l0-.015v0l0-.016h0l0-.016h0l0-.016h0l0-.016h0l-.005-.016v0l0-.015v0l0-.015v0l0-.015h0l0-.016h0l0-.016v0l0-.014v0l0-.015v0l0-.014v0l0-.014v0l0-.013v0l0-.013,0,0,0-.013v-.005l0-.013v0l0-.013v0l0-.012v0l0-.013,0,0,0-.013v0l0-.013v0l0-.013v0l0-.011v0l0-.012,0,0,0-.013,0-.005,0-.012,0,0,0-.013,0,0,0-.011,0-.006,0-.01,0-.006,0-.011V91.2l0-.012,0,0,0-.012v-.006l0-.01,0-.006,0-.011v0l0-.012,0-.006,0-.012,0-.005,0-.012,0-.006,0-.009,0-.008,0-.009,0-.007,0-.01,0-.006,0-.011,0-.007,0-.01,0-.007,0-.009,0-.008,0-.008,0-.01,0-.007,0-.009,0-.008,0-.007,0-.011,0-.007,0-.008,0-.009,0-.007,0-.011,0-.006,0-.01,0-.008,0-.007,0-.01,0-.007,0-.007,0-.011,0-.006,0-.012,0,0,0-.012,0-.006,0-.009,0-.008,0-.008,0-.007,0-.01,0-.006,0-.012,0-.006,0-.011v-.006l0-.011,0-.006,0-.008,0-.006,0-.012,0,0,0-.012,0-.005,0-.013,0-.005,0-.013v0l-.01-.026v0l-.006-.015v0l0-.014,0,0,0-.015v0l-.01-.027v0l-.006-.015v0l-.006-.015v0l-.007-.017h0l-.017-.045h0l-.006-.017h0l-.006-.017h0l-.025-.063h0l-.007-.017h0l-.007-.018h0l-.018-.046h0l-.007-.018h0l-.025-.063v0l-.007-.016v0l-.007-.017h0a25.369,25.369,0,0,0-1.145-2.5h0l-.009-.017h0l-.009-.017h0l-.022-.042v0l-.008-.015v0l-.008-.015v0L265,87.446h0l-.008-.015v0l-.008-.014,0,0-.007-.014v0l-.014-.025h0l-.009-.016v0l-.008-.015v0l-.007-.014,0,0-.008-.015h0l0-.009,0,0-.007-.013,0,0-.007-.012,0,0-.006-.012,0,0-.007-.013,0,0,0-.008,0-.009,0-.007,0-.005-.006-.011,0,0-.006-.011,0-.005-.006-.011,0-.006,0-.006,0-.01,0-.007,0-.006-.006-.01,0,0-.006-.011,0,0-.006-.01,0-.006,0-.007,0-.009,0-.007,0-.01,0-.006,0-.007,0-.008,0-.008,0-.007,0-.008,0-.006-.006-.01,0-.006-.006-.01,0,0,0-.01,0-.006,0-.009,0-.006,0-.009,0,0L264.7,86.9l0-.005-.006-.01,0-.006-.006-.011,0,0,0-.009,0-.007,0-.008,0-.005-.006-.011,0,0-.006-.011,0,0-.006-.011,0-.005-.006-.01,0-.005-.006-.01,0,0-.007-.012,0,0-.007-.012,0,0-.007-.012,0,0-.007-.013h0l-.008-.013v0l-.007-.013,0,0-.007-.012,0,0-.007-.013,0,0-.007-.013v0l-.008-.013v0l-.008-.013v0l-.007-.013,0,0-.007-.014h0l-.008-.014h0l-.017-.029h0l-.008-.014h0l-.008-.014v0l-.035-.059h0l-.009-.014h0L264.4,86.4h0l-.027-.045h0c-.188-.316-.384-.627-.585-.933ZM249.539,74.873l-.844,2.9a22.458,22.458,0,0,1,7.113,3.533l1.8-2.425a25.594,25.594,0,0,0-5.187-2.975h0l-.08-.034h0l-.017-.007h0l-.162-.068h0l-.018-.007h0l-.081-.034h0a25.634,25.634,0,0,0-2.517-.879Z" transform="translate(-18 -44)" style="fill: #fff"/>
    </g>
    <path d="M242.353,79.594A19.906,19.906,0,1,1,222.447,99.5a19.929,19.929,0,0,1,19.906-19.906m0-.754a20.66,20.66,0,1,0,20.66,20.66,20.66,20.66,0,0,0-20.66-20.66Z" transform="translate(-18 -44)" style="fill: #021e5b"/>
    <path d="M242.353,78.84H240.8l-.018,0h-.016l-.024,0h-.13l-.017,0h-.017l-.024,0h-.015l-.019,0h-.014l-.019,0h-.021l-.019,0h-.015l-.025,0H240.4l-.033,0h-.007l-.033,0h0a20.572,20.572,0,0,0-4.642,1l.243.714a19.873,19.873,0,0,1,6.425-1.06V78.84Zm-12.62,4.3-.037.029h0l-.03.023h0l-.012.009h0l-.018.013,0,0-.009.007,0,0-.01.008h0l-.006.005h0l-.009.007,0,0-.009.007,0,0-.017.014,0,0-.009.006,0,0-.009.007,0,0-.006,0,0,0-.009.007,0,0-.008.007,0,0,0,0,0,0-.006,0,0,0-.008.006,0,0-.007.005,0,0,0,0,0,0-.007.006,0,0-.007.006,0,0,0,0-.006,0,0,0,0,0-.006.006-.005,0,0,0-.007,0,0,0,0,0-.006,0,0,0,0,0-.006.005,0,0-.007.006,0,0-.006,0,0,0,0,0,0,0-.007.006,0,0-.007,0,0,0-.006.005,0,0-.008.006,0,0-.008.006,0,0-.006.006,0,0-.008.006,0,0-.008.006,0,0-.008.006,0,0-.007,0,0,0-.008.007,0,0-.008.007,0,0-.008.006h0l-.009.008h0l-.008.007,0,0-.008.007h0l-.008.007,0,0-.009.007h0l-.009.007v0l-.008.007h0l-.008.007,0,0-.009.007h0l-.009.008h0l-.009.008h0l-.008.007,0,0-.009.007h0l-.009.007h0l-.009.008h0l-.009.008h0l-.019.016h0l-.01.007h0l-.009.008h0l-.009.008h0l-.01.008h0l-.009.008h0l-.019.016h0l-.009.008h0l-.019.017h0l-.009.008h0l-.01.008h0l-.02.017h0l-.01.008h0l-.1.087h0a20.846,20.846,0,0,0-2.7,2.855h0l-.024.032h0l-.024.031h0l-.007.01h0l-.008.01h0l-.008.01h0l-.008.009v0l-.008.009h0l-.016.02h0l-.007.01h0l-.007.01h0l-.007.009v0l-.007.009v0l-.007.009h0l-.007.009h0l-.007.009v0l-.007.009,0,0-.006.009v0l-.007.008v0l-.007.008,0,0-.006.009,0,0-.006.007v0l-.007.009,0,0-.006.008,0,0-.006.008,0,0-.005.008,0,0-.007.009,0,0-.006.009,0,0-.005.008,0,0-.006.008,0,0,0,.008,0,0-.005.007,0,0,0,.007,0,0-.006.008,0,0,0,.006,0,0,0,0,0,.005,0,.006,0,0-.006.008,0,0,0,.005-.005.006,0,0,0,0-.005.007,0,.005,0,0-.006.007,0,0,0,.008,0,0,0,0,0,0-.006.009,0,0-.007.009,0,0-.013.018v0l-.007.01,0,0-.022.03h0l-.023.03h0l-.009.012h0c-.154.213-.3.429-.449.649l.628.417a19.981,19.981,0,0,1,4.438-4.768l-.461-.6Zm-7.369,11.115h0l0,.008h0l0,.019v0l0,.007v0l-.005.019h0l0,.008v0l0,.008h0l0,.019h0l0,.008v0l0,.008h0l0,.01h0l0,.008v0l0,.007v0l0,.007v0l0,.009v0l0,.007v0l0,.006v0l0,.008h0l0,.009v.012l0,.006v0l0,.009v0l0,.007v.012l0,.006v0l0,.009v0l0,.006v0l0,.005v.013l0,.008v.013l0,0v0l0,.008v0l0,.006v0l0,0v.013l0,.009v.03l0,.009v.013l0,.005v.015l0,.006v.027l0,.008v.022l0,.007v.032l0,.008v.031l0,.01v.02l0,.019v.02l0,.012v.028l0,.011v.02l0,.019v.02l0,.019v0l0,.006v0l0,.006v0l0,.011V95.1l0,.019v.011l0,.006v0l0,.019v.02l0,.013h0V95.2l0,.006v0l-.005.02v.019l0,.02v0l0,.006v.009h0l0,.021v0l0,.006v0l0,.006h0l0,.014h0v.017l0,.021V95.4l0,.021h0v.009l-.006.029v.009h0l-.005.023h0V95.5l-.006.03h0v.007h0l-.006.031h0l0,.007h0l-.006.03h0v.007h0l0,.023h0v.007h0l-.006.03h0l0,.008h0l0,.031h0v.008h0l-.006.031h0l0,.03V95.8h0l-.006.03h0v.008h0l-.006.031h0l0,.031h0v.007h0l0,.031h0l0,.007h0l0,.031h0l-.006.031h0v.009l0,.03h0l0,.007h0l0,.031h0v.008h0l0,.023h0l0,.007h0l-.006.04h0l0,.031h0l0,.007h0l0,.023h0l0,.007h0v.008h0l0,.023h0v.009l0,.03h0v.007h0l0,.023h0v.017l0,.022h0V96.4l0,.03h0v.009l0,.023h0v.016h0l0,.023h0v.008h0l0,.03v.009h0l0,.031h0v.007h0l0,.023h0v.016h0l0,.024h0v.008h0l0,.031h0v.007h0l0,.023h0v.007h0v.007h0l0,.023h0v.009l0,.03v.009h0l0,.031h0v.009l0,.022h0V96.9h0l0,.022v.011l0,.03h0v.009l0,.022h0v.018l0,.021v.011l0,.03v.011l0,.021v.019l0,.022v.017h0l0,.015h0V97.2l0,.022h0v.018l0,.021v.02l0,.021v.017h0v.034l0,.02V97.4l0,.013h0v.1l0,.02v.108h0v1.077h0v.158h0v.23h0v.159h0v.115h0V99.5h0v.058h0v.058h0v.224h0v.074h0v.008h0v.025h0q.011.522.048,1.037l.752-.054c-.033-.473-.051-.956-.051-1.433a19.983,19.983,0,0,1,.647-5.053l-.73-.191Zm1.654,13.008-.694.294a20.419,20.419,0,0,0,1.062,2.149h0l0,.006h0l0,.005h0l.015.028h0l0,0v0l0,0h0l0,0h0l.012.021h0l0,.005h0l0,.005v0l0,0h0l.009.014v0l0,0,0,0,0,0v0l0,0,0,0,0,0,0,0,0,0,0,0,0,0v0l0,0,0,0,0,0,0,0,0,0v0l0,0,0,.006,0,0,0,0,0,0,0,0,0,0,0,0v0l0,0v0l0,.005h0l0,.007h0l0,0v0l0,0v0l0,0,0,0,0,0v0l.008.013h0l0,0v0l0,0v0l0,0v0l0,.005h0l.008.013h0l0,.006h0l0,.005h0l0,.006h0l.012.02h0l0,.006h0l0,0v0l.016.026h0l0,.006h0l0,.006h0l.016.026h0l0,.006h0l0,.006h0l.016.027h0a20.7,20.7,0,0,0,2.286,3.091l.562-.5a19.878,19.878,0,0,1-3.49-5.5Zm8.563,9.582-.371.657q.391.221.793.425h0l.07.035h0l.035.017h0l.007,0h0l.028.014h0l.007,0h0l.028.014h0l.007,0h0l.035.017h0l.007,0h0l.028.014h0l.006,0h0l.02.01h0l.006,0h0l.006,0h0l.028.014h0l.007,0h0l.006,0h0l.014.007h0l.007,0h0l.006,0h0l.007,0h0l.014.006h0l.007,0h0l0,0h0l.006,0h0l.02.01h0l.006,0h0l.006,0h0l.028.013h0l.006,0h0l.021.009h0l.007,0h0l.006,0h0l.006,0h0l.014.006h0l.006,0h0l.006,0h0l.007,0h0l.021.01h0l.006,0h0l.006,0h0l.02.01h0l.006,0h0l0,0h0l.007,0h0l.014.006h0l.006,0h0l.006,0h0l.028.013h0l.007,0h0l.021.01h0l.007,0h0l.006,0h0l.006,0h0l.014.007h0l.006,0h0l0,0h0l0,0h0l.013.006h0l.006,0h0l0,0h0l0,0h0l.006,0h0l.007,0h0l.006,0h0l0,0h0l0,0h0l0,0h0l.007,0h0l.006,0h0l0,0h0l0,0h0l.006,0h0l.013.006h0l0,0,0,0,0,0h0l0,0h0l.014.007h0l0,0h0l0,0h.006l0,0,.006,0h0l.006,0h0l0,0h0l0,0h0l0,0h0l0,0h0l.006,0h0l0,0,0,0h.006l0,0h0l.006,0h0l.006,0h0l0,0h0l0,0h0l0,0h0l0,0h0l.006,0h0l.006,0h0l0,0h0l0,0h0l0,0h0l.005,0,0,0,0,0h0l0,0h.006l0,0h0l0,0h0l0,0h0l0,0h0l0,0h.007l0,0h0l0,0,.009,0h0l0,0h0l0,0h.007l0,0h0l0,0,0,0,0,0h0l0,0h0l0,0h.007l0,0h.006l.007,0,0,0h0l0,0h.007l0,0h0l0,0h0l.01,0h0l0,0h.006l0,0h.006l0,0h0l.008,0h0l0,0h0l0,0h0l0,0h.009l.008,0h.009l0,0h0l0,0h0l0,0h0l.015.007h0l0,0h0l0,0h0l0,0h0l.014.006h.006l0,0h.006l0,0h.008l.009,0h.009l0,0h0l0,0h0l0,0h0l.018.007h0l0,0h0l0,0h.008l.01,0h.008l0,0h0l0,0h0l.005,0h0l.016.006h0l0,0h.008l0,0h0l.017.006h0l0,0h0l0,0h0l0,0h0l.017.007h0l0,0h0l0,0h0l.006,0h0l.024.009h0l0,0h0l.006,0h0l.03.012h0l.03.012h0l.006,0h0l.005,0h0l.023.01h0l.005,0h0l0,0h0l0,0h0l.024.01h0l.006,0h0l.031.012h0l.006,0h0l.006,0h0l.023.009h0l.006,0h0l0,0h0l.073.028h0l.03.012h0l.006,0h0l.074.028h0a20.534,20.534,0,0,0,3.4.938l.138-.742a19.74,19.74,0,0,1-6.118-2.225Zm18.834.382a19.741,19.741,0,0,1-6.2,1.974l.107.747a20.543,20.543,0,0,0,2.968-.654h0l.038-.011h0l.037-.012h0l.038-.011h0l.031-.009h0l.006,0h0l.006,0h0l.025-.008h0l.006,0h0l.031-.01h.007l.006,0h0l.024-.007h.014l.018,0h.027l.01,0h.03l.006,0,0,0h.021l0,0h0l.006,0h.018l0,0h.01l.007,0h.01l0,0h0l0,0h.011l.005,0h.007l0,0h.02l.007,0,0,0h.017l0,0h.007l0,0h.014l0,0h.01l.005,0h0l0,0h0l0,0h.01l0,0h.009l.007,0h.009l0,0h.01l0,0h0l.007,0h0l0,0h.01l0,0h.01l.007,0h0l0,0h.01l0,0h0l.007,0h0l.008,0h0l.006,0h0l0,0h0l.006,0h0l.022-.008h0l0,0h0l.006,0h0l.006,0h0l.015,0h0l.006,0h.009l.021-.008h0l.006,0h0l.006,0h0l.007,0h0l.014-.006h0l.006,0h0l.006,0h0l.007,0h0l.008,0h0l.007,0h0l.006,0h0l.006,0h0l.022-.008h0l.007,0h0l.007,0h0l.022-.008h0l.007,0h0l.006,0h0l.022-.007h0l.007,0h0l.036-.014h0l.074-.027h0a20.443,20.443,0,0,0,2.3-1.006l-.344-.672ZM260.358,108a19.9,19.9,0,0,1-3.709,5.353l.541.525a20.719,20.719,0,0,0,2.668-3.4h0l.021-.033h0l0-.006h0l0-.006h0l0,0h0l.008-.013h0l0,0h0l0-.006h0l0,0h0l0-.006h0l.008-.012v0l0,0h0l0,0v0l0-.005h0l0-.005h0l0-.007h0l0-.006v0l0,0,0,0,0,0,0,0,0,0,0,0,0,0v0l0-.006v0l0,0v0l0,0v0l0,0,0,0,0,0,0,0,0,0,0-.007v0l0,0,0,0,0,0,0,0,0,0,0,0,0,0v0l0,0,0,0,0-.008,0,0,0,0h0l0-.005v0l0,0,0,0,0,0,0,0,0,0h0l0-.009h0l0,0v0l0,0v0l0,0,0,0,0,0h0l.009-.015h0l0-.005h0l0,0v0l0-.005h0l0-.005h0l.009-.017h0l0,0h0l0,0h0l0,0h0l.013-.022h0l0-.005h0l0-.006h0l.017-.028h0l0,0h0l0,0h0l.023-.04h0q.471-.8.872-1.648l-.682-.323Zm2.179-12.929-.737.161a20.055,20.055,0,0,1,.459,4.269,20.328,20.328,0,0,1-.124,2.237l.749.083q.036-.321.062-.645h0v-.009h0l0-.054h0v-.053h0l0-.018v-.157l0-.031h0v-.032h0v-.007h0V100.8h0l0-.049h0v-.008h0v-.007h0v-.016h0v-.007h0l0-.057h0v-.008h0v-.007h0v-.008h0l0-.065h0v-.008h0v-.008h0v-.007h0l0-.074h0l0-.091h0v-.008h0l0-.065h0v-.007h0v-.016h0v-.007h0l0-.057h0V100.2h0v-.016h0v-.007h0v-.008h0v-.048h0v-.007h0v-.016h0v-.008h0v-.007h0v-.1h0v-.032h0V99.5h0v-.133h0v-.132h0v-.265h0v-.52h0l0-.026h0v-.105l0-.035v-.1l0-.026h0v-.1h0l0-.035h0v-.094h0l0-.044h0v-.086h0l0-.044h0v-.008h0v-.008h0v-.016h0v-.025h0v-.008h0v-.008h0l-.006-.061h0v-.017h0V97.58h0v-.016h0v-.008h0v-.007h0v-.009h0l-.008-.078h0v-.017h0v-.009h0v-.009h0l-.011-.1h0v-.008h0V97.3h0v-.009h0l-.013-.112h0a20.6,20.6,0,0,0-.347-2.111Zm-6.912-11.4-.485.578a19.929,19.929,0,0,1,4.242,4.943l.645-.392a20.756,20.756,0,0,0-1.682-2.377h0l-.048-.059h0l-.009-.011h0l-.009-.011h0l-.014-.017h0l-.009-.011h0l-.015-.017h0l-.008-.01,0,0-.008-.01h0l-.014-.017v0l-.009-.01h0l-.014-.017,0,0-.008-.009v0l-.008-.01,0,0,0,0,0,0-.008-.009,0,0-.007-.009,0,0-.014-.016,0,0-.008-.009v0l-.008-.01,0,0,0-.005,0,0-.008-.009,0,0-.007-.009,0,0-.014-.016,0,0-.007-.009,0,0-.008-.01h0l0,0,0,0-.007-.008,0,0-.006-.008,0,0,0,0,0,0L258,86l0,0,0-.007,0,0,0,0,0-.007,0,0,0,0,0-.006,0,0-.005,0,0-.006,0,0,0-.006,0,0,0,0,0-.006,0,0,0,0,0-.007,0,0,0,0,0-.006,0,0,0,0,0-.007,0,0,0,0,0-.005,0,0,0,0,0-.005,0,0-.006-.007,0,0,0-.006,0,0,0-.005,0,0-.006-.007,0,0-.006-.007,0,0,0-.006,0,0-.006-.007,0,0-.006-.008,0,0-.006-.006,0,0,0-.007,0,0-.007-.007,0,0-.007-.007,0,0,0-.006,0,0-.007-.007,0,0-.007-.008,0,0-.006-.007,0,0-.007-.007,0,0-.007-.007,0,0-.007-.008,0,0-.006-.007,0,0-.007-.008,0,0-.007-.008,0,0-.006-.008h0l-.007-.008,0,0-.007-.008,0,0-.008-.008v0l-.007-.007,0,0-.007-.008,0,0-.007-.008h0l-.007-.008h0l-.008-.009,0,0-.007-.008,0,0-.007-.008h0l-.008-.008v0l-.008-.008v0l-.008-.008v0l-.008-.008h0l-.008-.008v0l-.008-.008v0l-.008-.008h0l-.008-.008v0l-.008-.008v0l-.008-.008h0l-.008-.008v0l-.008-.008v0l-.008-.008h0l-.009-.009h0l-.008-.009v0l-.008-.008h0l-.008-.009h0l-.008-.008h0l-.008-.009h0l-.008-.009h0l-.008-.009h0l-.009-.009h0l-.008-.009h0l-.017-.018h0l-.008-.009h0l-.009-.009h0l-.018-.018h0l-.009-.009h0l-.018-.019h0l-.008-.01h0l-.027-.028h0l-.009-.009h0l-.018-.019h0l-.009-.009h0l-.027-.028h0l-.009-.009h0l-.028-.028h0l-.027-.028h0l-.028-.028h0c-.044-.044-.087-.088-.131-.131h0l-.065-.065h0l-.16-.157h0c-.089-.086-.179-.171-.269-.256h0l-.039-.036h0l-.029-.027h0l-.029-.027h0l-.039-.036h0l-.029-.027h0l-.01-.009h0l-.019-.017h0l-.009-.008h0l-.029-.026h0l-.029-.027h0l-.01-.008h0l-.019-.017h0l-.009-.008h0l-.009-.009h0l-.019-.017h0l-.009-.008h0l-.018-.017h0l-.009-.008h0l-.009-.008h0l-.009-.008h0l-.009-.008h0l-.009-.008h0l-.018-.016h0L256.017,84h0L256.007,84h0L256,83.986h0l-.009-.008,0,0-.008-.007,0,0-.009-.007h0l-.009-.008v0l-.009-.007,0,0-.008-.007h0l-.008-.007v0l-.009-.007,0,0-.008-.007,0,0L255.9,83.9h0l-.008-.007,0,0-.009-.007,0,0-.008-.007h0l-.007-.007,0,0-.009-.007,0,0-.008-.007,0,0-.007-.006h0l-.008-.007,0,0-.008-.006,0,0-.006-.006,0,0-.006,0,0,0-.008-.006,0,0-.007-.006,0,0-.006,0,0,0-.006,0,0,0-.007-.006,0,0,0,0-.005,0,0,0,0,0-.007-.006,0,0-.006-.005,0,0,0,0,0,0-.007,0,0,0-.007,0,0,0,0,0-.006-.005,0,0,0,0-.007-.006,0,0,0,0,0,0ZM243.19,78.857l-.03.753a19.851,19.851,0,0,1,6.376,1.319l.272-.7-.173-.066h0l-.029-.011h0l-.008,0h0l-.021-.008h0l-.006,0h0l-.007,0h0l-.014-.005h0l-.006,0h0l-.006,0h0l-.006,0h0l-.014,0h0l-.006,0h0l0,0h0l-.006,0h0l-.007,0h0l-.006,0h0l0,0h0l0,0h0l-.006,0h0l0,0h0l0,0h0l0,0h0l-.006,0h0l-.007,0h0l0,0H249.4l0,0h-.011l0,0,0,0h-.01l0,0h-.01l0,0-.007,0h-.009l0,0h-.01l-.014,0h0l0,0h-.009l0,0h0l-.01,0h0l0,0h0l0,0h-.009l-.016-.006h0l-.005,0h0l0,0h-.008L249.2,80h0l0,0h0l-.006,0h0l-.023-.008h0l-.006,0h0l-.006,0h0l-.024-.009h0a20.562,20.562,0,0,0-5.2-1.076h0l-.033,0h-.007l-.026,0h-.016l-.025,0h-.432l-.193-.008Z" transform="translate(-18 -44)" style="fill: #fff"/>
    <text transform="translate(209.092 66.742)" style="font-size: 29.41847038269043px;fill: #fff;font-family: Impact, Impact">50</text>
  </g>
  <g id="Select-40">
    <g>
      <circle cx="163.204" cy="55.5" r="25.647" style="fill: #c60614"/>
      <path d="M181.2,73.853h-2.082l-.013,0h-.415l-.012,0h-.059l-.012,0H178.6l-.012,0h-.077l-.011,0h-.166l-.011,0h-.006l-.012,0h-.059l-.012,0h-.129l-.013,0h-.006l-.012,0h-.086l-.01,0h-.061l-.009,0H177.9l-.011,0h-.042l-.01,0h-.033l-.012,0h-.007l-.01,0h-.041l-.012,0H177.7l-.008,0h-.027l-.01,0h-.034l-.01,0h-.033l-.012,0h-.015l-.01,0h-.034l-.011,0h-.015l-.011,0h-.016l-.009,0h-.026l-.009,0h-.017l-.01,0h-.015l-.012,0h-.018l-.007,0h-.017l-.01,0h-.025l-.011,0h-.015l-.011,0h-.007l-.009,0h-.017l-.01,0h-.016l-.01,0h-.008l-.01,0h-.016l-.011,0h-.014l-.012,0H177.1l-.01,0h-.008l-.007,0h-.011l-.008,0h-.007l-.011,0h-.018l-.008,0H177l-.011,0h-.016l-.01,0h-.007l-.011,0h-.007l-.009,0h-.009l-.008,0h-.008l-.011,0h-.006l-.012,0h-.015l-.01,0h-.008l-.01,0h-.008l-.007,0-.011,0H176.8l-.01,0h-.016l-.011,0-.007,0h-.008l-.011,0h-.006l-.011,0h-.008l-.007,0h-.011l-.008,0h-.008l-.009,0h-.009l-.009,0-.008,0h-.008l-.011,0h-.007l-.008,0-.01,0h-.008l-.009,0h-.016l-.011,0h-.007l-.01,0h-.008l-.008,0h-.009l-.009,0H176.5l-.011,0-.007,0-.011,0h-.015l-.01,0-.008,0h-.007l-.011,0-.007,0-.012,0h-.006l-.009,0h-.009l-.008,0h-.008l-.011,0-.006,0-.012,0h-.006l-.009,0-.009,0H176.3l-.007,0-.011,0h-.006l-.012,0-.006,0h-.01l-.008,0-.009,0h-.008l-.01,0H176.2l-.012,0h-.006l-.011,0-.007,0h-.009l-.007,0-.011,0h-.006l-.012,0h-.006l-.012,0H176.1l-.009,0-.008,0-.01,0h0l-.013,0h0l-.013,0h0l-.011,0h-.006l-.011,0h0l-.013,0h0l-.013,0h0l-.011,0h-.006l-.011,0h0l-.012,0h-.006l-.013,0h0l-.013,0h0l-.011,0h0l-.013,0h0l-.013,0h0l-.013,0h0l-.012,0h0l-.014,0h0l-.014,0h0l-.014,0h0l-.013,0h0l-.014,0h0l-.013,0h0l-.013,0h0l-.012,0h0l-.013,0h0l-.014,0h0l-.013,0h0l-.012,0h0l-.012,0h0l-.014,0h0l-.014,0h0l-.013,0h0l-.013,0h0l-.014,0h0l-.014,0h0l-.014,0h0l-.014,0h0l-.014,0h0l-.014,0h0l-.014,0h0l-.013,0h0l-.014,0h0l-.015,0h0l-.015,0h0l-.014,0h0l-.015,0h0l-.015,0h0l-.015,0h0l-.015,0h0l-.015,0h0l-.015,0h0l-.015,0h0l-.032.008h0l-.015,0h0l-.015,0h0l-.032.008h0l-.015,0h0l-.016,0h0l-.033.008h0l-.016,0h0l-.015,0h0l-.016,0h0l-.033.009h0l-.016,0h0l-.016,0h0l-.033.009h0l-.016,0h0l-.135.035h0q-1.206.316-2.365.743l1.043,2.831A22.556,22.556,0,0,1,181.2,76.87V73.853ZM164.569,79.98a25.858,25.858,0,0,0-2.075,1.979h0l-.013.014h0l-.033.035h0l-.013.014h0l-.011.012,0,0-.011.012,0,0-.032.034h0l-.011.013,0,0-.011.012,0,0-.011.012h0l-.011.012v0l-.019.021,0,0-.011.012,0,0-.01.011,0,0-.009.01,0,0-.009.01,0,0-.006.006,0,0-.008.009,0,0-.007.009,0,0-.008.008,0,.005-.008.009,0,0-.008.008,0,.005-.006.006-.007.008,0,.006-.005,0-.008.009,0,0-.009.011,0,0-.008.01,0,0-.007.008,0,.006-.006.006-.007.008,0,.005-.006.007-.006.007-.005.006-.007.007-.005.006-.007.008-.005,0-.007.008-.005.006,0,.006-.008.008,0,0-.008.009,0,0L162,82.5,162,82.5l-.006.007,0,.006-.007.007,0,.005-.008.009,0,0-.008.009,0,.005-.008.009,0,.005-.007.007,0,.006-.006.008,0,0-.007.008,0,0-.008.01,0,0-.008.009,0,.005-.008.009,0,0-.009.01,0,0-.008.009,0,0-.008.01,0,0-.009.011,0,0-.009.011,0,0-.01.01,0,0-.01.011,0,0-.009.01,0,0-.009.011,0,0-.009.01,0,0-.009.011,0,0-.009.011,0,0-.01.011,0,0-.009.011h0l-.01.011,0,0-.009.011,0,0-.009.01,0,0-.009.011,0,0-.01.011v0l-.01.012h0l-.01.013h0l-.011.012v0l-.01.012,0,0-.01.011v0l-.01.012v0l-.022.025h0l-.011.012v0l-.01.012,0,0-.01.012h0l-.011.013h0l-.022.026h0l-.01.013h0l-.011.013h0l-.011.013h0l-.011.013h0l-.044.054h0l-.011.013h0l-.056.067h0a25.742,25.742,0,0,0-2.494,3.651l2.629,1.481a22.664,22.664,0,0,1,5.055-6.137l-1.958-2.3Zm-8.691,15.453c-.051.319-.095.638-.134.96v0l0,.029h0l-.006.05h0v.01h0l0,.018v0l0,.027v0l0,.017h0V96.6l0,.013v.036l0,.026v0l0,.014v.436l0,.012v.446h0v.032h0v.031h0V97.7h0v.032h0v.079h0v.017l0,.029v.017h0v.111h0v.031h0v.065l0,.029v.017h0v.031h0v.015h0v.016h0v.015h0v.064h0v.047h0v.063h0v.047h0v.031h0V98.5h0v.257h0V98.8h0v.032h0v.032h0v.111h0V99.1h0v.032h0v.032h0v.112h0v.079h0V99.5h0v.4h0v.01h0v.052h0v.009h0v.143h0v.041h0v.009h0v.1h0v.009h0v.009h0v.01h0l0,.1h0l0,.041h0v.009h0v.009h0v.01h0v.01h0v.009h0l.006.153h0a25.692,25.692,0,0,0,.449,3.782l2.962-.577a22.919,22.919,0,0,1-.136-7.953l-2.98-.475Zm5.989,15.829-2.576,1.57,0,.006,0,0,.007.011,0,.005.005.009,0,.007,0,.007.006.009,0,.006.006.01,0,.006,0,.008,0,.007.005.008,0,.007,0,.008,0,.006.006.01,0,.005.007.011,0,0,.007.011,0,0,.006.011,0,0,.007.01,0,0,.007.012,0,0,.008.012,0,0,.007.012,0,0,.008.012,0,0,.007.012,0,0,.008.012v0l.008.013v0l.008.013,0,0,.008.013v0l.009.014h0l.009.014h0l.028.045h0l.009.015h0a25.764,25.764,0,0,0,5.7,6.329l1.878-2.361a22.7,22.7,0,0,1-5.263-5.96ZM174.118,121l-.944,2.865a25.476,25.476,0,0,0,5.706,1.179h0l.112.01h0l.048,0h0l.032,0h0l.032,0h.049l.031,0h0l.032,0h0l.048,0h0l.031,0h.017l.032,0h0l.031,0h0l.032,0h.016l.032,0h0l.031,0h.018l.03,0h0l.031,0h.082l.031,0h.131l.031,0h1.544c.234,0,.465-.006.7-.014l-.1-3.016q-.39.014-.783.014A22.619,22.619,0,0,1,174.118,121Zm22.35-4.792a22.562,22.562,0,0,1-6.713,4.252l1.141,2.794q.938-.384,1.837-.837h0l.016-.008h0l.016-.008h0l.043-.021h0l.014-.008h0l.014-.008h0l.014-.007h0l.013-.007,0,0,.008,0h0l.014-.008,0,0,.013-.006,0,0,.012-.007.005,0,.011-.006,0,0,.011-.006.006,0,.007,0,.008,0,.008,0,.007,0,.009,0,.007,0,.01,0,.006,0,.009-.005.008,0,.006,0,.01-.006.006,0,.01-.005.006,0,.009,0,.007,0,.008,0,.007,0,.009,0,0,0,.012-.006,0,0,.012-.006,0,0,.011-.006.005,0,.01-.006,0,0,.01,0,.005,0,.012-.006,0,0,.012-.006,0,0,.012-.007,0,0,.012-.006,0,0,.013-.007h0l.014-.007h0l.014-.007,0,0,.013-.007h0l.013-.007,0,0,.014-.007h0l.014-.008h0l.015-.008h0l.014-.008h0l.014-.008h0l.015-.008h0l.014-.008h0l.03-.017h0l.015-.008h0l.014-.008h0l.014-.008h0l.015-.008h0l.031-.017h0l.015-.009h0l.015-.008h0l.093-.052h0a25.726,25.726,0,0,0,4.105-2.856h0l.08-.068h0l.08-.069h0l.079-.069h0l.012-.011h0l.012-.01h0l.038-.034h0l.012-.01,0,0,.012-.01h0l.012-.011h0l.026-.023h0l.012-.011h0l.013-.01h0l.013-.011h0l.012-.011h0l.025-.022h0l.012-.011h0l.012-.01,0,0,.012-.01h0l.012-.011h0l.024-.022h0l.011-.011h0l.011-.011h0l.012-.011h0l.012-.011h0l.012-.01h0l.012-.011h0l.012-.011h0l.012-.011h0l.011-.011h0l.012-.011h0l.012-.011h0l.011-.01,0,0-2.036-2.227Zm7.192-13.888a22.4,22.4,0,0,1-2.352,7.582l2.678,1.389a25.465,25.465,0,0,0,2.669-8.6l-3-.371Zm-1.016-16.9-2.52,1.659a22.434,22.434,0,0,1,3.128,7.3l2.94-.68q-.2-.859-.455-1.7h0l-.031-.1h0l-.021-.067h0l0-.016h0l0-.016h0l-.011-.033h0l-.005-.015v0l0-.016h0l0-.016h0l0-.016h0l0-.016h0l0-.016v0l0-.015v0l0-.015v0l0-.015h0l0-.016h0l0-.016v0l0-.014v0l0-.015v0l-.005-.014v0l-.005-.014v0l0-.013v0l0-.013v0l0-.013v-.005l0-.013v0l0-.013v0l0-.012,0,0,0-.013v0l0-.013v0l0-.013,0,0,0-.013,0,0,0-.011v0l0-.012,0,0,0-.013,0-.005,0-.012v0l0-.013v0l0-.011,0-.006,0-.01,0-.006,0-.011,0-.006,0-.012,0,0,0-.012,0-.006,0-.01,0-.006,0-.011,0,0,0-.012,0-.006,0-.012,0-.005,0-.012,0-.006,0-.009,0-.008,0-.009,0-.007,0-.01,0-.006,0-.011,0-.007,0-.01,0-.007,0-.009,0-.008,0-.008,0-.01,0-.007,0-.009,0-.008,0-.007,0-.011,0-.007,0-.008,0-.009,0-.007,0-.011,0-.006,0-.01,0-.008,0-.007,0-.01,0-.007,0-.007,0-.011,0-.006,0-.012,0,0,0-.012,0-.006,0-.009,0-.008,0-.008,0-.007,0-.01,0-.006,0-.012,0-.006,0-.011,0-.006,0-.011,0-.006,0-.008,0-.006,0-.012,0,0,0-.012,0-.005,0-.013,0-.005,0-.013v0l-.01-.026v0l0-.015,0,0,0-.014v0l-.006-.015v0l-.01-.027v0l0-.015,0,0,0-.015v0l-.007-.017h0l-.017-.045h0l-.006-.017h0l-.007-.017h0l-.024-.063h0l-.006-.017h0l-.007-.018h0l-.017-.046h0l-.006-.018h0l-.024-.063v0l-.006-.016v0l-.007-.017h0a25.369,25.369,0,0,0-1.145-2.5h0l-.008-.017h0l-.008-.017h0l-.022-.042v0l-.008-.015v0l-.008-.015v0l-.013-.025h0l-.008-.015v0l-.008-.014v0l-.008-.014v0l-.014-.025h0l-.008-.016v0l-.008-.015,0,0-.007-.014,0,0-.008-.015h0l-.005-.009,0,0-.007-.013,0,0-.006-.012,0,0-.006-.012,0,0-.007-.013v0l0-.008,0-.009,0-.007,0-.005-.006-.011,0,0-.006-.011,0-.005,0-.011,0-.006,0-.006-.006-.01,0-.007,0-.006-.005-.01,0,0-.006-.011,0,0-.006-.01,0-.006,0-.007-.005-.009,0-.007,0-.01,0-.006,0-.007,0-.008,0-.008,0-.007,0-.008,0-.006-.006-.01,0-.006-.006-.01,0,0,0-.01,0-.006,0-.009,0-.006-.005-.009,0,0-.006-.011,0-.005-.006-.01,0-.006-.006-.011,0,0,0-.009,0-.007,0-.008,0-.005-.006-.011,0,0-.006-.011,0,0-.006-.011,0-.005-.006-.01,0-.005-.006-.01,0,0-.007-.012,0,0-.007-.012,0,0-.007-.012,0,0-.007-.013h0l-.007-.013,0,0-.007-.013,0,0-.007-.012v0l-.008-.013,0,0-.007-.013v0l-.007-.013v0l-.008-.013v0l-.008-.013v0l-.008-.014h0l-.008-.014h0l-.017-.029h0l-.009-.014h0l-.009-.014v0l-.035-.059h0l-.008-.014h0l-.009-.014h0l-.026-.045h0q-.283-.474-.586-.933ZM188.39,74.873l-.844,2.9a22.458,22.458,0,0,1,7.113,3.533l1.8-2.425a25.594,25.594,0,0,0-5.187-2.975h0l-.08-.034h0l-.016-.007h0l-.162-.068h0l-.018-.007h0l-.081-.034h0a25.744,25.744,0,0,0-2.518-.879Z" transform="translate(-18 -44)" style="fill: #fff"/>
    </g>
    <path d="M181.2,79.594A19.906,19.906,0,1,1,161.3,99.5,19.929,19.929,0,0,1,181.2,79.594m0-.754a20.66,20.66,0,1,0,20.66,20.66A20.66,20.66,0,0,0,181.2,78.84Z" transform="translate(-18 -44)" style="fill: #065e01"/>
    <path d="M181.2,78.84h-1.552l-.017,0h-.016l-.025,0h-.13l-.017,0h-.016l-.025,0h-.015l-.018,0h-.015l-.019,0h-.021l-.019,0h-.015l-.025,0h-.008l-.033,0h-.006l-.034,0h0a20.584,20.584,0,0,0-4.642,1l.243.714a19.877,19.877,0,0,1,6.425-1.06V78.84Zm-12.62,4.3-.036.029h0l-.029.023h0l-.011.009h0l-.018.013v0l-.01.007,0,0-.011.008h0l-.006.005h0l-.01.007,0,0-.009.007,0,0-.017.014,0,0-.009.006,0,0-.009.007,0,0,0,0,0,0-.009.007,0,0-.009.007,0,0,0,0,0,0-.006,0,0,0-.008.006,0,0-.006.005,0,0,0,0,0,0-.007.006,0,0-.007.006,0,0,0,0-.007,0,0,0,0,0-.006.006-.005,0,0,0-.007,0,0,0,0,0-.006,0,0,0-.006,0-.005.005,0,0-.007.006,0,0-.006,0,0,0-.006,0,0,0-.007.006,0,0-.006,0,0,0-.006.005,0,0-.008.006,0,0-.008.006,0,0-.006.006,0,0-.008.006,0,0-.007.006,0,0-.008.006,0,0-.006,0,0,0-.008.007,0,0-.009.007,0,0-.007.006h0l-.009.008h0l-.008.007,0,0-.009.007h0l-.008.007,0,0-.009.007h0l-.008.007,0,0-.008.007h0l-.009.007,0,0-.009.007h0l-.009.008h0l-.009.008h0l-.009.007,0,0-.009.007h0l-.008.007h0l-.009.008h0l-.009.008h0l-.019.016h0l-.009.007h0l-.01.008h0l-.01.008h0l-.009.008h0l-.009.008h0l-.019.016h0l-.009.008h0l-.019.017h0l-.009.008h0l-.01.008h0l-.02.017h0l-.01.008h0l-.1.087h0a20.778,20.778,0,0,0-2.7,2.855h0l-.024.032h0l-.024.031h0l-.008.01h0l-.008.01h0l-.008.01h0l-.007.009v0l-.008.009h0l-.016.02h0l-.008.01h0l-.007.01h0l-.008.009v0l-.007.009v0l-.007.009h0l-.007.009h0l-.006.009,0,0-.007.009v0l-.007.009v0l-.007.008v0l-.007.008,0,0-.006.009,0,0,0,.007,0,0-.006.009,0,0-.007.008,0,0-.006.008v0l-.006.008,0,0-.006.009,0,0-.006.009,0,0-.005.008,0,0-.006.008,0,0-.006.008,0,0,0,.007,0,0,0,.007,0,0-.006.008,0,0-.005.006,0,0,0,0,0,.005,0,.006,0,0-.005.008,0,0,0,.005-.005.006,0,0,0,0-.005.007,0,.005,0,0-.006.007,0,0-.006.008,0,0,0,0,0,0-.006.009,0,0-.007.009,0,0-.013.018v0l-.007.01,0,0-.022.03h0l-.023.03h0l-.008.012h0c-.154.213-.3.429-.449.649l.628.417a19.981,19.981,0,0,1,4.438-4.768l-.461-.6Zm-7.368,11.115h0l0,.008h0l0,.019v0l0,.007v0l-.005.019h0l0,.008v0l0,.008h0l0,.019h0l0,.008v0l0,.008h0l0,.01h0l0,.008v0l0,.007v.012l0,.009v.012l0,.006v0l0,.008h0l0,.009v.012l0,.006v0l0,.009v0l0,.007v.021l0,.009v.013l0,.005v.013l0,.008v.022l0,.008v.013l0,0v0l0,.006v0l0,.009v0l0,0v.022l0,.009V94.7l0,.006v.011l0,0v.005l0,0v.013l0,.008v.029l0,.006v.026l0,.008v.031l0,.01v.02l0,.019v.02l0,.012v.028l0,.011v.02l0,.019v0l0,0v0l0,0v0l0,.019v.02l0,.011V95.1l0,.019v0l0,.006v0l0,.006v0l0,.019v.02l0,.013h0l0,.006v0l0,.006v0l0,.02v.019l0,.02v.018h0l0,.021v.017h0l0,.014h0v.009l0,.006v0l0,.021v.011l0,.006v0l0,.021h0v.009l-.006.029v.009h0l-.005.023h0V95.5l-.006.03h0l0,.007h0l-.006.031h0v.007h0l0,.03h0v.007h0l0,.023h0v.007h0l-.006.03h0v.008h0l-.006.031h0l0,.008h0l-.006.031h0l0,.03v0l0,.007h0l0,.03h0v.008h0l-.006.031h0l0,.031h0l0,.007h0l-.005.031h0l0,.007h0l0,.031h0l-.005.031h0v.009l0,.03h0v.007h0l0,.031h0v.008h0l0,.023h0v.007h0l-.006.04h0l0,.031h0v.007h0l0,.023h0v.007h0v.008h0l0,.023h0v.009l0,.03h0v.007h0l0,.023h0v.017l0,.022h0V96.4l0,.03h0v.009l0,.023h0l0,.007v.009h0l0,.023h0v.008h0l0,.03v.009h0l0,.031h0v.007h0l0,.023h0v.016h0l0,.024h0v.008h0l0,.031h0v.007h0l0,.023h0v.007h0v.007h0l0,.023h0v.009l0,.03v.009h0l0,.031h0v.009l0,.022h0V96.9h0l0,.022v.011l0,.03h0v.009l0,.022h0v.018l0,.021v.011l0,.03v.011l0,.021v.019l0,.022v.017h0v.015h0V97.2l0,.022h0v.018l0,.021v.02l0,.021v.017h0l0,.014v.02l0,.02v.034h0v.059l0,.021v.02l0,.02v.108h0v1.077h0v.158h0v.23h0v.159h0v.115h0V99.5h0v.058h0v.058h0v.224h0v.074h0v.008h0v.025h0q.012.522.048,1.037l.752-.054c-.033-.473-.05-.956-.05-1.433a19.982,19.982,0,0,1,.646-5.053l-.729-.191Zm1.653,13.008-.694.294a20.426,20.426,0,0,0,1.063,2.149h0l0,.006h0l0,.005h0l.015.028h0l0,0v0l0,0h0l0,0h0l.013.021h0l0,.005h0l0,.005v0l0,0h0l.009.014v0l0,0,0,0,0,0v0l0,0v0l0,0,0,0,0,0,0,0,0,0,0,0v0l0,0,0,0,0,0,0,0,0,0v0l0,.006,0,0v0l0,0,0,0,0,0,0,0v0l0,0v0l0,.005h0l0,.007h0l0,0v0l0,0v0l0,0v0l0,0v0l.007.013h0l0,0v0l0,0v0l0,0v0l0,.005h0l.008.013h0l0,.006h0l0,.005h0l0,.006h0l.012.02h0l0,.006h0l0,0v0l.016.026h0l0,.006h0l0,.006h0l.016.026h0l0,.006h0l0,.006h0l.016.027h0a20.7,20.7,0,0,0,2.286,3.091l.562-.5a19.9,19.9,0,0,1-3.49-5.5Zm8.563,9.582-.371.657q.391.221.793.425h0l.069.035h0l.034.017h0l.007,0h0l.027.014h0l.007,0h0l.028.014h0l.007,0h0l.035.017h0l.007,0h0l.028.014h0l.006,0h0l.021.01h0l.006,0h0l.006,0h0l.028.014h0l.007,0h0l.007,0h0l.014.007h0l.007,0h0l.006,0h0l.006,0h0l.014.006h0l.006,0h0l.006,0h0l.006,0h0l.021.01h0l.006,0h0l.006,0h0l.028.013h0l.006,0h0l.02.009h0l.007,0h0l.006,0h0l.006,0h0l.014.006h0l.007,0h0l.006,0h0l.007,0h0l.021.01h0l.006,0h0l.006,0h0l.02.01h0l.005,0h0l0,0h0l.006,0h0l.014.006h0l.006,0h0l.006,0h0l.028.013h0l.007,0h0l.022.01h0l.006,0h0l.006,0h0l.006,0h0l.014.007h0l.007,0h0l.006,0h0l.006,0h0l.014.006h0l.006,0h0l0,0h0l0,0h0l.006,0h0l.006,0h0l.005,0h0l0,0h0l0,0h0l0,0h0l.007,0h0l.006,0h0l0,0h0l0,0h0l.007,0h0l.014.006h0l0,0,0,0,0,0h0l.006,0h0l.014.007h0l0,0h0l0,0h.007l0,0,.006,0h0l.007,0h0l0,0h0l0,0h0l0,0h0l.006,0h0l.007,0h0l0,0,0,0h.006l0,0h0l.006,0h0l.006,0h0l0,0h0l0,0h0l0,0h0l0,0h0l.007,0h0l.006,0h0l0,0h0l0,0h0l0,0h0l.005,0,0,0,0,0h0l0,0h.006l0,0h0l0,0h0l0,0h0l0,0h0l0,0h.007l0,0h0l0,0,.008,0h0l0,0h0l0,0h.006l0,0h0l0,0,0,0,.006,0h0l0,0h0l0,0h.006l0,0h.006l.007,0,0,0h0l0,0h.007l0,0h0l0,0h0l.01,0h0l0,0h.006l0,0h.006l.005,0h0l.008,0h0l0,0h0l0,0h0l0,0h.01l.007,0h.009l0,0h0l0,0h0l0,0h0l.015.007h0l0,0h0l0,0h0l0,0h0l.014.006h.007l0,0h.006l0,0h.009l.008,0h.009l0,0h0l0,0h0l0,0h0l.017.007h0l0,0h0l0,0h.008l.01,0h.008l0,0h0l0,0h0l.005,0h0l.016.006h0l0,0h.008l.005,0h0l.017.006h0l0,0h0l0,0h0l0,0h0l.017.007h0l0,0h0l0,0h0l0,0h0l.023.009h0l0,0h0l.006,0h0l.03.012h0l.03.012h0l.006,0h0l.006,0h0l.024.01h0l.006,0h0l0,0h0l.006,0h0l.024.01h0l.006,0h0l.03.012h0l.006,0h0l.006,0h0l.024.009h0l0,0h0l.006,0h0l.074.028h0l.031.012h0l.006,0h0l.074.028h0a20.534,20.534,0,0,0,3.4.938l.138-.742a19.75,19.75,0,0,1-6.118-2.225Zm18.834.382a19.741,19.741,0,0,1-6.2,1.974l.107.747a20.514,20.514,0,0,0,2.968-.654h0l.038-.011h0l.038-.012h0l.037-.011h0l.031-.009h0l.006,0h0l.006,0h0l.025-.008h0l.006,0h0l.031-.01h.007l.006,0h0l.024-.007h.015l.017,0h.027l.011,0h.029l.006,0,0,0h.021l0,0h0l.006,0h.018l0,0h.01l.008,0h.009l0,0h0l0,0h.011l0,0h.008l0,0h.02l.007,0,0,0h.017l0,0h.007l0,0h.015l0,0h.01l0,0h0l.006,0h0l0,0h.01l0,0h.009l.007,0h.01l0,0h.01l0,0h0l.007,0h0l0,0h.01l0,0h.009l.007,0h0l0,0h.01l0,0h0l.006,0h0l.007,0h0l.006,0h0l0,0h0l.006,0h0l.022-.008h0l0,0h0l.006,0h0l.007,0h0l.014,0h0l.006,0h.009l.021-.008h0l.006,0h0l.006,0h0l.007,0h0l.015-.006h0l.006,0h0l.006,0h0l.007,0h0l.008,0h0l.006,0h0l.006,0h0l.007,0h0l.021-.008h0l.007,0h0l.007,0h0l.022-.008h0l.007,0h0l.006,0h0l.022-.007h0l.006,0h0l.037-.014h0l.074-.027h0a20.443,20.443,0,0,0,2.3-1.006l-.344-.672ZM199.21,108a19.926,19.926,0,0,1-3.71,5.353l.542.525a20.827,20.827,0,0,0,2.668-3.4h0l.02-.033h0l0-.006h0l0-.006h0l0,0h0l.008-.013h0l0,0h0l0-.006h0l0,0h0l0-.006h0l.008-.012v0l0,0h0l0,0v0l0-.005h0l0-.005h0l0-.007h0l0-.006v0l0,0v0l0,0,0,0,0,0,0,0,0,0,0,0,0-.006,0,0,0,0,0,0,0,0,0,0,0,0v0l0,0,0,0,0,0,0-.007v0l0,0v0l0,0,0,0,0,0,0,0,0,0v0l0,0v0l0-.008v0l0,0h0l0-.005v0l0,0,0,0,0,0,0,0,0,0h0l0-.009h0l0,0,0,0,0,0v0l0,0v0l0,0h0l.009-.015h0l0-.005h0l0,0v0l0-.005h0l0-.005h0l.01-.017h0l0,0h0l0,0h0l0,0h0l.013-.022h0l0-.005h0l0-.006h0l.017-.028h0l0,0h0l0,0h0l.024-.04h0q.472-.8.872-1.648L199.21,108Zm2.178-12.929-.737.161a19.991,19.991,0,0,1,.459,4.269,20.328,20.328,0,0,1-.124,2.237l.749.083q.036-.321.062-.645h0v-.009h0l0-.054h0v-.053h0l0-.018v-.075l0-.021v-.061l0-.031h0v-.032h0v-.007h0V100.8h0l0-.049h0v-.008h0v-.007h0v-.016h0v-.007h0l0-.057h0v-.008h0v-.007h0v-.008h0l0-.065h0v-.008h0v-.008h0v-.007h0l0-.074h0l0-.091h0v-.008h0l0-.065h0v-.007h0v-.016h0v-.007h0l0-.057h0V100.2h0v-.016h0v-.007h0v-.008h0v-.048h0v-.007h0v-.016h0v-.008h0v-.007h0l0-.039v-.06h0v-.032h0V99.5h0v-.133h0v-.132h0v-.265h0V98.71l0-.026v-.237h0V98.42h0v-.105l0-.035v-.1l0-.026h0v-.1h0l0-.035h0v-.094h0l0-.044h0v-.086h0l0-.044h0v-.008h0v-.008h0v-.016h0v-.025h0v-.008h0v-.008h0l0-.061h0v-.017h0V97.58h0v-.016h0v-.008h0v-.007h0v-.009h0l-.007-.078h0l0-.017h0v-.009h0v-.009h0l-.01-.1h0v-.008h0V97.3h0v-.009h0l-.012-.112h0a20.6,20.6,0,0,0-.348-2.111Zm-6.912-11.4-.484.578a19.946,19.946,0,0,1,4.241,4.943l.645-.392a20.756,20.756,0,0,0-1.682-2.377h0l-.049-.059h0l-.009-.011h0l-.009-.011h0l-.015-.017h0l-.008-.011h0l-.015-.017h0l-.009-.01v0l-.009-.01h0l-.014-.017v0l-.009-.01h0l-.014-.017v0l-.009-.009v0l-.008-.01,0,0,0,0,0,0-.008-.009,0,0-.007-.009,0,0-.014-.016,0,0-.007-.009,0,0-.008-.01,0,0,0-.005,0,0-.008-.009,0,0-.007-.009,0,0-.014-.016,0,0-.007-.009,0,0-.008-.01h0l0,0v0l-.008-.008,0,0-.007-.008,0,0,0,0,0,0,0-.007,0,0,0-.007,0,0,0,0-.006-.007,0,0,0,0-.005-.006,0,0,0,0,0-.006,0,0,0-.006,0,0,0,0,0-.006,0,0,0,0-.006-.007,0,0,0,0,0-.006,0,0,0,0,0-.007,0,0-.005,0,0-.005,0,0,0,0,0-.005,0,0-.007-.007,0,0,0-.006,0,0,0-.005,0,0-.006-.007,0,0-.006-.007,0,0,0-.006,0,0-.006-.007,0,0-.006-.008,0,0-.005-.006,0,0,0-.007,0,0-.006-.007,0,0-.006-.007,0,0-.006-.006,0,0-.007-.007,0,0-.007-.008,0,0-.007-.007,0,0-.006-.007,0,0-.007-.007,0,0-.007-.008,0,0-.006-.007,0,0-.007-.008,0,0-.008-.008v0l-.007-.008h0l-.008-.008,0,0-.007-.008,0,0-.007-.008,0,0-.007-.007v0l-.008-.008,0,0-.007-.008h0l-.007-.008h0l-.007-.009,0,0-.008-.008,0,0-.007-.008h0l-.007-.008,0,0L196.4,85.5v0l-.008-.008v0l-.008-.008h0l-.007-.008,0,0-.008-.008v0l-.008-.008h0l-.007-.008,0,0-.008-.008v0l-.008-.008h0l-.007-.008,0,0-.007-.008,0,0L196.3,85.4h0l-.008-.009h0l-.009-.009v0l-.008-.008h0l-.009-.009h0l-.008-.008h0l-.008-.009h0l-.009-.009h0l-.009-.009h0l-.009-.009h0l-.009-.009h0l-.017-.018h0l-.008-.009h0l-.008-.009h0l-.018-.018h0l-.009-.009h0l-.018-.019h0l-.009-.01h0l-.027-.028h0l-.009-.009h0l-.018-.019h0l-.009-.009h0l-.027-.028h0l-.009-.009h0l-.027-.028h0l-.028-.028h0l-.028-.028h0c-.043-.044-.087-.088-.131-.131h0l-.065-.065h0l-.161-.157h0c-.089-.086-.178-.171-.269-.256h0l-.038-.036h0l-.028-.027h0l-.029-.027h0l-.039-.036h0l-.029-.027h0l-.01-.009h0l-.019-.017h0l-.009-.008h0l-.029-.026h0l-.029-.027h0l-.01-.008h0l-.019-.017h0l-.009-.008h0L195,84.118h0l-.018-.017h0l-.01-.008h0l-.019-.017h0l-.009-.008h0l-.009-.008h0l-.009-.008h0l-.01-.008h0l-.009-.008h0l-.018-.016h0L194.869,84h0L194.858,84h0l-.009-.008h0l-.009-.008,0,0-.008-.007,0,0-.008-.007h0l-.009-.008v0l-.009-.007,0,0-.008-.007h0l-.008-.007,0,0-.008-.007,0,0-.008-.007,0,0-.008-.007h0l-.008-.007,0,0-.009-.007,0,0-.008-.007h0l-.007-.007,0,0-.008-.007,0,0-.008-.007,0,0-.007-.006h0l-.008-.007,0,0-.007-.006,0,0-.007-.006,0,0-.006,0,0,0-.007-.006,0,0-.007-.006,0,0-.006,0,0,0-.007,0,0,0-.007-.006,0,0-.006,0-.005,0,0,0,0,0-.007-.006,0,0-.006-.005,0,0,0,0,0,0-.007,0,0,0-.006,0,0,0,0,0-.006-.005,0,0,0,0-.007-.006,0,0,0,0,0,0Zm-12.435-4.809-.03.753a19.84,19.84,0,0,1,6.376,1.319l.272-.7c-.057-.022-.115-.045-.173-.066h0l-.029-.011h0l-.007,0h0l-.022-.008h0l-.007,0h0l-.007,0h0l-.015-.005h0l-.006,0h0l-.006,0h0l-.007,0h0l-.015,0h0l-.006,0h0l0,0h0l-.007,0h0l-.007,0h0l0,0h0l0,0h0l0,0h0l0,0h0l0,0h0l0,0h0l0,0h0l0,0h0l-.007,0h0l0,0h-.007l0,0h-.011l0,0,0,0h-.01l0,0h-.01l0,0-.007,0h-.01l0,0h-.01l-.015,0h0l0,0h-.009l0,0h0l-.009,0h0l0,0h0l0,0H188.1l-.016-.006h0l-.005,0h0l-.005,0h-.007L188.05,80h0l0,0h0l0,0h0l-.024-.008h0l-.006,0h0l-.006,0h0l-.024-.009h0a20.56,20.56,0,0,0-5.2-1.076h0l-.034,0h-.007l-.026,0h-.016l-.024,0h-.433l-.193-.008Z" transform="translate(-18 -44)" style="fill: #fff"/>
    <text transform="translate(148.49 66.742)" style="font-size: 29.41847038269043px;fill: #fff;font-family: Impact, Impact">40</text>
  </g>
  <g id="Select-20">
    <circle cx="102.056" cy="55.5" r="25.647" style="fill: #ede500"/>
    <g>
      <circle cx="102.056" cy="55.5" r="25.647" style="fill: #ede500"/>
      <path d="M120.056,73.853h-2.083l-.013,0h-.415l-.012,0h-.059l-.012,0h-.006l-.013,0h-.077l-.01,0h-.166l-.011,0h-.007l-.012,0H117.1l-.012,0h-.129l-.012,0h-.007l-.012,0h-.086l-.009,0h-.062l-.009,0h-.008l-.01,0H116.7l-.01,0h-.033l-.011,0h-.007l-.011,0h-.041l-.011,0h-.026l-.008,0h-.027l-.01,0h-.034l-.01,0h-.033l-.012,0H116.4l-.01,0h-.033l-.012,0h-.015l-.01,0h-.017l-.009,0h-.026l-.009,0h-.017l-.009,0h-.016l-.012,0h-.017l-.008,0h-.017l-.01,0h-.025l-.01,0h-.016l-.01,0h-.008l-.009,0h-.017l-.009,0h-.017l-.01,0h-.008l-.01,0h-.015l-.011,0h-.015l-.011,0h-.007l-.011,0h-.008l-.007,0h-.011l-.008,0H115.9l-.011,0h-.017l-.008,0h-.008l-.011,0h-.016l-.01,0h-.007l-.011,0h-.007l-.009,0h-.009l-.008,0h-.008l-.01,0h-.007l-.012,0h-.015l-.01,0H115.7l-.011,0h-.007l-.008,0-.011,0h-.007l-.009,0h-.017l-.011,0-.007,0H115.6l-.01,0h-.007l-.011,0h-.007l-.008,0h-.011l-.008,0h-.007l-.01,0h-.008l-.01,0-.008,0h-.008l-.01,0h-.008l-.008,0-.01,0h-.007l-.01,0h-.016l-.011,0H115.4l-.009,0h-.009l-.008,0h-.009l-.009,0h-.007l-.011,0-.007,0-.011,0H115.3l-.01,0-.008,0h-.007l-.011,0-.007,0-.011,0h-.007l-.009,0h-.009l-.008,0h-.008l-.01,0-.007,0-.012,0h-.006l-.009,0-.009,0h-.008l-.008,0-.01,0h-.007l-.012,0-.006,0h-.01l-.008,0-.008,0h-.009l-.009,0h-.007l-.012,0h-.006l-.01,0-.008,0h-.009l-.007,0-.01,0h-.007l-.011,0h-.006l-.013,0h0l-.01,0-.007,0-.011,0h0l-.013,0h0l-.013,0h0l-.012,0h-.006l-.011,0h0l-.012,0h-.006l-.012,0h0l-.012,0H114.8l-.01,0h0l-.013,0h0l-.013,0h0l-.013,0h0l-.011,0h0l-.013,0h0l-.013,0h-.005l-.012,0h0l-.012,0h0l-.014,0h0l-.014,0h0l-.013,0h0l-.013,0h0l-.014,0h0l-.014,0h0l-.014,0h0l-.012,0h0l-.013,0h0l-.013,0h0l-.013,0h0l-.013,0h0l-.013,0h0l-.014,0h0l-.013,0h0l-.013,0h0l-.013,0h0l-.013,0h0l-.014,0h0l-.014,0h0l-.014,0h0l-.015,0h0l-.014,0h0l-.014,0h0l-.014,0h0l-.015,0h0l-.014,0h0l-.014,0h0l-.015,0h0l-.015,0h0l-.014,0h0l-.014,0h0l-.015,0h0l-.016,0h0l-.015,0h0l-.015,0h0l-.032.008h0l-.015,0h0l-.015,0h0l-.032.008h0l-.015,0h0l-.015,0h0l-.032.008h0l-.016,0h0l-.015,0h0l-.016,0h0l-.033.009h0l-.016,0h0l-.017,0h0l-.033.009h0l-.016,0h0l-.134.035h0q-1.206.316-2.365.743l1.043,2.831a22.558,22.558,0,0,1,7.824-1.388V73.853ZM103.42,79.98a25.858,25.858,0,0,0-2.075,1.979h0l-.013.014h0l-.033.035h0l-.012.014h0l-.011.012,0,0-.011.012v0l-.033.034h0l-.011.013,0,0-.011.012,0,0-.011.012h0l-.011.012,0,0-.019.021,0,0-.011.012,0,0-.01.011,0,0-.009.01,0,0-.009.01,0,0-.006.006,0,0-.008.009,0,0-.008.009,0,0-.007.008-.005.005-.007.009-.005,0-.008.008,0,.005-.006.006-.007.008-.005.006,0,0-.009.009,0,0-.009.011,0,0-.009.01,0,0-.007.008,0,.006,0,.006-.007.008-.006.005-.006.007-.006.007,0,.006-.007.007,0,.006-.007.008,0,0-.006.008-.006.006,0,.006-.007.008,0,0-.008.009,0,0-.006.008-.006.006-.006.007-.005.006-.006.007,0,.005-.008.009,0,0-.007.009-.005.005-.008.009,0,.005-.006.007-.006.006-.006.008,0,0-.007.008,0,0-.009.01,0,0-.009.009,0,.005-.009.009,0,0-.009.01,0,0-.008.009,0,0-.009.01,0,0-.009.011,0,0-.01.011,0,0-.01.01,0,0-.009.011,0,0-.008.01,0,0-.008.011,0,0-.009.01,0,0-.009.011,0,0-.009.011,0,0-.01.011,0,0-.009.011h0l-.01.011,0,0-.009.011,0,0-.009.01,0,0-.01.011,0,0-.009.011,0,0-.01.012h0l-.01.013h0l-.01.012,0,0-.01.012v0l-.01.011,0,0-.01.012v0l-.022.025h0l-.011.012v0l-.01.012,0,0-.01.012h0l-.01.013h0l-.022.026h0l-.011.013h0l-.01.013h0l-.011.013h0l-.011.013h0l-.045.054h0l-.01.013h0l-.055.067h0a25.742,25.742,0,0,0-2.494,3.651l2.629,1.481a22.664,22.664,0,0,1,5.055-6.137l-1.958-2.3ZM94.729,95.433c-.05.319-.095.638-.134.96v0l0,.029h0l-.006.05h0v.01h0l0,.018v0l0,.027v0l0,.017h0v.012l0,.016V96.6l0,.013v.017l0,.014v0l0,.026v.036l0,.012v.865h0v.032h0v.031h0V97.7h0v.032h0v.079h0v.017l0,.029v.017h0v.111h0v.031h0v.111h0v.031h0v.015h0v.016h0v.015h0v.017l0,.03v.017h0v.047h0v.063h0v.047h0v.031h0V98.5h0v.257h0V98.8h0v.032h0v.032h0v.111h0V99.1h0v.032h0v.032h0v.112h0v.079h0V99.5h0v.4h0v.01h0v.052h0v.009h0v.143h0v.041h0v.009h0v.1h0v.009h0v.009h0v.01h0l0,.1h0l0,.041h0v.009h0v.009h0v.01h0v.01h0v.009h0l.006.153h0a25.558,25.558,0,0,0,.45,3.782l2.961-.577a22.919,22.919,0,0,1-.136-7.953l-2.98-.475Zm5.989,15.829-2.576,1.57,0,.006,0,0,.007.011,0,.005,0,.009.005.007,0,.007.005.009,0,.006.006.01,0,.006,0,.008,0,.007,0,.008,0,.007,0,.008,0,.006.006.01,0,.005.007.011,0,0,.007.011,0,0,.007.011,0,0,.007.01,0,0,.007.012,0,0,.008.012,0,0,.007.012,0,0,.008.012,0,0,.008.012v0l.008.012v0l.008.013v0l.009.013v0l.008.013v0l.009.014h0l.009.014h0l.028.045h0l.009.015h0a25.784,25.784,0,0,0,5.7,6.329l1.878-2.361a22.7,22.7,0,0,1-5.263-5.96ZM112.969,121l-.944,2.865a25.476,25.476,0,0,0,5.706,1.179h0l.112.01h0l.048,0h0l.032,0h0l.031,0h.049l.032,0h0l.031,0h0l.048,0h0l.031,0h.017l.032,0h0l.031,0h0l.032,0h.016l.032,0h0l.031,0h.018l.031,0h0l.031,0h.083l.03,0h.132l.03,0h1.544c.234,0,.466-.006.7-.014l-.1-3.016q-.39.014-.783.014A22.621,22.621,0,0,1,112.969,121Zm22.35-4.792a22.562,22.562,0,0,1-6.713,4.252l1.141,2.794q.938-.384,1.837-.837h0l.016-.008h0l.016-.008h0l.043-.021h0l.015-.008h0l.014-.008h0l.014-.007h0l.013-.007,0,0,.008,0h0l.015-.008,0,0,.013-.006,0,0,.012-.007.005,0,.012-.006,0,0,.011-.006.006,0,.007,0,.008,0,.009,0,.007,0,.008,0,.007,0,.01,0,.006,0,.009-.005.008,0,.006,0,.01-.006.006,0,.01-.005.006,0,.009,0,.007,0,.009,0,.007,0,.009,0,0,0L132,122.2l0,0,.011-.006,0,0,.011-.006.005,0,.011-.006,0,0,.01,0,0,0,.012-.006,0,0,.012-.006,0,0,.013-.007,0,0,.013-.006,0,0,.013-.007h0l.014-.007h0l.013-.007,0,0,.013-.007h0l.013-.007,0,0,.014-.007h0l.014-.008h0l.015-.008h0l.015-.008h0l.014-.008h0l.014-.008h0l.015-.008h0l.03-.017h0l.015-.008h0l.015-.008h0l.014-.008h0l.015-.008h0l.031-.017h0l.015-.009h0l.015-.008h0l.092-.052h0a25.726,25.726,0,0,0,4.105-2.856h0l.08-.068h0l.08-.069h0l.079-.069h0l.013-.011h0l.012-.01h0l.038-.034h0l.013-.01v0l.012-.01h0l.013-.011h0l.026-.023h0l.013-.011h0l.012-.01h0l.012-.011h0l.012-.011h0l.025-.022h0l.012-.011h0l.011-.01,0,0,.012-.01h0l.012-.011h0l.025-.022h0l.012-.011h0l.012-.011h0l.011-.011h0l.012-.011h0l.012-.01h0l.012-.011h0l.012-.011h0l.011-.011h0l.011-.011h0l.012-.011h0l.012-.011h0l.011-.01,0,0-2.036-2.227Zm7.193-13.888a22.422,22.422,0,0,1-2.353,7.582l2.679,1.389a25.486,25.486,0,0,0,2.668-8.6l-2.994-.371ZM141.5,85.42l-2.52,1.659a22.413,22.413,0,0,1,3.128,7.3l2.94-.68q-.2-.859-.455-1.7h0l-.031-.1h0l-.021-.067h0l0-.016h0l0-.016h0l-.011-.033h0l-.005-.015v0l0-.016h0l0-.016h0l0-.016h0l0-.016h0l0-.016v0l0-.015v0l0-.015v0l0-.015h0l0-.016h0l0-.016v0l0-.014v0l-.005-.015v0l-.005-.014v0l0-.014v0l0-.013v0l0-.013v0l0-.013v-.005l0-.013,0,0,0-.013v0l0-.012v0l0-.013v0l0-.013,0,0,0-.013,0,0,0-.013,0,0,0-.011,0,0,0-.012v0l0-.013v-.005l0-.012v0l0-.013v0l0-.011,0-.006,0-.01,0-.006,0-.011,0-.006,0-.012,0,0,0-.012,0-.006,0-.01,0-.006,0-.011,0,0,0-.012,0-.006,0-.012,0-.005,0-.012,0-.006,0-.009,0-.008,0-.009,0-.007,0-.01,0-.006,0-.011,0-.007,0-.01,0-.007,0-.009,0-.008,0-.008,0-.01,0-.007,0-.009,0-.008,0-.007,0-.011,0-.007,0-.008,0-.009,0-.007,0-.011,0-.006,0-.01,0-.008,0-.007,0-.01,0-.007,0-.007,0-.011,0-.006,0-.012v0l0-.012,0-.006,0-.009,0-.008,0-.008,0-.007,0-.01,0-.006,0-.012,0-.006,0-.011,0-.006,0-.011,0-.006,0-.008,0-.006,0-.012,0,0,0-.012,0-.005,0-.013,0-.005,0-.013v0l-.01-.026v0l0-.015,0,0,0-.014v0l-.006-.015v0l-.01-.027v0l-.006-.015v0l-.006-.015v0l-.006-.017h0l-.017-.045h0l-.007-.017h0l-.007-.017h0L144,90.279h0l-.006-.017h0l-.006-.018h0l-.017-.046h0l-.007-.018h0l-.024-.063v0l-.006-.016v0l-.007-.017h0a25.6,25.6,0,0,0-1.144-2.5h0l-.008-.017h0l-.008-.017h0l-.022-.042v0l-.008-.015v0l-.008-.015v0l-.013-.025h0l-.009-.015v0l-.008-.014v0l-.008-.014v0l-.013-.025h0l-.009-.016v0l-.008-.015v0l-.008-.014v0l-.009-.015h0l0-.009v0l-.007-.013,0,0-.006-.012,0,0-.006-.012,0,0-.007-.013,0,0,0-.008,0-.009,0-.007,0-.005-.006-.011,0,0-.006-.011,0-.005,0-.011,0-.006,0-.006,0-.01,0-.007,0-.006-.006-.01,0,0-.006-.011,0,0,0-.01,0-.006,0-.007,0-.009,0-.007-.006-.01,0-.006,0-.007,0-.008,0-.008,0-.007,0-.008,0-.006-.006-.01,0-.006-.006-.01,0,0,0-.01,0-.006,0-.009,0-.006-.005-.009,0,0L142.4,86.9l0-.005-.006-.01,0-.006-.006-.011,0,0,0-.009,0-.007,0-.008,0-.005-.006-.011,0,0-.006-.011,0,0-.006-.011,0-.005,0-.01,0-.005-.006-.01,0,0-.007-.012,0,0-.007-.012,0,0-.007-.012,0,0-.007-.013h0l-.007-.013v0l-.008-.013v0l-.008-.012v0l-.008-.013v0l-.008-.013v0l-.007-.013v0l-.008-.013v0l-.008-.013v0l-.008-.014h0l-.008-.014h0l-.017-.029h0l-.009-.014h0l-.008-.014v0l-.035-.059h0l-.008-.014h0l-.008-.014h0l-.027-.045h0q-.283-.474-.586-.933ZM127.241,74.873l-.844,2.9A22.458,22.458,0,0,1,133.51,81.3l1.8-2.425a25.594,25.594,0,0,0-5.187-2.975h0l-.08-.034h0l-.017-.007h0l-.162-.068h0l-.018-.007h0l-.081-.034h0a25.652,25.652,0,0,0-2.518-.879Z" transform="translate(-18 -44)" style="fill: #fff"/>
    </g>
    <path d="M120.056,79.594A19.906,19.906,0,1,1,100.15,99.5a19.928,19.928,0,0,1,19.906-19.906m0-.754a20.66,20.66,0,1,0,20.66,20.66,20.66,20.66,0,0,0-20.66-20.66Z" transform="translate(-18 -44)" style="fill: #b7b20d"/>
    <path d="M120.056,78.84H118.5l-.017,0h-.016l-.025,0h-.13l-.017,0h-.016l-.025,0h-.015l-.018,0h-.014l-.02,0h-.02l-.019,0h-.015l-.026,0H118.1l-.032,0h-.007l-.033,0h0a20.584,20.584,0,0,0-4.642,1l.243.714a19.879,19.879,0,0,1,6.426-1.06V78.84Zm-12.621,4.3-.036.029h0l-.03.023h0l-.011.009h0l-.018.013v0l-.01.007,0,0-.01.008h0l0,.005h0l-.01.007,0,0-.009.007,0,0-.016.014,0,0-.009.006,0,0-.008.007,0,0-.005,0,0,0-.008.007,0,0-.009.007,0,0,0,0-.005,0-.006,0,0,0-.008.006,0,0-.007.005-.005,0,0,0,0,0-.007.006,0,0-.008.006,0,0,0,0-.006,0,0,0,0,0-.007.006,0,0-.005,0-.006,0,0,0,0,0-.006,0,0,0,0,0-.006.005,0,0-.007.006,0,0,0,0-.005,0-.006,0,0,0-.007.006,0,0-.006,0,0,0-.006.005,0,0-.008.006,0,0-.008.006,0,0-.006.006,0,0-.007.006,0,0-.008.006,0,0-.007.006,0,0-.007,0,0,0-.008.007,0,0-.009.007v0l-.008.006h0l-.008.008h0l-.008.007,0,0-.009.007h0l-.008.007,0,0-.008.007h0l-.008.007,0,0-.008.007h0l-.009.007,0,0-.009.007h0l-.009.008h0l-.008.008h0l-.009.007,0,0-.009.007h0l-.008.007h0l-.009.008h0l-.009.008h0l-.019.016h0l-.009.007h0l-.01.008h0l-.009.008h0l-.009.008h0l-.01.008h0l-.02.016h0l-.009.008h0l-.019.017h0l-.009.008h0l-.009.008h0l-.019.017h0l-.01.008h0l-.1.087h0a20.838,20.838,0,0,0-2.7,2.855h0l-.025.032h0l-.024.031h0l-.008.01h0l-.008.01h0l-.008.01h0l-.008.009v0l-.007.009h0l-.015.02h0l-.008.01h0l-.008.01h0l-.007.009v0l-.007.009,0,0-.007.009h0l-.007.009h0l-.007.009,0,0-.007.009v0l-.007.009v0l-.006.008,0,0-.006.008,0,0-.007.009v0l-.006.007,0,0-.006.009,0,0-.007.008v0l-.007.008v0l-.006.008,0,0-.006.009,0,0-.007.009v0l-.006.008,0,0-.006.008,0,0-.006.008,0,0,0,.007,0,0-.005.007,0,0,0,.008,0,0,0,.006,0,0,0,0,0,.005,0,.006,0,0,0,.008,0,0,0,.005,0,.006,0,0,0,0,0,.007,0,.005,0,0,0,.007,0,0-.006.008,0,0,0,0,0,0-.006.009,0,0-.007.009,0,0-.012.018,0,0-.007.01v0l-.022.03h0l-.022.03h0l-.008.012h0c-.154.213-.3.429-.449.649l.629.417a19.957,19.957,0,0,1,4.437-4.768l-.461-.6Zm-7.368,11.115h0l0,.008h0l0,.019v0l0,.007v0l0,.019h0l0,.008v0l0,.008h0l0,.019h0l0,.008v0l0,.008h0l0,.01h0l0,.008v0l0,.007v0l0,.007v0l0,.009v0l0,.007v0l0,.006v0l0,.008h0l0,.009v0l0,.007v.012l0,.009V94.5l0,.006v.012l0,.009v.022l0,.006v0l0,.008v0l0,0v.013l0,.008v0l0,.006v.013l0,.006v0l0,.009v0l0,0v.022l0,.009V94.7l0,.006v.033l0,.005v.012l0,0v.02l0,.006v.034l0,0v.026l0,.01v.02l0,.019v.02l0,.012v.028l0,.011v0l0,.006v0l0,.006v0l0,.019v.02l0,.019v.02l0,.011V95.1l0,.019v.02l0,.019v.02l0,.013h0l0,.006v.011l0,.02v.011l0,.006v0l0,.02v.018h0l-.005.021v.017h0l0,.014h0l0,.007v.01l0,.021v0l0,.006V95.4l0,.021h0l0,.007v0l-.006.029v0l0,.007h0l0,.023h0l0,.007v0l-.006.03h0l0,.007h0l-.006.031h0v.007h0l-.006.03h0l0,.007h0l0,.023h0l0,.007h0l-.006.03h0v.008h0l-.006.031h0l0,.008h0l0,.031h0l-.006.03v0l0,.007h0l0,.03h0l0,.008h0l-.005.031h0l-.006.031h0v.007h0l-.006.031h0v.007h0l-.006.031h0l0,.031h0l0,.007v0l-.005.03h0v.007h0l-.006.031h0v.008h0l0,.023h0v.007h0l-.007.04h0l0,.031h0v.007h0l0,.023h0v.007h0v.008h0l0,.023h0v.009l0,.03h0v.007h0l0,.023h0v.017l0,.022h0V96.4l0,.03h0v.009l0,.023h0v.016h0l0,.023h0v.008h0l0,.03v.009h0l0,.031h0v.007h0l0,.023h0v.016h0l0,.024h0v.008h0l0,.031h0v.007h0l0,.023h0v.007h0v.007h0l0,.023h0v.009l0,.03v.009h0l0,.031h0v.009l0,.022h0V96.9h0l0,.022v.011l0,.03h0v.009l0,.022h0v.018l0,.021v.011l0,.03v.011l0,.021v.019l0,.022v.017h0l0,.015h0V97.2l0,.022h0v.018l0,.021v.02l0,.021v.017h0l0,.014v.02l0,.02v.034h0v.059l0,.021v.02l0,.02v.108h0v1.077h0v.158h0v.23h0v.159h0v.115h0V99.5h0v.058h0v.058h0v.224h0v.074h0v.008h0v.025h0q.012.522.048,1.037l.753-.054c-.034-.473-.051-.956-.051-1.433a19.937,19.937,0,0,1,.647-5.053l-.73-.191Zm1.654,13.008-.7.294a20.623,20.623,0,0,0,1.063,2.149h0l0,.006h0l0,.005h0l.016.028h0l0,0v0l0,0h0l0,0h0l.013.021h0l0,.005h0l0,.005v0l0,0h0l.008.014v0l0,0v0l0,0,0,0,0,0v0l0,0,0,0,0,0,0,0,0,0,0,0,0,0,0,0v0l0,0,0,0,0,0,0,0,0,.006,0,0,0,0v0l0,0,0,0,0,0,0,0,0,0v0l0,.005h0l0,.007h0l0,0v0l0,0,0,0,0,0v0l0,0v0l.007.013h0l0,0v0l0,0v0l0,0v0l0,.005h0l.007.013h0l0,.006h0l0,.005h0l0,.006h0l.012.02h0l0,.006h0l0,0v0l.016.026h0l0,.006h0l0,.006h0l.016.026h0l0,.006h0l0,.006h0l.016.027h0a20.766,20.766,0,0,0,2.286,3.091l.563-.5a19.878,19.878,0,0,1-3.49-5.5Zm8.562,9.582-.37.657q.392.221.793.425h0l.069.035h0l.034.017h0l.006,0h0l.027.014h0l.006,0h0l.028.014h0l.006,0h0l.035.017h0l.007,0h0l.027.014h0l.006,0h0l.021.01h0l.007,0h0l.006,0h0l.028.014h0l.007,0h0l.007,0h0l.014.007h0l.007,0h0l.006,0h0l.006,0h0l.013.006h0l.006,0h0l.005,0h0l.006,0h0l.021.01h0l.006,0h0l.005,0h0l.028.013h0l.006,0h0l.021.009h0l.006,0h0l.006,0h0l.007,0h0l.014.006h0l.007,0h0l.006,0h0l.006,0h0l.021.01h0l.006,0h0l.006,0h0l.021.01h0l0,0h0l.005,0h0l.006,0h0l.014.006h0l.006,0h0l.006,0h0l.028.013h0l.006,0h0l.022.01h0l.007,0h0l.006,0h0l.006,0h0l.014.007h0l.006,0h0l.005,0h0l.006,0h0l.014.006h0l.006,0h0l0,0h0l.006,0h0l.006,0h0l.007,0h0l0,0h0l0,0h0l.005,0h0l0,0h0l.006,0h0l.006,0h0l.005,0h0l0,0h0l.006,0h0l.014.006h0l.005,0,0,0,0,0h0l0,0h0l.014.007h0l.006,0h0l0,0h.007l0,0,.005,0h0l.007,0h0l0,0h0l0,0h0l0,0h0l.006,0h0l.007,0h0l.005,0,0,0h.007l0,0h0l.006,0h0l.007,0h0l0,0h0l0,0h0l0,0h0l0,0h0l.007,0h0l.005,0h0l0,0h0l0,0h0l0,0h0l0,0,0,0,0,0h0l0,0h.007l0,0h0l0,0h0l.006,0h0l0,0h0l0,0h.007l0,0h0l0,0,.008,0h0l0,0h0l0,0h.006l0,0h0l0,0,0,0,.006,0h0l0,0h0l0,0h.006l0,0h.007l.006,0,0,0h0l0,0H112l0,0h0l0,0h0l.009,0h0l0,0h.007l0,0h.006l0,0h0l.008,0h0l0,0h0l0,0h0l0,0h.009l.007,0h.009l0,0h0l0,0h0l.005,0h0l.016.007h0l0,0h0l0,0h0l0,0h0l.014.006h.006l0,0h.006l0,0h.009l.008,0h.009l0,0h0l0,0h0l0,0h0l.017.007h0l0,0h0l.005,0h.007l.01,0h.008l.005,0h0l0,0h0l0,0h0l.017.006h0l0,0h.009l.005,0h0l.016.006h0l0,0h0l0,0h0l0,0h0l.017.007h0l.005,0h0l0,0h0l0,0h0l.023.009h0l0,0h0l.006,0h0l.031.012h0l.03.012h0l0,0h0l.006,0h0l.024.01h0l0,0h0l0,0h0l0,0h0l.023.01h0l.006,0h0l.03.012h0l.006,0h0l.006,0h0l.024.009h0l.005,0h0l.006,0h0l.074.028h0l.031.012h0l.006,0h0l.074.028h0a20.507,20.507,0,0,0,3.4.938l.137-.742a19.75,19.75,0,0,1-6.118-2.225Zm18.835.382a19.755,19.755,0,0,1-6.2,1.974l.108.747a20.543,20.543,0,0,0,2.968-.654h0l.038-.011h0l.038-.012h0l.038-.011h0l.032-.009h0l.006,0h0l.006,0h0l.025-.008h0l0,0h0l.031-.01h.007l.006,0h0l.025-.007h.014l.017,0h.027l.011,0h.029l.006,0,0,0h.021l0,0h0l.007,0h.017l0,0h.009l.008,0h.009l.005,0h0l0,0h.012l0,0h.008l0,0h.021l.006,0,0,0h.017l0,0h.008l0,0h.014l0,0h.01l0,0h0l.006,0h0l0,0h.009l.005,0h.009l.007,0h.01l0,0h.01l.005,0h0l.007,0h0l0,0h.01l0,0h.01l.006,0h0l0,0h.01l.005,0h0l.006,0h0l.007,0h0l.006,0h0l.005,0h0l.006,0h0l.022-.008h0l.006,0h0l.005,0h0l.006,0h0l.014,0h0l0,0h.009l.022-.008h0l.006,0h0l.006,0h0l.007,0h0l.015-.006h0l.006,0h0l0,0h0l.007,0h0l.007,0h0l.006,0h0l.006,0h0l.006,0h0l.022-.008h0l.007,0h0l.006,0h0l.022-.008h0l.007,0h0l.007,0h0l.022-.007h0l.007,0h0l.037-.014h0l.074-.027h0a20.537,20.537,0,0,0,2.3-1.006l-.344-.672ZM138.061,108a19.926,19.926,0,0,1-3.71,5.353l.542.525a20.827,20.827,0,0,0,2.668-3.4h0l.02-.033h0l0-.006h0l0-.006h0l0,0h0l.008-.013h0l0,0h0l0-.006h0l0,0h0l0-.006h0l.008-.012v0l0,0h0l0,0v0l0-.005h0l0-.005h0l0-.007h0l0-.006v0l0,0v0l0,0,0,0,0,0,0,0,0,0v0l0-.006v0l0,0,0,0,0,0,0,0,0,0,0,0,0,0v0l0,0,0-.007,0,0,0,0,0,0,0,0v0l0,0,0,0,0,0,0,0,0,0v0l0-.008v0l0,0h0l0-.005v0l0,0v0l0,0,0,0,0,0h0l0-.009h0l0,0,0,0,0,0,0,0,0,0v0l0,0h0l.009-.015h0l0-.005h0l0,0v0l0-.005h0l0-.005h0l.01-.017h0l0,0h0l0,0h0l0,0h0l.013-.022h0l0-.005h0l0-.006h0l.016-.028h0l0,0h0l0,0h0l.024-.04h0q.472-.8.873-1.648l-.682-.323Zm2.178-12.929-.736.161a20.055,20.055,0,0,1,.458,4.269,20.328,20.328,0,0,1-.124,2.237l.75.083c.024-.214.044-.429.062-.645h0v-.009h0l0-.054h0v-.053h0v-.093l0-.021v-.061l0-.031h0v-.032h0v-.007h0V100.8h0l0-.049h0v-.008h0v-.007h0v-.016h0v-.007h0l0-.057h0v-.008h0v-.007h0v-.008h0l0-.065h0v-.008h0v-.008h0v-.007h0l0-.074h0l0-.091h0v-.008h0l0-.065h0v-.007h0v-.016h0v-.007h0l0-.057h0V100.2h0v-.016h0v-.007h0v-.008h0v-.048h0v-.007h0v-.016h0v-.008h0v-.007h0v-.1h0v-.032h0V99.5h0v-.133h0v-.132h0v-.265h0v-.52h0V98.42h0v-.105l0-.035v-.123h0v-.1h0l0-.035h0v-.094h0l0-.044h0v-.086h0l0-.044h0v-.008h0v-.008h0v-.016h0v-.025h0v-.008h0v-.008h0l0-.061h0v-.017h0V97.58h0v-.016h0v-.008h0v-.007h0v-.009h0l-.007-.078h0l0-.017h0v-.009h0v-.009h0l-.01-.1h0v-.008h0V97.3h0v-.009h0l-.012-.112h0a20.6,20.6,0,0,0-.348-2.111Zm-6.911-11.4-.485.578a19.971,19.971,0,0,1,4.242,4.943l.644-.392a20.633,20.633,0,0,0-1.682-2.377h0L136,86.359h0l-.009-.011h0l-.009-.011h0l-.014-.017h0l-.009-.011h0l-.014-.017h0l-.009-.01v0l-.008-.01h0l-.014-.017v0l-.008-.01h0l-.014-.017v0l-.008-.009,0,0-.008-.01v0l0,0v0l-.008-.009,0,0-.008-.009,0,0-.014-.016,0,0-.007-.009,0,0-.008-.01,0,0,0-.005,0,0-.007-.009,0,0-.008-.009,0,0-.014-.016,0,0-.007-.009,0,0-.009-.01h0l0,0,0,0-.008-.008,0,0-.007-.008,0,0,0,0,0,0L135.7,86l0,0-.006-.007,0,0,0,0-.006-.007,0,0,0,0-.006-.006,0,0,0,0,0-.006,0,0-.006-.006,0,0,0,0,0-.006,0,0,0,0-.006-.007,0,0,0,0,0-.006,0,0,0,0-.006-.007,0,0,0,0,0-.005,0,0,0,0,0-.005,0,0-.006-.007,0,0,0-.006,0,0,0-.005,0,0-.006-.007,0,0-.006-.007,0,0-.006-.006,0,0-.006-.007,0,0-.006-.008,0,0,0-.006,0,0-.006-.007,0,0-.006-.007,0,0-.006-.007,0,0-.005-.006,0,0-.007-.007,0,0-.007-.008,0,0-.006-.007,0,0-.006-.007,0,0-.007-.007,0,0-.007-.008v0l-.007-.007,0,0-.007-.008,0,0-.007-.008,0,0-.007-.008h0l-.008-.008v0l-.008-.008,0,0-.007-.008,0,0-.006-.007,0,0-.007-.008,0,0-.007-.008h0l-.007-.008h0l-.007-.009,0,0-.007-.008,0,0-.008-.008h0l-.007-.008,0,0-.007-.008,0,0-.008-.008v0l-.007-.008h0l-.008-.008,0,0-.008-.008v0l-.008-.008h0l-.008-.008,0,0-.007-.008,0,0-.008-.008h0l-.007-.008,0,0-.007-.008,0,0-.008-.008h0l-.008-.009h0l-.008-.009,0,0-.008-.008h0l-.008-.009h0l-.008-.008h0l-.008-.009h0l-.008-.009h0l-.009-.009h0l-.008-.009h0l-.009-.009h0l-.017-.018h0l-.009-.009h0l-.008-.009h0l-.017-.018h0L135,85.233h0l-.018-.019h0l-.009-.01h0l-.027-.028h0l-.009-.009h0l-.018-.019h0l-.009-.009h0l-.027-.028h0l-.008-.009h0l-.028-.028h0l-.028-.028h0l-.028-.028h0l-.13-.131h0l-.066-.065h0c-.053-.053-.107-.1-.161-.157h0l-.268-.256h0l-.038-.036h0l-.029-.027h0l-.029-.027h0l-.038-.036h0L134,84.251h0l-.01-.009h0l-.019-.017h0l-.01-.008h0l-.029-.026h0l-.029-.027h0l-.009-.008h0l-.019-.017h0l-.01-.008h0l-.01-.009h0l-.019-.017h0l-.009-.008h0l-.019-.017h0l-.009-.008h0l-.009-.008h0l-.01-.008h0l-.009-.008h0l-.009-.008h0l-.018-.016h0L133.72,84h0L133.71,84h0l-.009-.008h0l-.009-.008v0l-.009-.007v0l-.009-.007h0l-.009-.008,0,0-.008-.007,0,0-.008-.007h0l-.008-.007,0,0-.008-.007,0,0-.009-.007v0L133.6,83.9h0l-.009-.007,0,0-.008-.007,0,0-.009-.007h0l-.008-.007,0,0-.008-.007,0,0-.008-.007,0,0-.007-.006h0l-.008-.007,0,0-.007-.006,0,0-.007-.006,0,0-.007,0,0,0-.007-.006,0,0-.008-.006,0,0-.006,0,0,0-.007,0,0,0-.007-.006,0,0-.006,0,0,0-.006,0,0,0-.007-.006,0,0-.006-.005-.005,0,0,0,0,0-.007,0,0,0-.007,0,0,0-.005,0-.006-.005,0,0,0,0-.006-.006,0,0,0,0,0,0Zm-12.435-4.809-.03.753a19.839,19.839,0,0,1,6.375,1.319l.273-.7c-.058-.022-.116-.045-.174-.066h0l-.03-.011h0l-.007,0h0l-.022-.008h0l-.006,0h0l-.007,0h0l-.015-.005h0l-.006,0h0l-.006,0h0l-.007,0h0l-.014,0h0l0,0h0l-.006,0h0l-.006,0h0l-.007,0h0l-.005,0h0l0,0h0l0,0h0l0,0h0l-.005,0h0l0,0h0l0,0h0l0,0h0l-.007,0h0l0,0H127.1l0,0h-.011l0,0,0,0h-.01l0,0h-.011l0,0-.007,0h-.009l0,0h-.01l-.014,0h0l0,0h-.01l0,0h0l-.009,0h0l0,0h0l-.005,0h-.008l-.017-.006h0l0,0h0l0,0h-.007L126.9,80h0l-.006,0h0l-.005,0h0l-.024-.008h0l-.006,0h0l-.006,0h0l-.024-.009h0a20.56,20.56,0,0,0-5.2-1.076h0l-.033,0h-.008l-.026,0h-.015l-.025,0h-.432l-.193-.008Z" transform="translate(-18 -44)" style="fill: #fff"/>
    <text transform="translate(87.305 66.742)" style="font-size: 29.41847038269043px;fill: #fff;font-family: Impact, Impact">20</text>
  </g>
  <g id="Select-10">
    <circle cx="39.907" cy="55.5" r="25.647" style="fill: #037700"/>
    <g>
      <circle cx="39.907" cy="55.5" r="25.647" style="fill: #037700"/>
      <path d="M57.907,73.853H55.824l-.013,0H55.4l-.012,0h-.058l-.013,0h-.006l-.013,0h-.077l-.01,0h-.166l-.011,0h-.007l-.012,0h-.059l-.012,0h-.129l-.012,0h-.007l-.012,0h-.086l-.009,0h-.062l-.009,0h-.007l-.011,0h-.043l-.01,0H54.51l-.011,0h-.007l-.011,0H54.44l-.011,0H54.4l-.008,0h-.026l-.011,0h-.034l-.009,0h-.034l-.011,0h-.015l-.011,0h-.033l-.011,0h-.016l-.01,0h-.017l-.009,0h-.026l-.009,0H54.1l-.009,0h-.016l-.012,0h-.017l-.008,0h-.017l-.009,0h-.025l-.011,0h-.016l-.01,0h-.008l-.009,0h-.016l-.01,0h-.016l-.011,0h-.007l-.011,0h-.015l-.011,0h-.015l-.011,0H53.8l-.011,0h-.007l-.008,0h-.011l-.008,0h-.007l-.011,0h-.017l-.008,0H53.7l-.011,0h-.016l-.009,0H53.66l-.012,0h-.007l-.009,0h-.009l-.008,0h-.008l-.01,0H53.59l-.011,0h-.016l-.01,0h-.007l-.011,0h-.007l-.008,0-.011,0H53.5l-.009,0h-.017l-.011,0-.007,0h-.007l-.011,0h-.007l-.011,0h-.007l-.008,0H53.4l-.007,0h-.008l-.01,0h-.008l-.01,0-.008,0h-.007l-.011,0h-.008l-.008,0-.01,0h-.007l-.01,0h-.015l-.012,0h-.006l-.01,0h-.009l-.008,0h-.009l-.009,0H53.2l-.011,0-.007,0-.011,0h-.015l-.01,0-.008,0h-.006l-.012,0-.007,0-.011,0h-.007l-.009,0h-.009l-.008,0H53.06l-.01,0-.007,0-.011,0h-.007l-.009,0-.009,0H53l-.008,0-.01,0h-.007l-.011,0-.007,0h-.01l-.008,0-.008,0h-.009l-.009,0h-.007l-.012,0h-.006l-.01,0-.008,0H52.86l-.007,0-.01,0h-.006l-.012,0h-.006l-.012,0H52.8l-.009,0-.008,0-.011,0h-.005l-.012,0H52.75l-.013,0h0l-.011,0h-.006l-.012,0h0l-.013,0h0l-.013,0h0l-.011,0h-.007l-.01,0h-.005l-.013,0h-.005l-.013,0H52.6l-.012,0h0l-.011,0h-.005l-.013,0h-.005l-.013,0h0l-.013,0h-.005l-.011,0h0l-.014,0h0l-.013,0h-.005l-.013,0h0l-.013,0h0l-.014,0h0l-.014,0h0l-.013,0h-.005l-.012,0h0l-.013,0h0l-.013,0h-.005l-.013,0h0l-.013,0h0l-.013,0h0l-.014,0h0l-.013,0h-.005l-.012,0h0l-.012,0h0l-.014,0h0l-.014,0h0l-.014,0h0l-.013,0h0l-.015,0h0l-.014,0h0l-.014,0h0l-.014,0h0l-.015,0h0l-.014,0h0l-.015,0h0l-.015,0h0l-.015,0h0l-.014,0h0l-.014,0h0l-.015,0h0l-.015,0h0l-.014,0h0l-.015,0h0l-.032.008h0l-.016,0h0l-.015,0h0l-.032.008h0l-.016,0h0l-.015,0h0l-.032.008h0l-.015,0h0l-.015,0h0l-.016,0h0l-.033.009h0l-.016,0h0l-.016,0h0l-.034.009h0l-.017,0h0l-.135.035h0Q50.2,75,49.04,75.427l1.043,2.831a22.558,22.558,0,0,1,7.824-1.388V73.853ZM41.271,79.98A25.858,25.858,0,0,0,39.2,81.959h0l-.013.014h0l-.032.035h0l-.012.014h0l-.011.012v0l-.012.012v0l-.032.034h0l-.012.013,0,0-.011.012,0,0-.011.012h0l-.011.012,0,0-.019.021,0,0-.01.012,0,0-.01.011,0,0-.009.01,0,0-.009.01,0,0-.005.006,0,0-.008.009,0,0-.008.009-.005,0-.007.008-.005.005-.007.009,0,0-.008.008,0,.005-.006.006-.006.008-.006.006,0,0-.008.009,0,0-.009.011,0,0-.008.01-.005,0-.006.008-.006.006,0,.006-.007.008,0,.005-.007.007,0,.007-.006.006-.006.007-.006.006-.007.008,0,0-.007.008-.006.006-.005.006-.007.008,0,0-.009.009,0,0-.007.008L38.7,82.5l-.005.007-.006.006-.006.007,0,.005-.008.009,0,0-.008.009,0,.005-.007.009,0,.005-.007.007-.005.006-.007.008,0,0-.008.008,0,0-.008.01,0,0-.008.009,0,.005-.008.009,0,0-.009.01,0,0-.008.009,0,0-.009.01,0,0-.01.011,0,0-.009.011,0,0-.009.01,0,0-.009.011,0,0-.009.01,0,0-.009.011,0,0-.009.01,0,0-.009.011,0,0-.01.011,0,0-.009.011,0,0-.01.011h0l-.01.011,0,0-.009.011,0,0-.009.01,0,0-.009.011,0,0-.01.011,0,0-.01.012h0l-.011.013h0l-.01.012v0l-.011.012v0l-.01.011,0,0-.01.012v0l-.022.025h0l-.011.012v0l-.01.012v0l-.01.012h0l-.01.013h0l-.022.026h0l-.011.013h0l-.011.013h0l-.011.013h0l-.011.013h0l-.045.054h0l-.011.013h0l-.056.067h0a25.658,25.658,0,0,0-2.494,3.651l2.629,1.481a22.66,22.66,0,0,1,5.054-6.137l-1.958-2.3Zm-8.69,15.453c-.051.319-.1.638-.135.96v0l0,.029h0l-.005.05h0v.01h0l0,.018v0l0,.027v0l0,.017h0v.012l0,.016v.046l0,.014v0l0,.026v.74l0,.013v.16h0v.032h0v.031h0V97.7h0v.032h0v.079h0v.063h0v.111h0v.031h0v.111h0v.031h0v.015h0v.016h0v.015h0v.017l0,.03v.017h0v.047h0v.017l0,.029v.017h0v.047h0v.031h0V98.5h0v.257h0V98.8h0v.032h0v.032h0v.111h0V99.1h0v.032h0v.032h0v.112h0v.079h0V99.5h0v.4h0v.01h0v.052h0v.009h0v.143h0v.041h0v.009h0v.1h0v.009h0v.009h0v.01h0l0,.1h0v.041h0v.009h0v.009h0v.01h0v.01h0v.009h0l.006.153h0a25.828,25.828,0,0,0,.45,3.782l2.961-.577a22.919,22.919,0,0,1-.136-7.953l-2.979-.475Zm5.989,15.829-2.577,1.57,0,.006,0,0,.007.011,0,.005.006.009,0,.007,0,.007.006.009,0,.006.006.01,0,.006,0,.008,0,.007,0,.008,0,.007,0,.008,0,.006.006.01,0,.005.007.011,0,0L36.1,113l0,0,.007.011,0,0,.006.01,0,0,.007.012,0,0,.008.012,0,0,.007.012,0,0,.007.012,0,0,.008.012v0l.008.012v0l.008.013,0,0,.008.013v0l.009.013v0l.008.014h0l.009.014h0l.028.045h0l.009.015h0a25.784,25.784,0,0,0,5.7,6.329l1.878-2.361a22.7,22.7,0,0,1-5.262-5.96ZM50.82,121l-.944,2.865a25.485,25.485,0,0,0,5.707,1.179h0l.112.01h0l.048,0h0l.031,0h0l.031,0h.05l.031,0h0l.031,0h0l.047,0h0l.032,0h.016l.032,0h0l.031,0h0l.031,0h.017l.031,0h0l.031,0h.018l.031,0h0l.031,0h.083l.03,0h.132l.03,0h1.544c.234,0,.466-.006.7-.014l-.1-3.016q-.39.014-.783.014A22.621,22.621,0,0,1,50.82,121Zm22.35-4.792a22.549,22.549,0,0,1-6.713,4.252l1.141,2.794q.938-.384,1.837-.837h0l.016-.008h0l.015-.008h0l.043-.021h0l.015-.008h0l.015-.008h0l.014-.007h0l.013-.007,0,0,.008,0h0l.015-.008,0,0,.013-.006,0,0,.013-.007,0,0,.012-.006,0,0,.012-.006,0,0,.007,0,.008,0,.009,0,.007,0,.009,0,.006,0,.01,0,.007,0,.008-.005.008,0,.006,0,.01-.006.006,0,.011-.005.006,0,.008,0,.008,0,.008,0,.007,0,.009,0,0,0,.011-.006,0,0,.011-.006.005,0,.011-.006,0,0,.011-.006,0,0,.01,0,0,0,.012-.006,0,0,.013-.006,0,0,.012-.007,0,0,.013-.006,0,0,.013-.007h0l.013-.007h0l.013-.007,0,0,.013-.007h0l.013-.007,0,0,.014-.007h0l.014-.008h0l.015-.008h0l.015-.008h0l.014-.008h0l.014-.008h0l.015-.008h0l.03-.017h0l.015-.008h0l.015-.008h0l.015-.008h0l.015-.008h0l.03-.017h0l.015-.009h0l.015-.008h0l.092-.052h0a25.726,25.726,0,0,0,4.1-2.856h0l.08-.068h0l.079-.069h0l.079-.069h0l.013-.011h0l.012-.01h0l.039-.034h0l.012-.01v0l.012-.01h0l.013-.011h0l.026-.023h0l.013-.011h0l.012-.01h0l.012-.011h0l.013-.011h0l.025-.022h0l.012-.011h0l.011-.01,0,0,.012-.01h0l.012-.011h0l.025-.022h0l.012-.011h0l.012-.011h0l.011-.011h0l.012-.011h0l.011-.01h0l.012-.011h0l.011-.011h0l.011-.011h0l.012-.011h0l.012-.011h0l.012-.011h0l.012-.01v0l-2.036-2.227Zm7.193-13.888A22.4,22.4,0,0,1,78.01,109.9l2.679,1.389a25.486,25.486,0,0,0,2.668-8.6l-2.994-.371Zm-1.017-16.9-2.52,1.659a22.413,22.413,0,0,1,3.128,7.3l2.94-.68q-.2-.859-.454-1.7h0l-.032-.1h0l-.021-.067h0l0-.016h0l0-.016h0l-.01-.033h0l0-.015v0l0-.016h0l0-.016h0l-.005-.016h0l0-.016h0l0-.016v0l0-.015v0l0-.015v0l-.005-.015h0l0-.016h0l-.005-.016v0l0-.014v0l0-.015v0l0-.014v0l0-.014v0l0-.013v0l-.005-.013v0l0-.013,0-.005,0-.013v0l0-.013v0l0-.012v0l0-.013v0l0-.013,0,0,0-.013,0,0,0-.013v0l0-.011,0,0,0-.012v0l0-.013v-.005l0-.012v0l0-.013,0,0,0-.011,0-.006,0-.01,0-.006,0-.011,0-.006,0-.012,0,0,0-.012,0-.006,0-.01,0-.006,0-.011,0,0,0-.012,0-.006,0-.012,0-.005,0-.012,0-.006,0-.009,0-.008,0-.009,0-.007,0-.01,0-.006,0-.011,0-.007,0-.01,0-.007,0-.009,0-.008,0-.008,0-.01,0-.007,0-.009,0-.008,0-.007,0-.011,0-.007,0-.008,0-.009,0-.007,0-.011,0-.006,0-.01,0-.008,0-.007,0-.01,0-.007,0-.007,0-.011,0-.006,0-.012,0,0-.005-.012,0-.006,0-.009,0-.008,0-.008,0-.007,0-.01,0-.006,0-.012,0-.006,0-.011,0-.006,0-.011,0-.006,0-.008,0-.006-.005-.012,0,0,0-.012,0-.005,0-.013v-.005l0-.013,0,0-.009-.026,0,0,0-.015v0l-.006-.014v0l0-.015v0l-.01-.027v0l-.006-.015v0l-.006-.015v0l-.006-.017h0l-.017-.045h0l-.006-.017h0l-.006-.017h0l-.024-.063h0l-.006-.017h0l-.007-.018h0l-.018-.046h0l-.007-.018h0l-.025-.063v0l-.007-.016v0l-.006-.017h0a25.362,25.362,0,0,0-1.144-2.5h0l-.009-.017h0l-.009-.017h0l-.023-.042v0l-.007-.015,0,0-.008-.015v0l-.014-.025h0l-.009-.015v0l-.007-.014,0,0-.008-.014v0l-.013-.025h0l-.009-.016v0l-.008-.015v0l-.008-.014v0l-.008-.015h0l0-.009,0,0-.007-.013,0,0-.006-.012,0,0-.007-.012,0,0-.007-.013,0,0,0-.008,0-.009,0-.007,0-.005-.006-.011,0,0,0-.011,0-.005-.006-.011,0-.006,0-.006,0-.01,0-.007,0-.006-.006-.01,0,0-.006-.011,0,0,0-.01,0-.006,0-.007-.006-.009,0-.007-.006-.01,0-.006,0-.007,0-.008,0-.008,0-.007,0-.008,0-.006-.005-.01,0-.006-.005-.01,0,0-.006-.01,0-.006,0-.009,0-.006,0-.009,0,0L80.25,86.9l0-.005,0-.01,0-.006-.007-.011,0,0-.005-.009,0-.007-.005-.008,0-.005-.006-.011,0,0-.006-.011,0,0-.007-.011,0-.005-.006-.01,0-.005-.006-.01,0,0-.007-.012,0,0-.007-.012,0,0-.007-.012v0l-.008-.013h0l-.007-.013v0l-.008-.013v0l-.008-.012v0L80.1,86.64l0,0-.008-.013v0l-.007-.013v0l-.008-.013v0l-.008-.013v0l-.008-.014h0l-.008-.014h0l-.017-.029h0l-.008-.014h0l-.008-.014v0l-.035-.059h0l-.009-.014h0l-.009-.014h0l-.027-.045h0q-.284-.474-.586-.933ZM65.092,74.873l-.844,2.9A22.458,22.458,0,0,1,71.361,81.3l1.8-2.425A25.586,25.586,0,0,0,67.971,75.9h0l-.08-.034h0l-.017-.007h0l-.161-.068h0l-.017-.007h0l-.081-.034h0a25.652,25.652,0,0,0-2.518-.879Z" transform="translate(-18 -44)" style="fill: #fff"/>
    </g>
    <path d="M57.907,79.594A19.906,19.906,0,1,1,38,99.5,19.928,19.928,0,0,1,57.907,79.594m0-.754A20.66,20.66,0,1,0,78.567,99.5a20.66,20.66,0,0,0-20.66-20.66Z" transform="translate(-18 -44)" style="fill: #065e01"/>
    <path d="M57.907,78.84H56.354l-.017,0h-.016l-.024,0h-.131l-.017,0h-.016l-.024,0h-.015l-.019,0h-.014l-.02,0h-.02l-.019,0h-.015l-.025,0h-.009l-.032,0h-.007l-.033,0h0a20.581,20.581,0,0,0-4.643,1l.244.714a19.869,19.869,0,0,1,6.425-1.06V78.84Zm-12.621,4.3-.036.029h0l-.03.023h0l-.011.009h0l-.017.013,0,0-.01.007,0,0-.01.008h0l-.006.005h0l-.009.007,0,0-.009.007,0,0-.017.014,0,0-.008.006,0,0-.009.007,0,0-.005,0,0,0-.009.007,0,0-.008.007,0,0-.005,0-.005,0-.007,0,0,0-.008.006,0,0-.007.005,0,0,0,0,0,0L45,83.366l0,0-.007.006,0,0-.005,0-.006,0-.005,0,0,0-.007.006,0,0-.005,0-.006,0-.005,0,0,0-.005,0-.005,0,0,0-.006.005,0,0-.007.006,0,0-.005,0,0,0-.006,0,0,0-.008.006,0,0-.007,0,0,0-.006.005,0,0-.007.006,0,0-.007.006,0,0-.007.006,0,0-.007.006,0,0-.008.006,0,0-.007.006,0,0-.007,0,0,0-.009.007,0,0-.008.007,0,0-.008.006h0l-.008.008h0l-.009.007,0,0-.009.007h0l-.009.007,0,0-.008.007h0l-.009.007,0,0-.008.007h0l-.009.007,0,0-.008.007h0l-.009.008h0l-.009.008h0l-.008.007,0,0-.008.007h0l-.009.007h0L44.6,83.7h0l-.009.008h0l-.019.016h0l-.009.007h0l-.009.008h0l-.009.008h0l-.009.008h0l-.009.008h0l-.019.016h0l-.01.008h0l-.02.017h0l-.01.008h0l-.009.008h0l-.02.017h0l-.009.008h0l-.1.087h0a20.785,20.785,0,0,0-2.7,2.855h0l-.024.032h0l-.024.031h0l-.008.01h0l-.008.01h0l-.008.01h0l-.008.009v0l-.007.009h0l-.015.02h0l-.007.01h0l-.008.01h0l-.007.009v0l-.007.009,0,0-.007.009h0L41.46,87h0l-.007.009,0,0-.006.009,0,0-.007.009v0l-.006.008,0,0-.006.008,0,0-.007.009v0l-.006.007v0l-.007.009,0,0-.006.008,0,0-.006.008,0,0-.006.008,0,0-.006.009,0,0-.006.009,0,0-.006.008v0l-.007.008,0,0-.006.008,0,0,0,.007,0,0-.005.007,0,0-.006.008,0,0,0,.006,0,0,0,0,0,.005,0,.006,0,0,0,.008,0,0,0,.005,0,.006,0,0,0,0-.005.007,0,.005,0,0-.005.007,0,0-.006.008,0,0,0,0,0,0-.006.009,0,0-.006.009,0,0-.013.018,0,0-.007.01v0l-.022.03h0l-.022.03h0l-.009.012h0q-.23.32-.449.649l.629.417a19.981,19.981,0,0,1,4.438-4.768l-.462-.6ZM37.918,94.256h0l0,.008h0l0,.019v0l0,.007v0l-.005.019h0l0,.008v0l0,.008h0l-.005.019h0l0,.008v0l0,.008h0l0,.01h0l0,.008v.012l0,.007v0l0,.009v0l0,.007v.012l0,.008h0l0,.009v0l0,.007v.012l0,.009V94.5l0,.006v0l0,.006v0l0,.009v.022l0,.006v0l0,.008v0l0,0v0l0,0v0l0,.008v0l0,.006v.022l0,.009v.013l0,0v.013l0,.009v.028l0,.005v.033l0,.008v.022l0,.007V94.8l0,0v0l0,0v.012l0,0v.026l0,.01v.02l-.005.019v0l0,.006v0l0,.006v0l0,.012v0l0,0v0l0,.005v0l0,.005v0l0,.011v.02l0,.019v.02l0,.019v.02l0,.011v0l0,.006v0l0,.005v0l0,.019v.02l0,.019v0l0,.006v0l0,0v0l0,.013h0v.017l0,.02v0l0,.006v.011l0,.02v.012l0,.006h0l0,.021v.017h0l0,.014h0v.017l0,.021v0l0,.006V95.4l0,.021h0v.009l-.006.029v.009h0l0,.023h0l0,.007v0l-.006.03h0v.007h0l-.005.031h0v.007h0l-.006.03h0l0,.007h0l0,.023h0v.007h0l-.005.03h0v.008h0l-.006.031h0v.008h0l-.006.031h0l-.006.03V95.8h0l-.006.03h0v.008h0l-.005.031h0l-.006.031h0v.007h0l-.006.031h0v.007h0l-.006.031h0l0,.031h0v.009l-.005.03h0v.007h0l0,.031h0v.008h0l0,.023h0v.007h0l-.006.04h0l-.005.031h0v.007h0l0,.023h0v.007h0v.008h0l0,.023h0v.009l0,.03h0v.007h0l0,.023h0v.017l0,.022h0V96.4l0,.03h0v.009l0,.023h0v.016h0l0,.023h0v.008h0l0,.03v.009h0l0,.031h0v.007h0l0,.023h0v.016h0l0,.024h0v.008h0l0,.031h0v.007h0l0,.023h0v.007h0v.007h0l0,.023h0v.009l0,.03v.009h0l0,.031h0v.009l0,.022h0V96.9h0l0,.022v.011l0,.03h0v.009l0,.022h0v.018l0,.021v.011l0,.03v.011l0,.021v.019l0,.022v.017h0l0,.015h0V97.2l0,.022h0v.018l0,.021v.02l0,.021v.017h0v.034l0,.02v.034h0v.059l0,.021v.02l0,.02v.095l0,.013h0v1.077h0v.158h0v.23h0v.159h0v.115h0V99.5h0v.058h0v.058h0v.224h0v.074h0v.008h0v.025h0q.011.522.047,1.037l.753-.054C38.018,100.46,38,99.977,38,99.5a19.983,19.983,0,0,1,.647-5.053l-.73-.191Zm1.654,13.008-.7.294a20.623,20.623,0,0,0,1.063,2.149h0l0,.006h0l0,.005h0l.016.028h0l0,0v0l0,0h0l0,0h0l.012.021h0l0,.005h0l0,.005v0l0,0h0l.008.014,0,0,0,0v0l0,0,0,0,0,0,0,0v0l0,0,0,0,0,0v0l0,0,0,0,0,0,0,0v0l0,0,0,0,0,0,0,.006,0,0,0,0,0,0,0,0v0l0,0,0,0,0,0,0,0,0,.005h0l0,.007h0l0,0v0l0,0,0,0,0,0v0l0,0v0l.008.013h0l0,0v0l0,0v0l0,0v0l0,.005h0l.007.013h0l0,.006h0l0,.005h0l0,.006h0l.011.02h0l0,.006h0l0,0v0l.015.026h0l0,.006h0l0,.006h0l.015.026h0l0,.006h0l0,.006h0l.016.027h0a20.76,20.76,0,0,0,2.285,3.091l.563-.5a19.878,19.878,0,0,1-3.49-5.5Zm8.563,9.582-.371.657q.391.221.793.425h0l.07.035h0l.035.017h0l.006,0h0L48.7,118h0l.007,0h0l.028.014h0l.007,0h0l.035.017h0l.007,0h0l.028.014h0l.007,0h0l.021.01h0l.007,0h0l.006,0h0l.028.014h0l.007,0h0l.006,0h0l.013.007h0l.007,0h0l.006,0h0l.006,0h0l.014.006h0l.006,0h0l.005,0h0l.005,0h0l.021.01h0l.007,0h0l.006,0h0l.027.013h0l.006,0h0l.021.009h0l.006,0h0l.006,0h0l.007,0h0l.014.006h0l.007,0h0l.006,0h0l.006,0h0l.02.01h0l.006,0h0l.006,0h0l.021.01h0l0,0h0l.005,0h0l.006,0h0l.014.006h0l.007,0h0l.007,0h0l.028.013h0l.007,0h0l.021.01h0l.007,0h0l.005,0h0l.006,0h0l.014.007h0l.006,0h0l.005,0h0l.005,0h0l.014.006h0l.006,0h0l.006,0h0l.006,0h0l.006,0h0l.007,0h0l.005,0h0l0,0h0l0,0h0l.006,0h0l.007,0h0l.006,0h0l.005,0h0l.005,0h0l.006,0h0l.014.006h0l.005,0,0,0,.005,0h0l.005,0h0l.014.007h0l.006,0h0l0,0h.007l0,0,0,0h0l.007,0h0l.005,0h0l0,0h0l0,0h0l.005,0h0l.007,0h0l.005,0,0,0h.007l0,0h0l.005,0h0l.007,0h0l.005,0h0l0,0h0l0,0h0l0,0h0l.006,0h0l.006,0h0l0,0h0l0,0h0l0,0h0l0,0,0,0,0,0h0l0,0H49.7l0,0h0l0,0h0l.006,0h0l0,0h0l0,0h.006l0,0h0l0,0,.008,0h.005l0,0h0l0,0h.007l0,0h0l0,0,0,0,.006,0h0l0,0h0l0,0h.007l0,0h.006l.007,0,0,0h0l0,0h.006l0,0h0l0,0h0l.01,0h0l0,0h.007l0,0h.007l0,0h0l.008,0h0l0,0h0l0,0h0l0,0h.009l.008,0h.008l0,0h0l0,0h0l.005,0h0l.016.007h0l0,0h0l0,0h0l0,0h0l.014.006h.006l0,0h.007l0,0h.008l.008,0h.009l0,0h0l0,0h0l0,0h0l.017.007h0l0,0h0l0,0h.007l.01,0h.008l0,0h0l0,0h0l0,0h0l.016.006h0l0,0h.008l.005,0h0l.017.006h0l0,0h0l0,0h0l.005,0h0l.017.007h0l0,0h0l.005,0h0l.005,0h0l.024.009h0l.006,0h0l.005,0h0l.031.012h0l.031.012h0l.005,0h0l.006,0h0l.024.01h0l.005,0h0l.005,0h0l.005,0h0l.024.01h0l.006,0h0l.031.012h0l.006,0h0l.006,0h0l.024.009h0l.006,0h0l.006,0h0l.074.028h0l.031.012h0l.006,0h0l.074.028h0a20.534,20.534,0,0,0,3.4.938l.137-.742a19.744,19.744,0,0,1-6.117-2.225Zm18.834.382a19.758,19.758,0,0,1-6.2,1.974l.107.747a20.543,20.543,0,0,0,2.968-.654h0l.038-.011h0l.038-.012h0l.038-.011h0l.032-.009h0l.006,0h0l.005,0h0l.024-.008h0l.006,0h0l.03-.01h.008l.005,0h0l.024-.007h.014l.017,0h.028l.01,0H64.2l.007,0,0,0h.02l0,0h0l.007,0h.017l0,0h.01l.007,0h.01l0,0h0l0,0h.012l0,0h.008l0,0h.02l.007,0,0,0h.018l0,0h.008l0,0h.014l0,0h.01l0,0h0l.006,0h0l0,0h.01l0,0h.01l.006,0h.01l0,0H64.5l.006,0h0l.007,0h0l0,0h.01l0,0h.01l.007,0h0l.005,0h.009l.005,0h0l.006,0h0l.007,0h0l.006,0h0l.006,0h0l.006,0h0l.022-.008h0l.006,0h0l.005,0h0l.006,0h0l.014,0h0l.005,0h.009l.022-.008h0l.006,0h0l.006,0h0l.007,0h0l.014-.006h0l0,0h0l.006,0h0l.007,0h0l.007,0h0l.006,0h0l.006,0h0l.006,0h0l.022-.008h0l.007,0h0l.007,0h0l.022-.008h0l.007,0h0l.007,0h0l.022-.007h0l.007,0h0l.037-.014h0l.074-.027h0a20.458,20.458,0,0,0,2.3-1.006l-.344-.672ZM75.912,108a19.9,19.9,0,0,1-3.71,5.353l.542.525a20.719,20.719,0,0,0,2.668-3.4h0l.021-.033h0l0-.006h0l0-.006h0l0,0h0l.008-.013h0l0,0h0l0-.006h0l0,0h0l0-.006h0l.008-.012v0l0,0h0l0,0v0l0-.005h0l0-.005h0l0-.007h0l0-.006v0l0,0,0,0,0,0,0,0,0,0v0l0,0v0l0-.006v0l0,0v0l0,0,0,0,0,0,0,0,0,0,0,0,0,0,0-.007v0l0,0,0,0,0,0,0,0v0l0,0,0,0,0,0,0,0v0l0-.008v0l0,0h0l0-.005,0,0,0,0v0l0,0,0,0,0,0h0l.006-.009h0l0,0v0l0,0,0,0,0,0v0l0,0h0l.008-.015h0l0-.005h0l0,0,0,0,0-.005h0l0-.005h0l.01-.017h0l0,0h0l0,0h0l0,0h0l.013-.022h0l0-.005h0l0-.006h0l.017-.028h0l0,0h0l0,0h0l.023-.04h0q.472-.8.873-1.648L75.912,108ZM78.091,95.07l-.737.161a20.164,20.164,0,0,1,.334,6.506l.75.083c.024-.214.044-.429.062-.645h0v-.009h0l0-.054h0v-.053h0v-.175l0-.031h0v-.032h0v-.007h0V100.8h0l0-.049h0v-.008h0v-.007h0v-.016h0v-.007h0l0-.057h0v-.008h0v-.007h0v-.008h0l0-.065h0v-.008h0v-.008h0v-.007h0l0-.074h0l0-.091h0v-.008h0l0-.065h0v-.007h0v-.016h0v-.007h0l0-.057h0V100.2h0v-.016h0v-.007h0v-.008h0l0-.048h0v-.007h0v-.016h0v-.008h0v-.007h0v-.1h0v-.032h0V99.5h0v-.133h0v-.132h0v-.265h0v-.389l0-.026v-.105h0V98.42h0v-.105l0-.035v-.123h0v-.1h0l0-.035h0v-.094h0l0-.044h0v-.086h0l0-.044h0v-.008h0v-.008h0v-.016h0v-.025h0v-.008h0v-.008h0l-.006-.061h0v-.017h0V97.58h0v-.016h0v-.008h0v-.007h0v-.009h0l-.008-.078h0l0-.017h0v-.009h0v-.009h0l-.011-.1h0v-.008h0V97.3h0v-.009h0l-.012-.112h0a20.6,20.6,0,0,0-.347-2.111Zm-6.912-11.4-.485.578a19.95,19.95,0,0,1,4.242,4.943l.645-.392A20.764,20.764,0,0,0,73.9,86.418h0l-.049-.059h0l-.008-.011h0l-.009-.011h0l-.014-.017h0l-.009-.011h0l-.014-.017h0l-.008-.01,0,0-.008-.01h0l-.015-.017v0l-.008-.01h0l-.015-.017v0l-.008-.009,0,0-.008-.01v0l0,0v0l-.008-.009,0,0-.007-.009,0,0-.013-.016,0,0-.007-.009,0,0-.008-.01v0l-.005-.005v0l-.008-.009,0,0-.008-.009,0,0-.013-.016,0,0-.007-.009,0,0-.008-.01h0l0,0,0,0-.007-.008,0,0-.006-.008,0,0,0,0,0,0L73.55,86l0,0-.006-.007,0,0,0,0-.006-.007,0,0,0,0-.006-.006,0,0,0,0,0-.006,0,0,0-.006,0,0,0,0-.005-.006,0,0,0,0-.006-.007,0,0,0,0,0-.006,0,0,0,0-.006-.007,0,0,0,0,0-.005,0,0,0,0,0-.005,0,0-.006-.007,0,0L73.4,85.83l0,0-.005-.005,0,0-.006-.007,0,0L73.37,85.8l0,0,0-.006,0,0-.007-.007,0,0-.007-.008,0,0,0-.006,0,0-.006-.007,0,0-.007-.007,0,0-.006-.007,0,0,0-.006,0,0-.006-.007,0,0-.007-.008,0,0-.006-.007,0,0-.006-.007,0,0-.007-.007,0,0-.007-.008v0l-.007-.007,0,0-.007-.008,0,0-.007-.008,0,0-.007-.008h0l-.007-.008,0,0-.008-.008,0,0-.007-.008v0l-.007-.007,0,0-.007-.008,0,0-.008-.008h0l-.007-.008h0l-.008-.009,0,0-.007-.008,0,0-.008-.008h0l-.007-.008v0L73.1,85.5l0,0-.007-.008,0,0-.007-.008h0l-.008-.008,0,0-.007-.008,0,0-.008-.008h0l-.008-.008v0l-.008-.008,0,0-.008-.008h0l-.008-.008v0l-.008-.008,0,0-.007-.008h0L73,85.387h0l-.008-.009,0,0-.008-.008h0l-.008-.009h0l-.009-.008h0l-.008-.009h0l-.008-.009h0l-.009-.009h0l-.008-.009h0l-.008-.009h0l-.018-.018h0l-.009-.009h0l-.008-.009h0l-.017-.018h0l-.008-.009h0l-.018-.019h0l-.009-.01h0l-.027-.028h0l-.009-.009h0l-.018-.019h0l-.009-.009h0l-.027-.028h0l-.009-.009h0l-.028-.028h0l-.028-.028h0l-.028-.028h0c-.043-.044-.086-.088-.13-.131h0l-.066-.065h0c-.053-.053-.107-.1-.161-.157h0l-.268-.256h0l-.039-.036h0l-.029-.027h0l-.029-.027h0l-.039-.036h0l-.029-.027h0l-.009-.009h0l-.02-.017h0l-.01-.008h0l-.029-.026h0l-.029-.027h0l-.009-.008h0l-.019-.017h0l-.01-.008h0l-.01-.009h0L71.68,84.1h0l-.009-.008h0l-.019-.017h0l-.009-.008h0l-.009-.008h0l-.01-.008h0l-.009-.008h0L71.6,84.03h0l-.019-.016h0L71.571,84h0L71.561,84h0l-.009-.008h0l-.008-.008,0,0-.009-.007v0l-.009-.007h0l-.009-.008,0,0-.008-.007,0,0-.009-.007h0l-.008-.007,0,0-.008-.007,0,0-.008-.007,0,0-.008-.007h0l-.009-.007,0,0-.008-.007,0,0-.009-.007h0l-.008-.007,0,0-.008-.007,0,0-.008-.007,0,0-.007-.006h0l-.008-.007,0,0-.008-.006,0,0-.007-.006,0,0-.006,0,0,0-.007-.006,0,0-.008-.006,0,0,0,0,0,0-.007,0,0,0-.007-.006,0,0,0,0,0,0-.006,0,0,0-.007-.006,0,0-.006-.005,0,0,0,0,0,0-.006,0,0,0-.007,0,0,0,0,0-.006-.005,0,0,0,0-.007-.006,0,0,0,0,0,0ZM58.744,78.857l-.03.753a19.839,19.839,0,0,1,6.375,1.319l.273-.7c-.058-.022-.116-.045-.174-.066h0l-.029-.011h0l-.007,0h0l-.022-.008h0l-.006,0h0l-.007,0h0l-.014-.005h0l-.007,0h0l-.006,0h0l-.007,0h0l-.014,0h0l-.005,0h0l-.006,0h0l-.006,0h0l-.007,0h0l-.006,0h0l0,0h0l0,0h0l-.006,0h0l-.006,0h0l0,0h0l0,0h0l-.006,0h0l-.007,0h0l0,0h-.006l0,0h-.011l0,0,0,0h-.01l0,0h-.011l0,0-.007,0h-.009l0,0h-.01l-.014,0h0l0,0h-.01l0,0h0l-.009,0h0l0,0h0l-.005,0h-.008l-.017-.006h0l0,0h0l0,0H64.77L64.753,80h0l-.006,0h0l-.005,0h0l-.024-.008h0l-.006,0h0l-.006,0h0l-.024-.009h0a20.56,20.56,0,0,0-5.2-1.076h0l-.033,0h-.008l-.025,0h-.016l-.025,0h-.432l-.193-.008Z" transform="translate(-18 -44)" style="fill: #fff"/>
    <text transform="translate(26.937 66.742)" style="font-size: 29.41847038269043px;fill: #fff;font-family: Impact, Impact">10</text>
  </g>
  <rect width="263" height="103" style="fill: none"/>
</svg>
