<svg id="Layer_1" data-name="Layer 1" xmlns="http://www.w3.org/2000/svg" xmlns:xlink="http://www.w3.org/1999/xlink" viewBox="0 0 26.644 29.401">
  <defs>
    <linearGradient id="New_Gradient_Swatch" data-name="New Gradient Swatch" x1="16.982" y1="41.029" x2="16.982" y2="-9.215" gradientUnits="userSpaceOnUse">
      <stop offset="0" stop-color="#f3dfab"/>
      <stop offset="0.229" stop-color="#f8d565"/>
      <stop offset="0.443" stop-color="#a86a18"/>
      <stop offset="0.537" stop-color="#fadb6e"/>
      <stop offset="0.751" stop-color="#fff"/>
      <stop offset="0.856" stop-color="#f5e5bb"/>
      <stop offset="1" stop-color="#e0ad2a"/>
    </linearGradient>
  </defs>
  <title>icon-spin</title>
  <g id="Spin-icon">
    <path d="M3.66,17.69A.686.686,0,0,1,4.348,17H7.855a.686.686,0,0,1,.688.687,8.44,8.44,0,1,0,8.44-8.439,8.185,8.185,0,0,0-1.472.129v2.385a.687.687,0,0,1-.421.636.7.7,0,0,1-.755-.15l-7-4.741a.684.684,0,0,1,0-.966l7-4.734a.686.686,0,0,1,1.173.484V4.448A13.321,13.321,0,1,1,3.66,17.69Z" transform="translate(-3.66 -1.608)" style="fill: url(#New_Gradient_Swatch)"/>
  </g>
</svg>
