<svg xmlns="http://www.w3.org/2000/svg" xmlns:xlink="http://www.w3.org/1999/xlink" viewBox="0 0 462 462">
  <defs>
    <linearGradient id="linear-gradient" x1="99.203" y1="31.857" x2="426.983" y2="507.985" gradientUnits="userSpaceOnUse">
      <stop offset="0" stop-color="#a86a18"/>
      <stop offset="0.124" stop-color="#f5ce5b"/>
      <stop offset="0.229" stop-color="#f1d99c"/>
      <stop offset="0.328" stop-color="#f5f7bb"/>
      <stop offset="0.577" stop-color="#dbb054"/>
      <stop offset="0.736" stop-color="#f3c954"/>
      <stop offset="0.841" stop-color="#f1cf65"/>
      <stop offset="0.96" stop-color="#a86a18"/>
    </linearGradient>
    <linearGradient id="linear-gradient-2" x1="31.13" y1="248" x2="464.87" y2="248" xlink:href="#linear-gradient"/>
    <linearGradient id="linear-gradient-3" x1="267.655" y1="241.263" x2="469.05" y2="172.034" gradientUnits="userSpaceOnUse">
      <stop offset="0" stop-color="#fff"/>
      <stop offset="1" stop-color="#231f20" stop-opacity="0"/>
    </linearGradient>
    <linearGradient id="linear-gradient-4" x1="31.305" y1="248" x2="464.695" y2="248" xlink:href="#linear-gradient"/>
    <radialGradient id="radial-gradient" cx="248.138" cy="248.04" r="177.89" gradientTransform="translate(23.38 -21.522) rotate(5.204)" gradientUnits="userSpaceOnUse">
      <stop offset="0.582" stop-color="#fff"/>
      <stop offset="0.603" stop-color="#fbfafa"/>
      <stop offset="0.629" stop-color="#eeebea"/>
      <stop offset="0.659" stop-color="#d9d3d0"/>
      <stop offset="0.69" stop-color="#bbb0ac"/>
      <stop offset="0.723" stop-color="#95847d"/>
      <stop offset="0.757" stop-color="#685046"/>
      <stop offset="0.786" stop-color="#3d1e11"/>
    </radialGradient>
    <linearGradient id="linear-gradient-5" x1="356.465" y1="355.392" x2="254.486" y2="254.572" gradientTransform="translate(23.38 -21.522) rotate(5.204)" gradientUnits="userSpaceOnUse">
      <stop offset="0" stop-color="#ba7b1c"/>
      <stop offset="1"/>
    </linearGradient>
    <linearGradient id="linear-gradient-6" x1="213.952" y1="122.68" x2="241.764" y2="234.702" gradientTransform="translate(23.38 -21.522) rotate(5.204)" gradientUnits="userSpaceOnUse">
      <stop offset="0" stop-color="#fff"/>
      <stop offset="1"/>
    </linearGradient>
    <radialGradient id="radial-gradient-2" cx="163.803" cy="245.316" r="12.216" gradientTransform="translate(23.38 -21.522) rotate(5.204)" gradientUnits="userSpaceOnUse">
      <stop offset="0" stop-color="#fff"/>
      <stop offset="0.225" stop-color="#fff6a3"/>
      <stop offset="0.374" stop-color="#fae475"/>
      <stop offset="0.577" stop-color="#d4ab44"/>
      <stop offset="0.742" stop-color="#f5d76c"/>
      <stop offset="0.973" stop-color="#fffa6b"/>
    </radialGradient>
    <radialGradient id="radial-gradient-3" cx="243.763" cy="325.274" r="15.385" xlink:href="#radial-gradient-2"/>
    <radialGradient id="radial-gradient-4" cx="325.654" cy="242.226" r="17.469" xlink:href="#radial-gradient-2"/>
    <radialGradient id="radial-gradient-5" cx="244.922" cy="160.716" r="15.223" xlink:href="#radial-gradient-2"/>
    <linearGradient id="linear-gradient-7" x1="230.28" y1="233.673" x2="265.817" y2="262.256" gradientTransform="translate(23.38 -21.522) rotate(5.204)" xlink:href="#linear-gradient"/>
    <radialGradient id="radial-gradient-6" cx="242.99" cy="240.681" r="24.117" xlink:href="#radial-gradient-2"/>
    <linearGradient id="linear-gradient-8" x1="234.104" y1="204.49" x2="273.35" y2="204.49" gradientTransform="translate(23.38 -21.522) rotate(5.204)" xlink:href="#linear-gradient"/>
    <linearGradient id="linear-gradient-9" x1="257.705" y1="217.381" x2="243.027" y2="242.103" gradientTransform="translate(23.38 -21.522) rotate(5.204)" gradientUnits="userSpaceOnUse">
      <stop offset="0" stop-color="#fff"/>
      <stop offset="1" stop-color="#a36d00"/>
    </linearGradient>
    <linearGradient id="linear-gradient-10" x1="204.898" y1="237.203" x2="204.898" y2="266.3" gradientTransform="translate(23.38 -21.522) rotate(5.204)" xlink:href="#linear-gradient"/>
    <linearGradient id="linear-gradient-11" x1="221.748" y1="249.582" x2="246.855" y2="247.651" xlink:href="#linear-gradient-9"/>
    <linearGradient id="linear-gradient-12" x1="235.651" y1="291.842" x2="266.96" y2="291.842" gradientTransform="translate(23.38 -21.522) rotate(5.204)" xlink:href="#linear-gradient"/>
    <linearGradient id="linear-gradient-13" x1="253.79" y1="277.034" x2="245.678" y2="253.859" xlink:href="#linear-gradient-9"/>
    <linearGradient id="linear-gradient-14" x1="291.615" y1="234.887" x2="291.615" y2="271.492" gradientTransform="translate(23.38 -21.522) rotate(5.204)" xlink:href="#linear-gradient"/>
    <linearGradient id="linear-gradient-15" x1="277.625" y1="256.461" x2="255.993" y2="244.1" xlink:href="#linear-gradient-9"/>
    <linearGradient id="linear-gradient-16" x1="247.559" y1="387.217" x2="248.717" y2="387.217" gradientTransform="translate(622.595 138.467) rotate(90)" xlink:href="#linear-gradient"/>
    <linearGradient id="linear-gradient-17" x1="247.559" y1="108.861" x2="248.717" y2="108.861" gradientTransform="translate(369.483 -138.743) rotate(90)" xlink:href="#linear-gradient"/>
    <linearGradient id="linear-gradient-18" x1="264.006" y1="385.109" x2="280.607" y2="385.109" gradientTransform="matrix(0.985, 0.174, -0.174, 0.985, 58.336, -39.844)" xlink:href="#linear-gradient"/>
    <linearGradient id="linear-gradient-19" x1="215.669" y1="110.975" x2="232.269" y2="110.975" gradientTransform="translate(35.064 -38.87) rotate(9.999)" xlink:href="#linear-gradient"/>
    <linearGradient id="linear-gradient-20" x1="279.971" y1="378.828" x2="311.51" y2="378.828" gradientTransform="translate(6.38 -38.522) rotate(5.204)" xlink:href="#linear-gradient"/>
    <linearGradient id="linear-gradient-21" x1="184.766" y1="117.254" x2="216.307" y2="117.254" gradientTransform="translate(64.116 -65.333) rotate(20)" xlink:href="#linear-gradient"/>
    <linearGradient id="linear-gradient-22" x1="294.944" y1="368.553" x2="340.489" y2="368.553" gradientTransform="translate(215.488 -103.707) rotate(30)" xlink:href="#linear-gradient"/>
    <linearGradient id="linear-gradient-23" x1="155.787" y1="127.526" x2="201.331" y2="127.526" gradientTransform="translate(98.769 -78.05) rotate(30.001)" xlink:href="#linear-gradient"/>
    <linearGradient id="linear-gradient-24" x1="308.507" y1="354.638" x2="366.66" y2="354.638" gradientTransform="translate(296.749 -126.391) rotate(39.998)" xlink:href="#linear-gradient"/>
    <linearGradient id="linear-gradient-25" x1="129.616" y1="141.439" x2="187.765" y2="141.439" gradientTransform="translate(137.937 -76.625) rotate(39.999)" xlink:href="#linear-gradient"/>
    <linearGradient id="linear-gradient-26" x1="320.239" y1="337.486" x2="389.23" y2="337.486" gradientTransform="translate(376.547 -141.929) rotate(49.999)" xlink:href="#linear-gradient"/>
    <linearGradient id="linear-gradient-27" x1="107.044" y1="158.594" x2="176.042" y2="158.594" gradientTransform="translate(6.38 -38.522) rotate(5.204)" xlink:href="#linear-gradient"/>
    <linearGradient id="linear-gradient-28" x1="329.803" y1="317.625" x2="407.514" y2="317.625" gradientTransform="matrix(0.5, 0.866, -0.866, 0.5, 452.431, -149.855)" xlink:href="#linear-gradient"/>
    <linearGradient id="linear-gradient-29" x1="88.761" y1="178.459" x2="166.488" y2="178.459" gradientTransform="translate(225.037 -31.977) rotate(60.001)" xlink:href="#linear-gradient"/>
    <linearGradient id="linear-gradient-30" x1="336.893" y1="295.645" x2="420.955" y2="295.645" gradientTransform="translate(6.38 -38.522) rotate(5.204)" xlink:href="#linear-gradient"/>
    <linearGradient id="linear-gradient-31" x1="75.32" y1="200.434" x2="159.372" y2="200.434" gradientTransform="translate(270.279 9.91) rotate(70.001)" xlink:href="#linear-gradient"/>
    <linearGradient id="linear-gradient-32" x1="341.264" y1="272.209" x2="429.146" y2="272.209" gradientTransform="translate(583.503 -142.115) rotate(80.001)" xlink:href="#linear-gradient"/>
    <linearGradient id="linear-gradient-33" x1="67.13" y1="223.869" x2="155.012" y2="223.869" gradientTransform="translate(314.866 63.234) rotate(79.998)" xlink:href="#linear-gradient"/>
    <linearGradient id="linear-gradient-34" x1="342.798" y1="248.043" x2="431.837" y2="248.043" gradientTransform="translate(634.648 -126.691) rotate(90)" xlink:href="#linear-gradient"/>
    <linearGradient id="linear-gradient-35" x1="64.439" y1="248.038" x2="153.479" y2="248.038" gradientTransform="translate(357.433 126.417) rotate(90)" xlink:href="#linear-gradient"/>
    <linearGradient id="linear-gradient-36" x1="341.265" y1="223.872" x2="429.148" y2="223.872" gradientTransform="translate(46.54 -51.381) rotate(10.065)" xlink:href="#linear-gradient"/>
    <linearGradient id="linear-gradient-37" x1="67.13" y1="272.209" x2="155.012" y2="272.209" gradientTransform="translate(47.284 -27.742) rotate(10.019)" xlink:href="#linear-gradient"/>
    <linearGradient id="linear-gradient-38" x1="336.896" y1="200.438" x2="420.958" y2="200.438" gradientTransform="translate(94.692 -105.174) rotate(19.936)" xlink:href="#linear-gradient"/>
    <linearGradient id="linear-gradient-39" x1="75.32" y1="295.643" x2="159.382" y2="295.643" gradientTransform="translate(104.073 -34.398) rotate(19.963)" xlink:href="#linear-gradient"/>
    <linearGradient id="linear-gradient-40" x1="329.792" y1="178.462" x2="407.519" y2="178.462" gradientTransform="translate(144.224 -149.191) rotate(29.988)" xlink:href="#linear-gradient"/>
    <linearGradient id="linear-gradient-41" x1="88.76" y1="317.619" x2="166.486" y2="317.619" gradientTransform="translate(169.832 -32.532) rotate(29.979)" xlink:href="#linear-gradient"/>
    <linearGradient id="linear-gradient-42" x1="320.239" y1="158.595" x2="389.235" y2="158.595" gradientTransform="translate(193.08 -181.214) rotate(40.1)" xlink:href="#linear-gradient"/>
    <linearGradient id="linear-gradient-43" x1="107.044" y1="337.483" x2="176.041" y2="337.483" gradientTransform="translate(242.412 -22.046) rotate(40.029)" xlink:href="#linear-gradient"/>
    <linearGradient id="linear-gradient-44" x1="308.512" y1="141.439" x2="366.663" y2="141.439" gradientTransform="translate(238.028 -199.548) rotate(49.988)" xlink:href="#linear-gradient"/>
    <linearGradient id="linear-gradient-45" x1="129.616" y1="354.636" x2="187.773" y2="354.636" gradientTransform="translate(318.74 -3.563) rotate(49.971)" xlink:href="#linear-gradient"/>
    <linearGradient id="linear-gradient-46" x1="294.945" y1="127.527" x2="340.492" y2="127.527" gradientTransform="translate(279.763 -204.615) rotate(59.993)" xlink:href="#linear-gradient"/>
    <linearGradient id="linear-gradient-47" x1="155.787" y1="368.553" x2="201.332" y2="368.553" gradientTransform="translate(397.606 22.746) rotate(59.988)" xlink:href="#linear-gradient"/>
    <linearGradient id="linear-gradient-48" x1="279.973" y1="117.25" x2="311.513" y2="117.25" gradientTransform="translate(316.538 -195.935) rotate(70.043)" xlink:href="#linear-gradient"/>
    <linearGradient id="linear-gradient-49" x1="184.766" y1="378.83" x2="216.307" y2="378.83" gradientTransform="translate(6.38 -38.522) rotate(5.204)" xlink:href="#linear-gradient"/>
    <linearGradient id="linear-gradient-50" x1="264.008" y1="110.97" x2="280.609" y2="110.97" gradientTransform="translate(346.165 -173.826) rotate(79.933)" xlink:href="#linear-gradient"/>
    <linearGradient id="linear-gradient-51" x1="215.669" y1="385.109" x2="232.27" y2="385.109" gradientTransform="translate(552.074 95.119) rotate(80.042)" xlink:href="#linear-gradient"/>
    <linearGradient id="linear-gradient-52" x1="176.976" y1="172.764" x2="310.63" y2="314.142" gradientTransform="translate(23.38 -21.522) rotate(5.204)" xlink:href="#linear-gradient"/>
    <linearGradient id="linear-gradient-53" x1="157.828" y1="128.547" x2="334.745" y2="362.633" gradientTransform="translate(23.38 -21.522) rotate(5.204)" xlink:href="#linear-gradient"/>
  </defs>
  <title>roulette-machine</title>
  <g style="isolation: isolate">
    <g id="static-part">
      <g id="_Group_" data-name="&lt;Group&gt;" style="opacity: 0">
        <g id="_Group_2" data-name="&lt;Group&gt;">
          <path id="_Compound_Path_" data-name="&lt;Compound Path&gt;" d="M248,18.367C121.385,18.367,18.369,121.383,18.369,248S121.385,477.632,248,477.632,477.633,374.616,477.633,248,374.618,18.367,248,18.367Zm0,441.789c-116.987,0-212.157-95.18-212.157-212.157S131.014,35.853,248,35.853,460.148,131.023,460.148,248,364.978,460.156,248,460.156Z" transform="translate(-17 -17)" style="fill: url(#linear-gradient)"/>
        </g>
        <g id="_Group_3" data-name="&lt;Group&gt;">
          <path id="_Compound_Path_2" data-name="&lt;Compound Path&gt;" d="M248,464.871C128.417,464.871,31.13,367.582,31.13,248S128.417,31.129,248,31.129,464.87,128.418,464.87,248,367.583,464.871,248,464.871Zm0-411.018C140.947,53.853,53.853,140.947,53.853,248S140.947,442.147,248,442.147,442.147,355.052,442.147,248,355.053,53.853,248,53.853Z" transform="translate(-17 -17)" style="fill: url(#linear-gradient-2)"/>
        </g>
        <g id="_Group_4" data-name="&lt;Group&gt;">
          <path id="_Compound_Path_3" data-name="&lt;Compound Path&gt;" d="M248,479A231,231,0,0,1,84.658,84.658,231,231,0,1,1,411.341,411.341,229.486,229.486,0,0,1,248,479Zm0-460.039C121.708,18.961,18.961,121.707,18.961,248S121.708,477.039,248,477.039,477.039,374.293,477.039,248,374.293,18.961,248,18.961Z" transform="translate(-17 -17)" style="fill: #ebecec"/>
        </g>
        <path id="_Path_" data-name="&lt;Path&gt;" d="M479,248a231.362,231.362,0,0,1-161.63,220.454,384.447,384.447,0,0,0,3.745-40.593C392.041,398.92,442.148,329.2,442.148,248c0-107.054-87.093-194.146-194.147-194.146a193.475,193.475,0,0,0-48.733,6.2c-7.741-11.57-15.325-22.248-22.521-31.909A231.124,231.124,0,0,1,479,248Z" transform="translate(-17 -17)" style="opacity: 0.2;mix-blend-mode: screen;fill: url(#linear-gradient-3)"/>
        <path d="M248,31.305c-119.675,0-216.695,97.02-216.695,216.7S128.325,464.7,248,464.7,464.7,367.675,464.7,248,367.675,31.305,248,31.305Zm0,371.4A154.706,154.706,0,1,1,402.706,248,154.711,154.711,0,0,1,248,402.706Z" transform="translate(-17 -17)" style="fill: url(#linear-gradient-4)"/>
      </g>
    </g>
    <g id="rotating-part">
      <g>
        <g>
          <path d="M231.867,425.157c-97.684-8.9-169.921-95.609-161.025-193.293S166.45,61.948,264.134,70.844s169.919,95.608,161.024,193.287S329.551,434.053,231.867,425.157Z" transform="translate(-17 -17)" style="fill: #1a540e"/>
          <path d="M231.867,425.157c-97.684-8.9-169.921-95.609-161.025-193.293S166.45,61.948,264.134,70.844s169.919,95.608,161.024,193.287S329.551,434.053,231.867,425.157Z" transform="translate(-17 -17)" style="mix-blend-mode: multiply;fill: url(#radial-gradient)"/>
          <path d="M322.252,195.863a104.972,104.972,0,0,1-35.8,58.721c-35.068,26.059-81.482,37.066-121.955,29a90.758,90.758,0,1,0,157.757-87.721Z" transform="translate(-17 -17)" style="mix-blend-mode: screen;fill: url(#linear-gradient-5)"/>
          <path d="M318.287,198.381c-79.71-85.607-185.678,4.848-144.017,86.991C182.044,208.356,254.726,174.125,318.287,198.381Z" transform="translate(-17 -17)" style="mix-blend-mode: screen;fill: url(#linear-gradient-6)"/>
          <g id="_Group_5" data-name="&lt;Group&gt;">
            <g>
              <path d="M264.132,70.837l-3.512,38.569a138.419,138.419,0,0,0-24.244-.089l-3.256-38.6A178.271,178.271,0,0,1,264.132,70.837Z" transform="translate(-17 -17)" style="fill: #7bad00"/>
              <path d="M202.569,76.005l9.88,37.439a136.591,136.591,0,0,0-22.815,8.257L173.4,86.568A173.587,173.587,0,0,1,202.569,76.005Z" transform="translate(-17 -17)"/>
              <path d="M146.536,102l22.077,31.779A136,136,0,0,0,150,149.3l-27.264-27.478A177.843,177.843,0,0,1,146.536,102Z" transform="translate(-17 -17)"/>
              <path d="M102.685,145.479l31.621,22.312a136.543,136.543,0,0,0-12.241,20.948L87.051,172.264A176.177,176.177,0,0,1,102.685,145.479Z" transform="translate(-17 -17)"/>
              <path d="M76.327,201.331l37.36,10.151a138.7,138.7,0,0,0-4.3,23.907l-38.545-3.51A178.83,178.83,0,0,1,76.327,201.331Z" transform="translate(-17 -17)"/>
              <path d="M113.43,283.561l-37.412,9.856a174.608,174.608,0,0,1-5.3-30.529l38.579-3.233A136.9,136.9,0,0,0,113.43,283.561Z" transform="translate(-17 -17)"/>
              <path d="M133.759,327.392,102,349.474a176.188,176.188,0,0,1-15.447-26.891l35.105-16.212A139.865,139.865,0,0,0,133.759,327.392Z" transform="translate(-17 -17)"/>
              <path d="M167.778,361.7l-22.29,31.624a176.368,176.368,0,0,1-23.657-20.052l27.454-27.265A136.008,136.008,0,0,0,167.778,361.7Z" transform="translate(-17 -17)"/>
              <path d="M211.49,382.324l-10.15,37.355a174.467,174.467,0,0,1-29.092-10.723l16.478-35.014A137.113,137.113,0,0,0,211.49,382.324Z" transform="translate(-17 -17)"/>
              <path d="M259.638,386.709l3.236,38.574a178.051,178.051,0,0,1-31.01-.124l3.51-38.544A138.659,138.659,0,0,0,259.638,386.709Z" transform="translate(-17 -17)"/>
              <path d="M306.359,374.32l16.21,35.131a176.027,176.027,0,0,1-29.143,10.541l-9.882-37.415A136.478,136.478,0,0,0,306.359,374.32Z" transform="translate(-17 -17)"/>
              <path d="M346.018,346.7l27.265,27.456A176.505,176.505,0,0,1,349.459,394l-22.078-31.776A136.487,136.487,0,0,0,346.018,346.7Z" transform="translate(-17 -17)"/>
              <path d="M373.927,307.284l35.015,16.474a175.961,175.961,0,0,1-15.632,26.761L361.686,328.23A136.633,136.633,0,0,0,373.927,307.284Z" transform="translate(-17 -17)"/>
              <path d="M386.6,260.634l38.547,3.511a178.418,178.418,0,0,1-5.478,30.5l-37.361-10.127A138.592,138.592,0,0,0,386.6,260.634Z" transform="translate(-17 -17)"/>
              <path d="M425.271,233.134l-38.578,3.233a136.9,136.9,0,0,0-4.13-23.9l37.414-9.88A174.738,174.738,0,0,1,425.271,233.134Z" transform="translate(-17 -17)"/>
              <path d="M409.438,173.414l-35.132,16.234a137.9,137.9,0,0,0-12.071-21.019l31.777-22.08A177.625,177.625,0,0,1,409.438,173.414Z" transform="translate(-17 -17)"/>
              <path d="M323.748,87.041l-16.481,35.038A136.381,136.381,0,0,0,284.5,113.7l10.177-37.381A174.8,174.8,0,0,1,323.748,87.041Z" transform="translate(-17 -17)"/>
              <path d="M374.164,122.725l-27.455,27.268a139.754,139.754,0,0,0-18.515-15.7l22.313-31.622A176.442,176.442,0,0,1,374.164,122.725Z" transform="translate(-17 -17)"/>
              <path d="M425.147,264.145,386.6,260.634a138.5,138.5,0,0,0,.093-24.267l38.578-3.233A178.557,178.557,0,0,1,425.147,264.145Z" transform="translate(-17 -17)" style="fill: #ff0204"/>
              <path d="M382.308,284.517l37.361,10.127a175.172,175.172,0,0,1-10.727,29.114l-35.015-16.474A136.94,136.94,0,0,0,382.308,284.517Z" transform="translate(-17 -17)" style="fill: #ff0204"/>
              <path d="M419.977,202.583l-37.414,9.88a136.5,136.5,0,0,0-8.257-22.815l35.132-16.234A176.236,176.236,0,0,1,419.977,202.583Z" transform="translate(-17 -17)" style="fill: #ff0204"/>
              <path d="M361.686,328.23l31.624,22.289a176.22,176.22,0,0,1-20.027,23.638L346.018,346.7A135.9,135.9,0,0,0,361.686,328.23Z" transform="translate(-17 -17)" style="fill: #ff0204"/>
              <path d="M394.012,146.549l-31.777,22.08a137.767,137.767,0,0,0-15.526-18.636l27.455-27.268A178.328,178.328,0,0,1,394.012,146.549Z" transform="translate(-17 -17)" style="fill: #ff0204"/>
              <path d="M327.381,362.226,349.459,394a176.392,176.392,0,0,1-26.89,15.449l-16.21-35.131A135.968,135.968,0,0,0,327.381,362.226Z" transform="translate(-17 -17)" style="fill: #ff0204"/>
              <path d="M350.507,102.673l-22.313,31.622a137.493,137.493,0,0,0-20.927-12.216l16.481-35.038A176.135,176.135,0,0,1,350.507,102.673Z" transform="translate(-17 -17)" style="fill: #ff0204"/>
              <path d="M283.544,382.577l9.882,37.415a174.563,174.563,0,0,1-30.552,5.291l-3.236-38.574A137.226,137.226,0,0,0,283.544,382.577Z" transform="translate(-17 -17)" style="fill: #ff0204"/>
              <path d="M294.678,76.319,284.5,113.7a138.328,138.328,0,0,0-23.881-4.294l3.512-38.569A178.586,178.586,0,0,1,294.678,76.319Z" transform="translate(-17 -17)" style="fill: #ff0204"/>
              <path d="M235.374,386.615l-3.51,38.544a178.006,178.006,0,0,1-30.524-5.48l10.15-37.355A138.663,138.663,0,0,0,235.374,386.615Z" transform="translate(-17 -17)" style="fill: #ff0204"/>
              <path d="M233.12,70.713l3.256,38.6a136.629,136.629,0,0,0-23.927,4.127l-9.88-37.439A174.987,174.987,0,0,1,233.12,70.713Z" transform="translate(-17 -17)" style="fill: #ff0204"/>
              <path d="M188.726,373.942l-16.478,35.014a176.013,176.013,0,0,1-26.76-15.632l22.29-31.624A136.372,136.372,0,0,0,188.726,373.942Z" transform="translate(-17 -17)" style="fill: #ff0204"/>
              <path d="M173.4,86.568,189.634,121.7a137.927,137.927,0,0,0-21.021,12.073L146.536,102A176.022,176.022,0,0,1,173.4,86.568Z" transform="translate(-17 -17)" style="fill: #ff0204"/>
              <path d="M149.285,346.007l-27.454,27.265A177.617,177.617,0,0,1,102,349.474l31.755-22.082A137.386,137.386,0,0,0,149.285,346.007Z" transform="translate(-17 -17)" style="fill: #ff0204"/>
              <path d="M122.736,121.823,150,149.3a136.276,136.276,0,0,0-15.694,18.49l-31.621-22.312A176.33,176.33,0,0,1,122.736,121.823Z" transform="translate(-17 -17)" style="fill: #ff0204"/>
              <path d="M121.662,306.371,86.557,322.583a173.213,173.213,0,0,1-10.539-29.166l37.412-9.856A138.655,138.655,0,0,0,121.662,306.371Z" transform="translate(-17 -17)" style="fill: #ff0204"/>
              <path d="M87.051,172.264l35.014,16.475a136.573,136.573,0,0,0-8.378,22.743l-37.36-10.151A174.467,174.467,0,0,1,87.051,172.264Z" transform="translate(-17 -17)" style="fill: #ff0204"/>
              <path d="M109.3,259.655l-38.579,3.233a178.534,178.534,0,0,1,.125-31.009l38.545,3.51A138.483,138.483,0,0,0,109.3,259.655Z" transform="translate(-17 -17)" style="fill: #ff0204"/>
            </g>
          </g>
          <g>
            <path d="M251.972,98.654a4.855,4.855,0,0,1-6.884-.032,6.916,6.916,0,0,1-1.055-4.195l.037-9.542a6.144,6.144,0,0,1,1.1-3.946,5.115,5.115,0,0,1,6.863.026,6.133,6.133,0,0,1,1.067,3.956l-.038,9.541A6.927,6.927,0,0,1,251.972,98.654Zm-3.464-1.207a1.267,1.267,0,0,0,1.112-.557,4.739,4.739,0,0,0,.4-2.385l.039-9.72c0-1.478-.343-2.3-1.021-2.489a3.453,3.453,0,0,0-.654-.046,1.168,1.168,0,0,0-.862.44,3.328,3.328,0,0,0-.423,2.071l-.039,9.728a4.972,4.972,0,0,0,.36,2.406A1.23,1.23,0,0,0,248.508,97.447Z" transform="translate(-17 -17)" style="fill: #fff"/>
            <g>
              <path d="M213.981,103.541l-.2-1.163a9.5,9.5,0,0,1,0-3.125,20.324,20.324,0,0,1,1.021-3.66c.022-.049.216-.564.58-1.538s.637-1.647.82-2.022a7.749,7.749,0,0,0,.2-4.113q-.427-2.535-1.5-2.35-.9.15-.866,1.593a10.648,10.648,0,0,0,.164,1.525l.422,2.493-2.864.483-.2-1.208a12.038,12.038,0,0,1-.147-5.055,3.182,3.182,0,0,1,1.618-1.966,5.744,5.744,0,0,1,1.586-.474,3.438,3.438,0,0,1,1.783.135,3.246,3.246,0,0,1,1.385.985,7.672,7.672,0,0,1,1.529,3.727,9.142,9.142,0,0,1-.22,4.342q-.625,1.962-1.3,3.51a15.331,15.331,0,0,0-1.355,5.049l4.54-.769.4,2.351Z" transform="translate(-17 -17)" style="fill: #fff"/>
              <path d="M225.039,89.951a2.919,2.919,0,0,1,2.29-1.355,2.673,2.673,0,0,1,2.741.978,9.915,9.915,0,0,1,1.513,4.324l.184,1.085a8.1,8.1,0,0,1-.18,4.388c-.438,1.028-1.485,1.689-3.14,1.964q-3.068.513-4.321-1.67a11.6,11.6,0,0,1-1.155-3.706l-1.364-8.084c-.483-2.852-.13-4.756,1.057-5.726a5.307,5.307,0,0,1,2.414-.971,3.589,3.589,0,0,1,3.1.642,6.373,6.373,0,0,1,1.571,3.688l.172,1.021-2.8.468-.069-.4a9.139,9.139,0,0,0-.6-2.346.942.942,0,0,0-1.108-.438,1.033,1.033,0,0,0-.949.833,8,8,0,0,0,.164,2.5Zm1.735,8.323a1.363,1.363,0,0,0,2.234-.251,4.659,4.659,0,0,0-.045-2.01l-.316-1.864a6.772,6.772,0,0,0-.68-2.29,1.01,1.01,0,0,0-1.083-.517,1.814,1.814,0,0,0-1.037.489,1.139,1.139,0,0,0-.35.825l.6,3.557A5.169,5.169,0,0,0,226.774,98.274Z" transform="translate(-17 -17)" style="fill: #fff"/>
            </g>
            <path d="M200.812,106.933a3.88,3.88,0,0,1-2.686,2.528,3.7,3.7,0,0,1-3.526-.161,7.584,7.584,0,0,1-2.326-3.687l-.442-1.227,2.679-.964.469,1.3a6.922,6.922,0,0,0,1.012,2.056,1.071,1.071,0,0,0,1.266.219,1.118,1.118,0,0,0,.824-1.109,8.574,8.574,0,0,0-.638-2.627,7.2,7.2,0,0,0-1.278-2.451,1.452,1.452,0,0,0-1.656-.272l-.81.292-.784-2.176.79-.284a1.53,1.53,0,0,0,1.133-1.173,5.21,5.21,0,0,0-.429-2.359,4.932,4.932,0,0,0-1.064-1.971,1.149,1.149,0,0,0-1.19-.174,1.04,1.04,0,0,0-.753.905,5.193,5.193,0,0,0,.43,2.047l.2.566-2.764.993-.212-.586a6.634,6.634,0,0,1-.448-4.09,3.807,3.807,0,0,1,2.608-2.281,4.048,4.048,0,0,1,3.574.1,6.186,6.186,0,0,1,2.343,3.364,6.625,6.625,0,0,1,.456,2.77,2.68,2.68,0,0,1-.947,1.927,3.092,3.092,0,0,1,2.116,1.12,9.039,9.039,0,0,1,1.533,2.849A7.663,7.663,0,0,1,200.812,106.933Z" transform="translate(-17 -17)" style="fill: #fff"/>
            <g>
              <path d="M172.5,120.426a3.883,3.883,0,0,1-2.207,2.959,3.711,3.711,0,0,1-3.5.459,7.59,7.59,0,0,1-2.928-3.231l-.649-1.132,2.47-1.417.688,1.2a7.079,7.079,0,0,0,1.353,1.855,1.077,1.077,0,0,0,1.287-.007,1.122,1.122,0,0,0,.618-1.236,8.627,8.627,0,0,0-1.085-2.477,7.185,7.185,0,0,0-1.687-2.19,1.445,1.445,0,0,0-1.675.019l-.747.426-1.151-2.006.727-.415a1.526,1.526,0,0,0,.913-1.353,5.236,5.236,0,0,0-.833-2.251,4.9,4.9,0,0,0-1.389-1.751,1.14,1.14,0,0,0-1.2.034,1.034,1.034,0,0,0-.586,1.021,5.219,5.219,0,0,0,.779,1.941l.3.518-2.55,1.463-.309-.541a6.623,6.623,0,0,1-1.152-3.948,3.8,3.8,0,0,1,2.171-2.7,4.037,4.037,0,0,1,3.537-.523,6.157,6.157,0,0,1,2.893,2.9,6.647,6.647,0,0,1,.931,2.652,2.686,2.686,0,0,1-.6,2.062,3.083,3.083,0,0,1,2.276.732,9,9,0,0,1,2,2.539A7.667,7.667,0,0,1,172.5,120.426Z" transform="translate(-17 -17)" style="fill: #fff"/>
              <path d="M179.691,117.994q-3.434,1.968-5.481-1.6l-1.246-2.172,2.471-1.417,1.087,1.9q.69,1.2,1.315,1.221a1.328,1.328,0,0,0,.624-.214c.011-.009.032-.019.059-.036.576-.328.54-1.065-.111-2.2l-2.537-4.43a4.445,4.445,0,0,0-1.008-1.3.864.864,0,0,0-1.034-.028q-1.025.59-.059,2.268l-2.379,1.234-5.064-8.835,6.407-3.671,1.353,2.361-3.975,2.279,2.013,3.511a1.555,1.555,0,0,1,.336-.974,2.885,2.885,0,0,1,.937-.84,2.444,2.444,0,0,1,2.871.128,12.843,12.843,0,0,1,3.014,3.893,30.7,30.7,0,0,1,2.105,4.139,5.247,5.247,0,0,1,.388,2.057A3.5,3.5,0,0,1,179.691,117.994Z" transform="translate(-17 -17)" style="fill: #fff"/>
            </g>
            <g>
              <path d="M149.261,139.034l-10.482-12.346a2.482,2.482,0,0,1-.365,1.258,4.01,4.01,0,0,1-.887,1.086l-1.463-1.719a4,4,0,0,0,.891-1.784,4.067,4.067,0,0,0-.1-2.157l1.8-1.529,12.927,15.225Z" transform="translate(-17 -17)" style="fill: #fff"/>
              <path d="M154.259,134.794l-.764-.9a9.409,9.409,0,0,1-1.6-2.681,20.03,20.03,0,0,1-1-3.67c-.006-.053-.1-.59-.288-1.617s-.295-1.739-.33-2.156a7.715,7.715,0,0,0-1.929-3.639q-1.659-1.959-2.492-1.256c-.461.4-.436,1,.069,1.82a11.38,11.38,0,0,0,.922,1.227l1.636,1.924-2.212,1.881-.793-.934a12.064,12.064,0,0,1-2.713-4.272,3.193,3.193,0,0,1,.386-2.514,5.793,5.793,0,0,1,1.121-1.22,3.469,3.469,0,0,1,1.6-.8,3.3,3.3,0,0,1,1.7.138,7.734,7.734,0,0,1,3.219,2.424,9.2,9.2,0,0,1,2.028,3.844,36.871,36.871,0,0,1,.681,3.682,15.441,15.441,0,0,0,1.418,5.028l3.51-2.981,1.541,1.818Z" transform="translate(-17 -17)" style="fill: #fff"/>
            </g>
            <g>
              <path d="M129.925,160.469l-.9-.762a9.5,9.5,0,0,1-2.018-2.385,20.321,20.321,0,0,1-1.578-3.457q-.023-.078-.548-1.549t-.677-2.074a7.745,7.745,0,0,0-2.5-3.276c-1.307-1.1-2.195-1.384-2.665-.828q-.585.691.366,1.781a10.682,10.682,0,0,0,1.107,1.058l1.929,1.636-1.876,2.214-.933-.792a12.071,12.071,0,0,1-3.375-3.773,3.188,3.188,0,0,1-.03-2.543,5.773,5.773,0,0,1,.91-1.387,3.488,3.488,0,0,1,1.449-1.047,3.289,3.289,0,0,1,1.694-.141,7.766,7.766,0,0,1,3.57,1.867,9.109,9.109,0,0,1,2.632,3.463,37.223,37.223,0,0,1,1.273,3.516,15.387,15.387,0,0,0,2.22,4.735l2.976-3.516,1.817,1.541Z" transform="translate(-17 -17)" style="fill: #fff"/>
              <path d="M140.534,146.349a3.952,3.952,0,0,1-1.118,3.286,4.057,4.057,0,0,1-3.071,1.67,5.951,5.951,0,0,1-3.669-1.645q-.069-.042-1.173-.978a7.83,7.83,0,0,1-1.763-2.088,3.583,3.583,0,0,1-.565-2.1q-1.9.487-4.323-1.566a5.8,5.8,0,0,1-2.247-3.236,5.195,5.195,0,0,1,4.226-5.032,5.9,5.9,0,0,1,3.563,1.726q2.449,2.073,2.263,4a3.585,3.585,0,0,1,2.136.265,8.485,8.485,0,0,1,2.4,1.468l1.047.884A6.161,6.161,0,0,1,140.534,146.349Zm-10.884-4.084a.913.913,0,0,0,.63-.356c.007,0,.01,0,.014,0a.882.882,0,0,0,.235-.68,2.026,2.026,0,0,0-.474-.949,9.438,9.438,0,0,0-1.411-1.405,10.156,10.156,0,0,0-1.525-1.122,1.422,1.422,0,0,0-.874-.242,1.189,1.189,0,0,0-.624.44,1.109,1.109,0,0,0-.312.7q-.006.678,1.767,2.177T129.65,142.265Zm6.653,6.142a1.063,1.063,0,0,0,1.13-.447.992.992,0,0,0,.233-1.163,6.435,6.435,0,0,0-1.443-1.516l-1.245-1.058q-2.339-1.979-3.143-1.027a1.124,1.124,0,0,0-.035,1.273,5.58,5.58,0,0,0,1.5,1.751l1.27,1.078A5.552,5.552,0,0,0,136.3,148.407Z" transform="translate(-17 -17)" style="fill: #fff"/>
            </g>
            <path d="M121.474,173.575l-1.594,2.906a35.819,35.819,0,0,1-5.671-4.449q-2.4-2.347-3.882-3.981t-2.089-2.309c-.405-.449-.72-.807-.945-1.062s-.364-.411-.415-.457L104.15,169.2l-2.337-1.281,4.238-7.729,1.937,1.063a6.29,6.29,0,0,1,1.036.981c.395.45.893,1.033,1.5,1.741A47.823,47.823,0,0,0,121.474,173.575Z" transform="translate(-17 -17)" style="fill: #fff"/>
            <g>
              <path d="M107.168,206.087l-1.112-.392a9.531,9.531,0,0,1-2.736-1.508,20.623,20.623,0,0,1-2.71-2.666q-.05-.066-1.064-1.252c-.677-.788-1.132-1.358-1.374-1.7a7.8,7.8,0,0,0-3.5-2.169q-2.423-.849-2.784.177c-.2.573.125,1.08.975,1.535a10.806,10.806,0,0,0,1.415.594l2.385.834-.961,2.741-1.157-.405q-3.495-1.227-4.495-2.32a3.177,3.177,0,0,1-.937-2.367,5.8,5.8,0,0,1,.353-1.617,3.482,3.482,0,0,1,.981-1.494,3.26,3.26,0,0,1,1.532-.737,7.731,7.731,0,0,1,4,.468,9.143,9.143,0,0,1,3.694,2.291c.943,1,1.757,1.942,2.445,2.833a15.423,15.423,0,0,0,3.763,3.629l1.526-4.343,2.246.79Z" transform="translate(-17 -17)" style="fill: #fff"/>
              <path d="M111.77,189.368a3.587,3.587,0,0,1,.3,3.438,3.853,3.853,0,0,1-2.135,2.551,6.021,6.021,0,0,1-3.972-.335l-1.025-.362.951-2.7.4.135a8,8,0,0,0,2.412.578.908.908,0,0,0,.89-.667c.15-.427.155-.722.016-.88a3.641,3.641,0,0,0-.429-.431,8.1,8.1,0,0,0-1.629-.681l-2.814-.988a3.342,3.342,0,0,1-.216,1.886,3.036,3.036,0,0,1-2.33,2.214,9.083,9.083,0,0,1-4.465-.67l-.683-.239q-3.51-1.231-4.3-2.868a4.027,4.027,0,0,1,0-3.156,4.5,4.5,0,0,1,1.644-2.441,3.521,3.521,0,0,1,2.335-.441,16.99,16.99,0,0,1,3.315.871l7.522,2.639C109.7,187.572,111.1,188.416,111.77,189.368Zm-9.418.175a1.119,1.119,0,0,0-.5-1.53L98.28,186.76a6.069,6.069,0,0,0-2.087-.454,1.127,1.127,0,0,0-.666,1.934,6.028,6.028,0,0,0,1.93.97l1.681.592a6.923,6.923,0,0,0,2.26.508A1.016,1.016,0,0,0,102.352,189.543Z" transform="translate(-17 -17)" style="fill: #fff"/>
            </g>
            <g>
              <path d="M102.173,228.719,86.285,225.58a2.482,2.482,0,0,1,.5,1.209,4.07,4.07,0,0,1-.016,1.408l-2.217-.439a3.981,3.981,0,0,0-.412-1.95,4.053,4.053,0,0,0-1.425-1.627l.457-2.317,19.594,3.872Z" transform="translate(-17 -17)" style="fill: #fff"/>
              <path d="M103.759,215.371a3.94,3.94,0,0,1,.619,3.412,4.06,4.06,0,0,1-1.869,2.956,5.96,5.96,0,0,1-4.008.345c-.053,0-.554-.1-1.5-.282a7.766,7.766,0,0,1-2.555-.969,3.549,3.549,0,0,1-1.517-1.562q-1.422,1.353-4.537.737a5.789,5.789,0,0,1-3.537-1.736,5.195,5.195,0,0,1,1.246-6.449,5.9,5.9,0,0,1,3.952-.226c2.1.414,3.406,1.208,3.92,2.393a3.572,3.572,0,0,1,2-.808,8.516,8.516,0,0,1,2.809.113l1.346.268A6.18,6.18,0,0,1,103.759,215.371Zm-11.5,1.725a.922.922,0,0,0,.375-.619.013.013,0,0,0,.013-.009.9.9,0,0,0-.124-.711,2.083,2.083,0,0,0-.877-.6,12.755,12.755,0,0,0-3.794-.777,1.4,1.4,0,0,0-.88.211,1.2,1.2,0,0,0-.333.689,1.127,1.127,0,0,0,.068.764q.324.6,2.6,1.046T92.263,217.1Zm8.8,2.131a1.058,1.058,0,0,0,.771-.94.988.988,0,0,0-.362-1.127,6.384,6.384,0,0,0-2-.628l-1.6-.32q-3.006-.587-3.247.632a1.128,1.128,0,0,0,.588,1.131,5.6,5.6,0,0,0,2.164.8l1.634.321A5.552,5.552,0,0,0,101.06,219.227Z" transform="translate(-17 -17)" style="fill: #fff"/>
            </g>
            <g>
              <path d="M101.991,256.471l-1.179.02a9.408,9.408,0,0,1-3.088-.453,20.421,20.421,0,0,1-3.475-1.551q-.066-.042-1.432-.8c-.91-.5-1.538-.874-1.883-1.111a7.747,7.747,0,0,0-4.038-.8q-2.565.049-2.545,1.139c.011.6.5.967,1.451,1.093a11.253,11.253,0,0,0,1.53.06l2.53-.051.057,2.9-1.224.022q-3.708.077-5.027-.6a3.194,3.194,0,0,1-1.7-1.889,5.8,5.8,0,0,1-.235-1.641,3.461,3.461,0,0,1,.4-1.741,3.212,3.212,0,0,1,1.178-1.225,7.691,7.691,0,0,1,3.911-.961,9.077,9.077,0,0,1,4.265.858q1.845.906,3.279,1.795a15.479,15.479,0,0,0,4.8,2.088l-.09-4.609,2.382-.044Z" transform="translate(-17 -17)" style="fill: #fff"/>
              <path d="M101.78,245.687l-1.178.021a9.418,9.418,0,0,1-3.089-.453A20.409,20.409,0,0,1,94.04,243.7q-.069-.043-1.433-.8c-.909-.5-1.537-.874-1.882-1.111a7.761,7.761,0,0,0-4.038-.8q-2.567.05-2.546,1.139c.012.6.494.967,1.45,1.093a11.138,11.138,0,0,0,1.533.06l2.529-.051.056,2.9-1.225.021a11.965,11.965,0,0,1-5.026-.6,3.2,3.2,0,0,1-1.7-1.889,5.783,5.783,0,0,1-.236-1.641,3.505,3.505,0,0,1,.4-1.741,3.232,3.232,0,0,1,1.18-1.225,7.691,7.691,0,0,1,3.911-.961,9.062,9.062,0,0,1,4.266.858q1.842.906,3.277,1.8a15.5,15.5,0,0,0,4.794,2.088l-.089-4.609,2.381-.044Z" transform="translate(-17 -17)" style="fill: #fff"/>
            </g>
            <path d="M100.544,270.091a3.589,3.589,0,0,1,1.943,2.85,3.867,3.867,0,0,1-.613,3.274,6.014,6.014,0,0,1-3.627,1.648l-1.071.186-.5-2.825.414-.072a8.022,8.022,0,0,0,2.384-.678.912.912,0,0,0,.45-1.018c-.079-.445-.217-.707-.419-.779a3.775,3.775,0,0,0-.581-.162,8,8,0,0,0-1.753.2l-2.939.515a3.321,3.321,0,0,1,.731,1.749,3.043,3.043,0,0,1-.946,3.074,9.123,9.123,0,0,1-4.223,1.594l-.715.126q-3.663.641-5.146-.4a4.049,4.049,0,0,1-1.542-2.754,4.482,4.482,0,0,1,.24-2.932,3.484,3.484,0,0,1,1.824-1.529,17.057,17.057,0,0,1,3.312-.863l7.855-1.377Q98.966,269.342,100.544,270.091Zm-8.13,4.761c-.13-.736-.522-1.1-1.181-1.093l-3.732.653a6.05,6.05,0,0,0-2.043.63,1,1,0,0,0-.46,1.116,1.017,1.017,0,0,0,.823.9,6.1,6.1,0,0,0,2.159-.1l1.753-.308a6.713,6.713,0,0,0,2.222-.657A1.02,1.02,0,0,0,92.414,274.852Z" transform="translate(-17 -17)" style="fill: #fff"/>
            <g>
              <path d="M108.784,298.425a3.877,3.877,0,0,1,2.514,2.7,3.706,3.706,0,0,1-.177,3.529,7.615,7.615,0,0,1-3.7,2.3l-1.231.435-.951-2.683,1.3-.462a6.879,6.879,0,0,0,2.065-1,1.071,1.071,0,0,0,.225-1.266,1.117,1.117,0,0,0-1.106-.827,8.57,8.57,0,0,0-2.63.625,7.118,7.118,0,0,0-2.457,1.266,1.45,1.45,0,0,0-.281,1.652l.287.813-2.181.77-.28-.79a1.516,1.516,0,0,0-1.167-1.136,5.133,5.133,0,0,0-2.361.415,4.867,4.867,0,0,0-1.974,1.052,1.146,1.146,0,0,0-.179,1.19,1.03,1.03,0,0,0,.9.758,5.267,5.267,0,0,0,2.048-.419l.566-.2.981,2.77-.589.21a6.637,6.637,0,0,1-4.09.427,3.817,3.817,0,0,1-2.269-2.623,4.047,4.047,0,0,1,.118-3.569,6.146,6.146,0,0,1,3.376-2.327,6.61,6.61,0,0,1,2.774-.442,2.661,2.661,0,0,1,1.92.957,3.108,3.108,0,0,1,1.131-2.111,9.1,9.1,0,0,1,2.855-1.515A7.646,7.646,0,0,1,108.784,298.425Z" transform="translate(-17 -17)" style="fill: #fff"/>
              <path d="M108.272,293.262l-15.265,5.407a2.511,2.511,0,0,1,1.042.785,4.031,4.031,0,0,1,.7,1.221l-2.128.754a4.088,4.088,0,0,0-3.4-2.136l-.789-2.227,18.827-6.669Z" transform="translate(-17 -17)" style="fill: #fff"/>
            </g>
            <g>
              <path d="M123.48,326.26l-14.361,7.487a2.447,2.447,0,0,1,1.143.635,4.038,4.038,0,0,1,.866,1.108l-2,1.043a3.963,3.963,0,0,0-1.543-1.264,4.063,4.063,0,0,0-2.127-.378l-1.09-2.1,17.708-9.233Z" transform="translate(-17 -17)" style="fill: #fff"/>
              <path d="M118.551,316.781l-3.127,1.631,2.275,4.365-1.981,1.033-14.639,2.681-1.5-2.875L112,317.141l-.714-1.37,2.172-1.132.714,1.37,3.127-1.63Zm-4.108,5.046-1.192-2.283-8.739,4.555Z" transform="translate(-17 -17)" style="fill: #fff"/>
            </g>
            <g>
              <path d="M140.878,349.278l-.916.742a9.572,9.572,0,0,1-2.72,1.535,20.379,20.379,0,0,1-3.692.908q-.081.011-1.622.247t-2.167.28a7.724,7.724,0,0,0-3.681,1.844q-2,1.613-1.312,2.462.569.705,1.817-.026a11.288,11.288,0,0,0,1.246-.894l1.967-1.588,1.825,2.253-.951.771q-2.885,2.331-4.337,2.61a3.17,3.17,0,0,1-2.5-.446,5.713,5.713,0,0,1-1.2-1.15,3.5,3.5,0,0,1-.754-1.616,3.262,3.262,0,0,1,.178-1.694,7.718,7.718,0,0,1,2.5-3.16,9.088,9.088,0,0,1,3.893-1.936,37.27,37.27,0,0,1,3.692-.6,15.311,15.311,0,0,0,5.065-1.3l-2.9-3.579,1.852-1.5Z" transform="translate(-17 -17)" style="fill: #fff"/>
              <path d="M128.572,335.96a4.856,4.856,0,0,1,4.327,5.351,6.909,6.909,0,0,1-2.586,3.474l-7.414,6a6.12,6.12,0,0,1-3.755,1.641,5.11,5.11,0,0,1-4.315-5.333,6.136,6.136,0,0,1,2.39-3.327l7.416-6A6.921,6.921,0,0,1,128.572,335.96Zm1.256,3.446a1.267,1.267,0,0,0-1.135-.51,4.742,4.742,0,0,0-2.1,1.2l-7.556,6.112q-1.711,1.4-1.281,2.365a3.272,3.272,0,0,0,.373.538,1.2,1.2,0,0,0,.886.391,3.377,3.377,0,0,0,1.876-.982l7.564-6.121a4.981,4.981,0,0,0,1.638-1.8A1.226,1.226,0,0,0,129.828,339.406Z" transform="translate(-17 -17)" style="fill: #fff"/>
            </g>
            <path d="M153,360.284l-9.808,12.89a2.425,2.425,0,0,1,1.3.087,4.031,4.031,0,0,1,1.259.635l-1.369,1.8a3.991,3.991,0,0,0-1.933-.488,4.072,4.072,0,0,0-2.087.563l-1.879-1.431,12.1-15.893Z" transform="translate(-17 -17)" style="fill: #fff"/>
            <g>
              <path d="M175.374,377.8a3.882,3.882,0,0,1,3.674.339,3.692,3.692,0,0,1,2.217,2.747,7.557,7.557,0,0,1-1.223,4.185l-.627,1.144-2.5-1.368.664-1.213a6.764,6.764,0,0,0,.869-2.122,1.066,1.066,0,0,0-.672-1.093,1.121,1.121,0,0,0-1.38.119,8.542,8.542,0,0,0-1.544,2.218,7.137,7.137,0,0,0-.987,2.581,1.451,1.451,0,0,0,.889,1.418l.758.415-1.111,2.027-.736-.4a1.524,1.524,0,0,0-1.631-.069,5.163,5.163,0,0,0-1.485,1.882,4.943,4.943,0,0,0-.77,2.1,1.148,1.148,0,0,0,.66,1.009,1.03,1.03,0,0,0,1.174-.039,5.148,5.148,0,0,0,1.25-1.673l.289-.528,2.576,1.412-.3.546a6.609,6.609,0,0,1-2.769,3.044,3.81,3.81,0,0,1-3.437-.442,4.044,4.044,0,0,1-2.29-2.744,6.17,6.17,0,0,1,.967-3.985,6.617,6.617,0,0,1,1.773-2.173,2.658,2.658,0,0,1,2.072-.566,3.1,3.1,0,0,1-.564-2.326,9.009,9.009,0,0,1,1.119-3.036A7.661,7.661,0,0,1,175.374,377.8Z" transform="translate(-17 -17)" style="fill: #fff"/>
              <path d="M165.827,372.564a3.88,3.88,0,0,1,3.674.34,3.692,3.692,0,0,1,2.218,2.747,7.579,7.579,0,0,1-1.223,4.184l-.627,1.144-2.5-1.368.665-1.213a6.789,6.789,0,0,0,.869-2.125,1.063,1.063,0,0,0-.673-1.09,1.117,1.117,0,0,0-1.377.117,8.6,8.6,0,0,0-1.546,2.218,7.218,7.218,0,0,0-.988,2.58,1.455,1.455,0,0,0,.892,1.421l.755.415-1.111,2.027-.736-.4a1.515,1.515,0,0,0-1.628-.071,5.147,5.147,0,0,0-1.486,1.884,4.869,4.869,0,0,0-.769,2.1,1.147,1.147,0,0,0,.658,1.007,1.03,1.03,0,0,0,1.176-.036,5.206,5.206,0,0,0,1.248-1.674l.289-.528,2.575,1.412-.3.546a6.626,6.626,0,0,1-2.766,3.044,3.816,3.816,0,0,1-3.439-.441,4.059,4.059,0,0,1-2.291-2.744,6.184,6.184,0,0,1,.967-3.986,6.66,6.66,0,0,1,1.776-2.175,2.658,2.658,0,0,1,2.07-.566,3.111,3.111,0,0,1-.565-2.326,9.1,9.1,0,0,1,1.122-3.034A7.666,7.666,0,0,1,165.827,372.564Z" transform="translate(-17 -17)" style="fill: #fff"/>
            </g>
            <g>
              <path d="M202.964,388.613l-5.441,15.255a2.531,2.531,0,0,1,1.269-.313,4.106,4.106,0,0,1,1.39.225l-.758,2.125a4,4,0,0,0-1.991.122,4.038,4.038,0,0,0-1.817,1.171l-2.222-.793,6.707-18.813Z" transform="translate(-17 -17)" style="fill: #fff"/>
              <path d="M190.666,396.5a2.915,2.915,0,0,1-2.661.065,2.67,2.67,0,0,1-1.916-2.192,9.921,9.921,0,0,1,.787-4.51l.371-1.036a8.1,8.1,0,0,1,2.3-3.743q1.331-1.029,3.7-.183,2.924,1.05,2.954,3.569a11.469,11.469,0,0,1-.8,3.8l-2.754,7.721q-1.455,4.085-3.717,4.478a5.221,5.221,0,0,1-2.58-.329,3.572,3.572,0,0,1-2.4-2.076,6.35,6.35,0,0,1,.43-3.983l.346-.973,2.67.955-.137.382a9.229,9.229,0,0,0-.621,2.343c-.008.433.243.737.757.922a1.032,1.032,0,0,0,1.229-.261,7.88,7.88,0,0,0,1.08-2.265Zm2.547-8.108a1.161,1.161,0,0,0-.85-1,1.144,1.144,0,0,0-1.224.131,4.606,4.606,0,0,0-.939,1.772l-.637,1.782a6.824,6.824,0,0,0-.522,2.331,1.006,1.006,0,0,0,.691.983,1.821,1.821,0,0,0,1.146.078,1.174,1.174,0,0,0,.71-.551l1.211-3.4A5.2,5.2,0,0,0,193.213,388.389Z" transform="translate(-17 -17)" style="fill: #fff"/>
            </g>
            <g>
              <path d="M230.743,396.26l-.235,1.156a9.472,9.472,0,0,1-1.118,2.917,20.619,20.619,0,0,1-2.267,3.051c-.038.038-.4.445-1.094,1.225s-1.188,1.308-1.493,1.6a7.74,7.74,0,0,0-1.664,3.764q-.51,2.518.557,2.734c.594.122,1.055-.272,1.383-1.177a10.61,10.61,0,0,0,.394-1.482l.5-2.478,2.844.574-.244,1.2q-.736,3.637-1.678,4.775a3.185,3.185,0,0,1-2.215,1.253,5.782,5.782,0,0,1-1.652-.128,3.5,3.5,0,0,1-1.615-.765,3.279,3.279,0,0,1-.938-1.419,7.7,7.7,0,0,1-.087-4.026,9.129,9.129,0,0,1,1.766-3.977q1.288-1.6,2.467-2.81a15.357,15.357,0,0,0,3.082-4.223l-4.515-.915.473-2.335Z" transform="translate(-17 -17)" style="fill: #fff"/>
              <path d="M216.128,393.285l-.7,3.457,4.824.979-.444,2.188-7.126,13.069-3.18-.646,2.783-13.728-1.51-.305.486-2.4,1.511.308.7-3.458Zm1.338,6.372-2.526-.514-1.959,9.658Z" transform="translate(-17 -17)" style="fill: #fff"/>
            </g>
            <path d="M247.226,397.175q3.96.066,3.885,4.185l-.043,2.5-2.847-.049.038-2.188q.026-1.386-.5-1.724a1.3,1.3,0,0,0-.645-.136c-.016,0-.039,0-.068,0-.665-.01-1.01.636-1.032,1.945l-.09,5.1a4.478,4.478,0,0,0,.2,1.631A.867.867,0,0,0,247,409q1.179.02,1.213-1.922l2.674.164-.178,10.183-7.383-.13.049-2.722,4.58.078.071-4.045a1.578,1.578,0,0,1-.788.665,2.894,2.894,0,0,1-1.235.238,2.438,2.438,0,0,1-2.4-1.577,12.859,12.859,0,0,1-.595-4.885,31.139,31.139,0,0,1,.313-4.638,5.339,5.339,0,0,1,.722-1.966A3.5,3.5,0,0,1,247.226,397.175Z" transform="translate(-17 -17)" style="fill: #fff"/>
            <g>
              <path d="M279.7,393.572l2.595,15.984a2.466,2.466,0,0,1,.96-.884,4.032,4.032,0,0,1,1.324-.472l.36,2.226a4.015,4.015,0,0,0-1.68,1.065,4.078,4.078,0,0,0-1.031,1.9l-2.328.382-3.2-19.715Z" transform="translate(-17 -17)" style="fill: #fff"/>
              <path d="M266.2,396.969a4.861,4.861,0,0,1,6.8-1.1,6.935,6.935,0,0,1,1.731,3.972l1.528,9.414a6.132,6.132,0,0,1-.436,4.077,5.118,5.118,0,0,1-6.772,1.1,6.132,6.132,0,0,1-1.7-3.726l-1.527-9.414A6.913,6.913,0,0,1,266.2,396.969Zm3.615.617a1.288,1.288,0,0,0-1.007.734,4.757,4.757,0,0,0,0,2.419l1.557,9.6c.244,1.456.719,2.218,1.418,2.287a3.246,3.246,0,0,0,.651-.06,1.176,1.176,0,0,0,.779-.578,3.347,3.347,0,0,0,.076-2.111l-1.559-9.606a4.983,4.983,0,0,0-.749-2.315A1.226,1.226,0,0,0,269.817,397.586Z" transform="translate(-17 -17)" style="fill: #fff"/>
            </g>
            <g>
              <path d="M307.383,385.451l.362,1.123a9.451,9.451,0,0,1,.456,3.09,20.406,20.406,0,0,1-.481,3.77q-.023.078-.351,1.6c-.221,1.019-.393,1.725-.52,2.123a7.727,7.727,0,0,0,.4,4.1q.789,2.447,1.824,2.113.865-.281.628-1.708a10.362,10.362,0,0,0-.383-1.483l-.778-2.408,2.764-.891.377,1.165q1.138,3.525.875,4.984a3.168,3.168,0,0,1-1.315,2.175,5.685,5.685,0,0,1-1.5.7,3.479,3.479,0,0,1-1.782.124,3.237,3.237,0,0,1-1.513-.773,7.685,7.685,0,0,1-2.05-3.47,9.15,9.15,0,0,1-.41-4.328q.336-2.029.773-3.659a15.358,15.358,0,0,0,.61-5.192l-4.381,1.415-.732-2.266Z" transform="translate(-17 -17)" style="fill: #fff"/>
              <path d="M290.873,392.088a3.877,3.877,0,0,1,2.771-2.435,3.691,3.691,0,0,1,3.52.272,7.563,7.563,0,0,1,2.2,3.765l.4,1.24-2.709.877-.426-1.317a6.933,6.933,0,0,0-.942-2.091,1.077,1.077,0,0,0-1.259-.265,1.123,1.123,0,0,0-.859,1.084,8.559,8.559,0,0,0,.55,2.648,7.109,7.109,0,0,0,1.2,2.49,1.448,1.448,0,0,0,1.643.329l.82-.265.71,2.2-.8.259a1.517,1.517,0,0,0-1.168,1.131,5.151,5.151,0,0,0,.347,2.373,4.877,4.877,0,0,0,1,2,1.148,1.148,0,0,0,1.185.215,1.039,1.039,0,0,0,.782-.881,5.225,5.225,0,0,0-.362-2.06l-.184-.569,2.8-.9.191.594a6.633,6.633,0,0,1,.312,4.1,3.814,3.814,0,0,1-2.683,2.194,4.043,4.043,0,0,1-3.569-.219,6.165,6.165,0,0,1-2.231-3.438,6.632,6.632,0,0,1-.362-2.786,2.676,2.676,0,0,1,1.009-1.894,3.088,3.088,0,0,1-2.077-1.189,9.024,9.024,0,0,1-1.437-2.9A7.692,7.692,0,0,1,290.873,392.088Z" transform="translate(-17 -17)" style="fill: #fff"/>
            </g>
            <path d="M319.12,379.79a3.942,3.942,0,0,1,2.247-2.641,4.054,4.054,0,0,1,3.472-.424,5.962,5.962,0,0,1,2.8,2.88c.033.044.275.49.729,1.343a7.753,7.753,0,0,1,.87,2.587A3.582,3.582,0,0,1,329,385.7q1.944.243,3.442,3.048a5.81,5.81,0,0,1,.9,3.835,5.2,5.2,0,0,1-5.784,3.123,5.923,5.923,0,0,1-2.678-2.918q-1.512-2.832-.63-4.549a3.6,3.6,0,0,1-1.891-1.032,8.577,8.577,0,0,1-1.69-2.248l-.646-1.212A6.149,6.149,0,0,1,319.12,379.79Zm4.691-.355a1.056,1.056,0,0,0-1.216,0,.992.992,0,0,0-.645,1,6.507,6.507,0,0,0,.781,1.94l.77,1.441q1.445,2.7,2.544,2.111a1.117,1.117,0,0,0,.5-1.168,5.594,5.594,0,0,0-.748-2.182l-.787-1.469A5.541,5.541,0,0,0,323.811,379.435Zm3.923,8.16a.915.915,0,0,0-.718.1.011.011,0,0,0-.016-.006.885.885,0,0,0-.466.546,2.027,2.027,0,0,0,.089,1.057,9.615,9.615,0,0,0,.8,1.823,10.185,10.185,0,0,0,1.006,1.608,1.392,1.392,0,0,0,.721.545,1.2,1.2,0,0,0,.741-.175,1.119,1.119,0,0,0,.55-.538c.171-.421-.11-1.311-.84-2.68S328.246,387.748,327.734,387.6Z" transform="translate(-17 -17)" style="fill: #fff"/>
            <g>
              <path d="M345.7,361.426a3.873,3.873,0,0,1,1.762-3.241,3.7,3.7,0,0,1,3.4-.952,7.586,7.586,0,0,1,3.359,2.778l.8,1.027-2.243,1.755-.852-1.09a6.941,6.941,0,0,0-1.6-1.64,1.071,1.071,0,0,0-1.272.187,1.123,1.123,0,0,0-.436,1.312,8.646,8.646,0,0,0,1.428,2.3,7.19,7.19,0,0,0,1.982,1.929,1.453,1.453,0,0,0,1.655-.259l.679-.531,1.424,1.822-.659.516a1.518,1.518,0,0,0-.709,1.469,5.166,5.166,0,0,0,1.143,2.109,4.906,4.906,0,0,0,1.626,1.536,1.142,1.142,0,0,0,1.184-.2,1.036,1.036,0,0,0,.434-1.1,5.2,5.2,0,0,0-1.048-1.81l-.369-.472,2.314-1.811.383.492a6.6,6.6,0,0,1,1.7,3.744,3.808,3.808,0,0,1-1.763,2.983A4.044,4.044,0,0,1,356.6,375.3a6.18,6.18,0,0,1-3.28-2.461,6.627,6.627,0,0,1-1.3-2.489,2.682,2.682,0,0,1,.3-2.126,3.09,3.09,0,0,1-2.358-.4,9.043,9.043,0,0,1-2.346-2.226A7.656,7.656,0,0,1,345.7,361.426Z" transform="translate(-17 -17)" style="fill: #fff"/>
              <path d="M336.817,368.306a4.862,4.862,0,0,1,5.424-4.24,6.929,6.929,0,0,1,3.428,2.646l5.874,7.514a6.121,6.121,0,0,1,1.581,3.781,5.108,5.108,0,0,1-5.405,4.225,6.137,6.137,0,0,1-3.288-2.447l-5.874-7.514A6.927,6.927,0,0,1,336.817,368.306Zm3.467-1.2a1.276,1.276,0,0,0-.53,1.126,4.732,4.732,0,0,0,1.163,2.123l5.986,7.657q1.372,1.735,2.344,1.323a3.851,3.851,0,0,0,.54-.367,1.179,1.179,0,0,0,.406-.879,3.386,3.386,0,0,0-.951-1.893l-5.993-7.665a4.947,4.947,0,0,0-1.771-1.665A1.227,1.227,0,0,0,340.284,367.106Z" transform="translate(-17 -17)" style="fill: #fff"/>
            </g>
            <g>
              <path d="M364.4,339.764l12.277,10.56a2.461,2.461,0,0,1,.164-1.3,4.066,4.066,0,0,1,.707-1.216l1.711,1.473a4.006,4.006,0,0,0-.6,1.9,4.1,4.1,0,0,0,.438,2.12l-1.537,1.787-15.142-13.021Z" transform="translate(-17 -17)" style="fill: #fff"/>
              <path d="M359.4,345.573l12.277,10.562a2.459,2.459,0,0,1,.163-1.3,4.1,4.1,0,0,1,.709-1.217l1.711,1.474a4.008,4.008,0,0,0-.6,1.9,4.088,4.088,0,0,0,.44,2.118l-1.539,1.787L357.417,347.88Z" transform="translate(-17 -17)" style="fill: #fff"/>
            </g>
            <g>
              <path d="M378.5,320.581a3.878,3.878,0,0,1,.456-3.659,3.693,3.693,0,0,1,2.819-2.128,7.568,7.568,0,0,1,4.141,1.357l1.124.662-1.447,2.45-1.191-.7a6.968,6.968,0,0,0-2.092-.934,1.066,1.066,0,0,0-1.116.64,1.119,1.119,0,0,0,.072,1.377,8.645,8.645,0,0,0,2.17,1.617,7.048,7.048,0,0,0,2.548,1.067,1.451,1.451,0,0,0,1.449-.844l.438-.742,1.99,1.177-.425.721a1.523,1.523,0,0,0-.124,1.628,5.213,5.213,0,0,0,1.834,1.545,4.86,4.86,0,0,0,2.074.833,1.139,1.139,0,0,0,1.03-.623,1.035,1.035,0,0,0,0-1.176,5.186,5.186,0,0,0-1.637-1.3l-.516-.3,1.494-2.53.535.317a6.637,6.637,0,0,1,2.955,2.863,3.816,3.816,0,0,1-.554,3.422,4.048,4.048,0,0,1-2.813,2.2,6.171,6.171,0,0,1-3.953-1.1,6.576,6.576,0,0,1-2.117-1.842,2.673,2.673,0,0,1-.5-2.087,3.092,3.092,0,0,1-2.343.486,8.944,8.944,0,0,1-3-1.215A7.657,7.657,0,0,1,378.5,320.581Z" transform="translate(-17 -17)" style="fill: #fff"/>
              <path d="M384.173,331.258a2.915,2.915,0,0,1-.442,2.622,2.675,2.675,0,0,1-2.512,1.468,9.955,9.955,0,0,1-4.28-1.632l-.947-.558a8.153,8.153,0,0,1-3.241-2.969q-.757-1.5.52-3.669,1.591-2.67,4.065-2.224a11.541,11.541,0,0,1,3.579,1.5l7.058,4.171q3.733,2.2,3.694,4.5a5.253,5.253,0,0,1-.813,2.471,3.567,3.567,0,0,1-2.493,1.959,6.361,6.361,0,0,1-3.834-1.175l-.888-.524,1.442-2.442.354.206a9.1,9.1,0,0,0,2.183,1.054.942.942,0,0,0,1.048-.568,1.031,1.031,0,0,0-.024-1.257,8.012,8.012,0,0,0-2.017-1.489Zm-7.479-4.042a1.158,1.158,0,0,0-1.146.647,1.141,1.141,0,0,0-.1,1.225,4.64,4.64,0,0,0,1.562,1.256l1.629.962a6.837,6.837,0,0,0,2.191.958,1,1,0,0,0,1.093-.494,1.807,1.807,0,0,0,.294-1.109,1.142,1.142,0,0,0-.406-.8l-3.1-1.832A5.189,5.189,0,0,0,376.694,327.216Z" transform="translate(-17 -17)" style="fill: #fff"/>
            </g>
            <g>
              <path d="M389.457,292.205l15.093,5.874a2.452,2.452,0,0,1-.275-1.277,4.018,4.018,0,0,1,.262-1.381l2.105.819a3.951,3.951,0,0,0,.066,1.987,4.065,4.065,0,0,0,1.116,1.857l-.855,2.2-18.613-7.242Z" transform="translate(-17 -17)" style="fill: #fff"/>
              <path d="M385.714,305.256a3.877,3.877,0,0,1-.142-3.687,3.7,3.7,0,0,1,2.438-2.558,7.593,7.593,0,0,1,4.308.671l1.213.474L392.5,302.81l-1.289-.5a6.9,6.9,0,0,0-2.217-.591,1.07,1.07,0,0,0-1,.81,1.121,1.121,0,0,0,.3,1.351,8.456,8.456,0,0,0,2.4,1.243,7.038,7.038,0,0,0,2.685.644,1.444,1.444,0,0,0,1.292-1.066l.313-.8,2.158.838-.306.783a1.521,1.521,0,0,0,.139,1.623,5.178,5.178,0,0,0,2.061,1.227,4.863,4.863,0,0,0,2.182.489,1.133,1.133,0,0,0,.913-.781,1.036,1.036,0,0,0-.185-1.162,5.192,5.192,0,0,0-1.826-1.019l-.558-.218,1.065-2.736.58.224a6.613,6.613,0,0,1,3.377,2.35,3.8,3.8,0,0,1,.007,3.463,4.042,4.042,0,0,1-2.421,2.63,6.141,6.141,0,0,1-4.075-.442,6.631,6.631,0,0,1-2.388-1.476,2.673,2.673,0,0,1-.833-1.98,3.092,3.092,0,0,1-2.232.86,8.978,8.978,0,0,1-3.155-.716A7.658,7.658,0,0,1,385.714,305.256Z" transform="translate(-17 -17)" style="fill: #fff"/>
            </g>
            <g>
              <path d="M394.623,265.293l1.164.188a9.507,9.507,0,0,1,2.96,1,20.388,20.388,0,0,1,3.14,2.146c.04.035.463.384,1.269,1.043s1.356,1.131,1.654,1.422a7.715,7.715,0,0,0,3.83,1.513q2.535.41,2.709-.666c.1-.6-.317-1.043-1.236-1.335a10,10,0,0,0-1.494-.332l-2.5-.4.461-2.866,1.207.192q3.663.591,4.838,1.487a3.177,3.177,0,0,1,1.34,2.163,5.766,5.766,0,0,1-.059,1.653,3.508,3.508,0,0,1-.7,1.644,3.276,3.276,0,0,1-1.378,1,7.659,7.659,0,0,1-4.021.246,9.159,9.159,0,0,1-4.044-1.6,37.359,37.359,0,0,1-2.906-2.357,15.488,15.488,0,0,0-4.348-2.9l-.73,4.542-2.352-.377Z" transform="translate(-17 -17)" style="fill: #fff"/>
              <path d="M392.308,279.749l.527-3.269a36.068,36.068,0,0,1,6.836,2.291q3.046,1.4,4.992,2.445c1.3.694,2.213,1.187,2.743,1.473s.946.517,1.246.687.478.261.544.285l.9-5.6,2.631.422-1.4,8.7-2.181-.349a6.315,6.315,0,0,1-1.305-.579q-.785-.438-1.994-1.135A47.81,47.81,0,0,0,392.308,279.749Z" transform="translate(-17 -17)" style="fill: #fff"/>
            </g>
            <path d="M407.416,247.231a2.906,2.906,0,0,1,.875,2.511,2.675,2.675,0,0,1-1.5,2.5,9.917,9.917,0,0,1-4.535.628l-1.1-.037a8.1,8.1,0,0,1-4.266-1.042q-1.389-.959-1.306-3.475.109-3.1,2.5-3.9a11.47,11.47,0,0,1,3.859-.4l8.195.265c2.887.091,4.685.819,5.4,2.17a5.232,5.232,0,0,1,.474,2.556,3.568,3.568,0,0,1-1.245,2.919,6.36,6.36,0,0,1-3.924.81l-1.032-.034.091-2.837.409.013a9.187,9.187,0,0,0,2.421-.123.946.946,0,0,0,.645-1,1.032,1.032,0,0,0-.622-1.093,8.146,8.146,0,0,0-2.487-.336Zm-8.5.051a1.154,1.154,0,0,0-.694,1.117,1.138,1.138,0,0,0,.5,1.12,4.646,4.646,0,0,0,1.974.359l1.893.059a6.716,6.716,0,0,0,2.379-.217,1,1,0,0,0,.723-.957,1.764,1.764,0,0,0-.276-1.114,1.154,1.154,0,0,0-.739-.506l-3.6-.117A5.121,5.121,0,0,0,398.917,247.282Z" transform="translate(-17 -17)" style="fill: #fff"/>
            <g>
              <path d="M395.193,219.9a3.881,3.881,0,0,1-1.987-3.108,3.7,3.7,0,0,1,.809-3.44,7.57,7.57,0,0,1,4.055-1.6l1.288-.2.452,2.808-1.367.222a6.788,6.788,0,0,0-2.209.613,1.07,1.07,0,0,0-.451,1.2,1.118,1.118,0,0,0,.94,1.013,8.45,8.45,0,0,0,2.7-.141,7.149,7.149,0,0,0,2.644-.8,1.449,1.449,0,0,0,.577-1.573l-.138-.853,2.284-.363.133.826a1.523,1.523,0,0,0,.943,1.331,5.217,5.217,0,0,0,2.4.017,4.885,4.885,0,0,0,2.13-.683,1.144,1.144,0,0,0,.393-1.136,1.029,1.029,0,0,0-.749-.906,5.182,5.182,0,0,0-2.09.042l-.6.1-.466-2.9.616-.1a6.632,6.632,0,0,1,4.1.313,3.82,3.82,0,0,1,1.762,2.989,4.05,4.05,0,0,1-.762,3.493,6.178,6.178,0,0,1-3.74,1.679,6.637,6.637,0,0,1-2.805-.065,2.671,2.671,0,0,1-1.718-1.289,3.1,3.1,0,0,1-1.491,1.874,8.968,8.968,0,0,1-3.082.974A7.639,7.639,0,0,1,395.193,219.9Z" transform="translate(-17 -17)" style="fill: #fff"/>
              <path d="M395.233,228.047l3.483-.56-.782-4.856,2.207-.358,14.736,2.078.516,3.2-13.828,2.22.244,1.529-2.419.387-.244-1.525-3.483.559Zm5.493-3.491.408,2.544,9.732-1.565Z" transform="translate(-17 -17)" style="fill: #fff"/>
            </g>
            <g>
              <path d="M384.724,193.176l14.934-6.266a2.462,2.462,0,0,1-1.087-.726,4.034,4.034,0,0,1-.772-1.175l2.082-.875a3.955,3.955,0,0,0,1.43,1.384,4.008,4.008,0,0,0,2.092.556l.913,2.178L385.9,195.98Z" transform="translate(-17 -17)" style="fill: #fff"/>
              <path d="M388.763,202.772l-1.284-3.054a35.762,35.762,0,0,1,7.012-1.669q3.332-.42,5.533-.564c1.47-.089,2.5-.16,3.109-.194s1.076-.067,1.419-.082.546-.027.615-.038l-2.195-5.232,2.458-1.031,3.412,8.125-2.04.858a6.164,6.164,0,0,1-1.413.2c-.6.031-1.362.058-2.292.089A47.978,47.978,0,0,0,388.763,202.772Z" transform="translate(-17 -17)" style="fill: #fff"/>
            </g>
            <g>
              <path d="M372.63,165.788l1.02-.592a9.452,9.452,0,0,1,2.923-1.1,20.21,20.21,0,0,1,3.788-.333c.054,0,.6,0,1.643,0s1.766.02,2.183.058a7.754,7.754,0,0,0,3.92-1.253q2.221-1.29,1.676-2.233c-.3-.524-.9-.605-1.8-.251a10.4,10.4,0,0,0-1.368.689l-2.187,1.268-1.458-2.508,1.061-.618q3.209-1.861,4.685-1.91a3.187,3.187,0,0,1,2.406.825,5.785,5.785,0,0,1,1,1.319,3.523,3.523,0,0,1,.5,1.716,3.239,3.239,0,0,1-.437,1.643,7.694,7.694,0,0,1-2.954,2.741,9.153,9.153,0,0,1-4.147,1.318q-2.051.1-3.737.018a15.528,15.528,0,0,0-5.205.5l2.313,3.984-2.061,1.2Z" transform="translate(-17 -17)" style="fill: #fff"/>
              <path d="M379.616,178.28q-1.986-3.427,1.575-5.489l2.167-1.258L384.789,174l-1.894,1.1c-.8.462-1.2.9-1.213,1.321a1.249,1.249,0,0,0,.216.62l.033.059q.5.862,2.2-.12l4.415-2.562a4.454,4.454,0,0,0,1.3-1.013.872.872,0,0,0,.021-1.034c-.4-.683-1.152-.7-2.271-.047l-1.245-2.373,8.809-5.111,3.706,6.386-2.356,1.367-2.3-3.963-3.5,2.03a1.591,1.591,0,0,1,.977.332,2.9,2.9,0,0,1,.845.931,2.445,2.445,0,0,1-.112,2.872,12.85,12.85,0,0,1-3.877,3.037,30.6,30.6,0,0,1-4.128,2.123,5.235,5.235,0,0,1-2.057.4A3.514,3.514,0,0,1,379.616,178.28Z" transform="translate(-17 -17)" style="fill: #fff"/>
            </g>
            <path d="M360.015,151l.84-.83a9.512,9.512,0,0,1,2.556-1.789A19.976,19.976,0,0,1,367,147.121q.079-.018,1.591-.405c1.007-.262,1.717-.42,2.127-.489a7.786,7.786,0,0,0,3.486-2.191q1.832-1.8,1.066-2.579-.636-.646-1.806.2a10.429,10.429,0,0,0-1.153,1.009l-1.8,1.776-2.037-2.067.872-.863q2.644-2.6,4.062-3.02a3.186,3.186,0,0,1,2.535.2,5.833,5.833,0,0,1,1.3,1.032,3.488,3.488,0,0,1,.91,1.538,3.234,3.234,0,0,1-.015,1.7,7.667,7.667,0,0,1-2.178,3.388,9.122,9.122,0,0,1-3.687,2.308c-1.308.409-2.512.723-3.614.954a15.351,15.351,0,0,0-4.916,1.781l3.231,3.28-1.7,1.671Z" transform="translate(-17 -17)" style="fill: #fff"/>
            <g>
              <path d="M337.284,130.651l.729-.929a9.553,9.553,0,0,1,2.306-2.1,20.409,20.409,0,0,1,3.4-1.71c.051-.017.561-.215,1.528-.6s1.65-.639,2.048-.758a7.7,7.7,0,0,0,3.179-2.616q1.584-2.021.73-2.692c-.476-.375-1.066-.228-1.766.43a11.02,11.02,0,0,0-1.018,1.15l-1.561,1.988-2.283-1.788.756-.968q2.292-2.916,3.644-3.509a3.188,3.188,0,0,1,2.542-.129,5.835,5.835,0,0,1,1.42.858,3.478,3.478,0,0,1,1.1,1.407,3.279,3.279,0,0,1,.2,1.688,7.7,7.7,0,0,1-1.731,3.637,9.121,9.121,0,0,1-3.363,2.764q-1.868.85-3.465,1.4a15.414,15.414,0,0,0-4.647,2.391l3.622,2.848-1.471,1.871Z" transform="translate(-17 -17)" style="fill: #fff"/>
              <path d="M346.64,138l10-12.745a2.445,2.445,0,0,1-1.3-.1,4,4,0,0,1-1.248-.657l1.394-1.771a4.124,4.124,0,0,0,4.02-.017l1.858,1.455-12.333,15.714Z" transform="translate(-17 -17)" style="fill: #fff"/>
            </g>
            <path d="M321.567,120.8l1.684-3.1-4.325-2.348,1.066-1.966,10.647-10.4,2.85,1.546-6.69,12.309,1.358.737-1.168,2.152L325.631,119l-1.684,3.1Zm.59-6.482,2.262,1.228,4.707-8.657Z" transform="translate(-17 -17)" style="fill: #fff"/>
            <g>
              <path d="M293,107.867l5.346-15.289a2.442,2.442,0,0,1-1.265.32,3.968,3.968,0,0,1-1.391-.217l.744-2.128a3.94,3.94,0,0,0,1.989-.137,4.046,4.046,0,0,0,1.81-1.175l2.23.775-6.593,18.854Z" transform="translate(-17 -17)" style="fill: #fff"/>
              <path d="M305.723,111.051a3.59,3.59,0,0,1-3.434.3,3.851,3.851,0,0,1-2.559-2.133,6.006,6.006,0,0,1,.328-3.966l.361-1.03,2.709.946-.139.4a8.218,8.218,0,0,0-.574,2.41.908.908,0,0,0,.671.89c.427.152.722.157.882.017a3.685,3.685,0,0,0,.427-.431,7.781,7.781,0,0,0,.677-1.629l.986-2.813a3.354,3.354,0,0,1-1.886-.213,3.043,3.043,0,0,1-2.219-2.331A9.148,9.148,0,0,1,302.619,97l.24-.683q1.228-3.51,2.86-4.3a4.031,4.031,0,0,1,3.156,0,4.472,4.472,0,0,1,2.443,1.641A3.484,3.484,0,0,1,311.76,96a17,17,0,0,1-.862,3.313l-2.632,7.528Q307.147,110.038,305.723,111.051Zm-.188-9.423a1.116,1.116,0,0,0,1.531-.5l1.25-3.577a5.93,5.93,0,0,0,.446-2.086,1,1,0,0,0-.749-.95,1.014,1.014,0,0,0-1.186.282,6.129,6.129,0,0,0-.963,1.935l-.587,1.678a6.928,6.928,0,0,0-.513,2.264A1.021,1.021,0,0,0,305.535,101.628Z" transform="translate(-17 -17)" style="fill: #fff"/>
            </g>
            <g>
              <path d="M272.651,100.183a3.881,3.881,0,0,1-3.587.855,3.69,3.69,0,0,1-2.981-1.894,7.574,7.574,0,0,1-.181-4.358l.227-1.282,2.805.495-.242,1.366a6.814,6.814,0,0,0-.144,2.285,1.067,1.067,0,0,0,.987.823,1.122,1.122,0,0,0,1.268-.553,8.58,8.58,0,0,0,.755-2.594,7.131,7.131,0,0,0,.106-2.765,1.452,1.452,0,0,0-1.3-1.059l-.848-.15.4-2.277.825.145a1.524,1.524,0,0,0,1.567-.454,5.176,5.176,0,0,0,.806-2.258,4.9,4.9,0,0,0,.055-2.236,1.144,1.144,0,0,0-.946-.745,1.04,1.04,0,0,0-1.1.408,5.276,5.276,0,0,0-.645,1.991l-.1.591L267.481,86l.11-.613a6.611,6.611,0,0,1,1.647-3.767,3.805,3.805,0,0,1,3.4-.683,4.049,4.049,0,0,1,3.049,1.865,6.164,6.164,0,0,1,.358,4.083,6.673,6.673,0,0,1-.981,2.629,2.7,2.7,0,0,1-1.783,1.2,3.1,3.1,0,0,1,1.28,2.021,9.054,9.054,0,0,1-.09,3.232A7.661,7.661,0,0,1,272.651,100.183Z" transform="translate(-17 -17)" style="fill: #fff"/>
              <path d="M276.3,102.087l.2-1.158a9.547,9.547,0,0,1,1.045-2.944,20.635,20.635,0,0,1,2.193-3.106c.037-.042.389-.456,1.063-1.249s1.154-1.34,1.452-1.635a7.722,7.722,0,0,0,1.569-3.8q.448-2.532-.622-2.721c-.595-.1-1.045.3-1.356,1.212a11.676,11.676,0,0,0-.356,1.491l-.441,2.492-2.856-.506.214-1.207q.647-3.652,1.562-4.813a3.187,3.187,0,0,1,2.18-1.311,5.871,5.871,0,0,1,1.657.088,3.532,3.532,0,0,1,1.631.725,3.281,3.281,0,0,1,.975,1.394,7.726,7.726,0,0,1,.186,4.026,9.109,9.109,0,0,1-1.67,4.016,36.834,36.834,0,0,1-2.395,2.868,15.4,15.4,0,0,0-2.974,4.3l4.534.805-.416,2.342Z" transform="translate(-17 -17)" style="fill: #fff"/>
            </g>
          </g>
          <path d="M173.856,238.211a7.844,7.844,0,0,1,.456,3.439,7.741,7.741,0,1,1-7.007-8.411A7.738,7.738,0,0,1,173.856,238.211Z" transform="translate(-17 -17)" style="fill: url(#radial-gradient-2)"/>
          <path d="M244.472,323.258a7.766,7.766,0,1,1-6.608-.534,7.506,7.506,0,0,1,3.441-.478A7.609,7.609,0,0,1,244.472,323.258Z" transform="translate(-17 -17)" style="fill: url(#radial-gradient-3)"/>
          <path d="M322.892,251.551a7.779,7.779,0,1,1-1.012,3.189A7.785,7.785,0,0,1,322.892,251.551Z" transform="translate(-17 -17)" style="fill: url(#radial-gradient-4)"/>
          <path d="M258.166,173.649a7.7,7.7,0,0,1-6.608-.531,7.746,7.746,0,1,1,6.608.531Z" transform="translate(-17 -17)" style="fill: url(#radial-gradient-5)"/>
          <path d="M261.387,237.174a17.249,17.249,0,1,1-24.908-1.965,4.36,4.36,0,0,1,.507-.465,17.234,17.234,0,0,1,24.257,2.231A1.209,1.209,0,0,1,261.387,237.174Zm-1.043,11.962a12.4,12.4,0,1,0-13.47,11.2A12.412,12.412,0,0,0,260.344,249.136Z" transform="translate(-17 -17)" style="fill: url(#linear-gradient-7)"/>
          <path d="M260.344,249.136a12.4,12.4,0,1,1-11.222-13.473A12.4,12.4,0,0,1,260.344,249.136Z" transform="translate(-17 -17)" style="fill: url(#radial-gradient-6)"/>
          <path d="M261.353,237.033a.38.38,0,0,0-.11-.058,17.234,17.234,0,0,0-24.257-2.231c9.362-20,14.321-59.627,14.572-61.626a7.7,7.7,0,0,0,6.608.531S255.622,215.122,261.353,237.033Z" transform="translate(-17 -17)" style="fill: url(#linear-gradient-8)"/>
          <path d="M240.652,225.348a88.467,88.467,0,0,1-3.666,9.4,17.234,17.234,0,0,1,24.257,2.231.38.38,0,0,1,.11.058,98.887,98.887,0,0,1-2.365-13.517A31.526,31.526,0,0,0,240.652,225.348Z" transform="translate(-17 -17)" style="mix-blend-mode: multiply;fill: url(#linear-gradient-9)"/>
          <path d="M230.823,246.448a17.113,17.113,0,0,0,4.329,13.03,4.49,4.49,0,0,0-.513-.233c-20.216-9.288-59.751-14.215-61.339-14.406a7.656,7.656,0,0,0,1.012-3.189,7.844,7.844,0,0,0-.456-3.439s40.525,2.5,62.623-3A17.07,17.07,0,0,0,230.823,246.448Z" transform="translate(-17 -17)" style="fill: url(#linear-gradient-10)"/>
          <path d="M235.152,259.478a17.159,17.159,0,0,1,1.327-24.269c-2.238.556-4.67,1.03-7.223,1.432-3.925,6.052-3.953,13.431-1.344,19.9,2.4.856,4.667,1.755,6.727,2.7A4.49,4.49,0,0,1,235.152,259.478Z" transform="translate(-17 -17)" style="mix-blend-mode: multiply;fill: url(#linear-gradient-11)"/>
          <path d="M259.131,261.429c-9.429,19.972-14.415,59.919-14.659,61.829a7.609,7.609,0,0,0-3.167-1.012,7.506,7.506,0,0,0-3.441.478s2.553-41.588-3.225-63.479a4.49,4.49,0,0,1,.513.233,17.222,17.222,0,0,0,23.68,1.924c.1-.016.191-.053.286-.069Z" transform="translate(-17 -17)" style="fill: url(#linear-gradient-12)"/>
          <path d="M259.118,261.333c-.095.016-.191.053-.286.069a17.222,17.222,0,0,1-23.68-1.924,4.49,4.49,0,0,0-.513-.233c.619,2.347,1.137,4.927,1.578,7.648,4.537,4.622,10.982,7.405,17.791,8.473a100.821,100.821,0,0,1,5.123-13.937Z" transform="translate(-17 -17)" style="mix-blend-mode: multiply;fill: url(#linear-gradient-13)"/>
          <path d="M261.353,237.033c20.027,9.316,59.537,14.266,61.539,14.518a7.779,7.779,0,0,0-.556,6.6c-1.158-.059-41.6-2.461-63.218,3.178-.095.016-.191.053-.286.069a17.184,17.184,0,0,0,2.555-24.228C261.369,237.124,261.373,237.081,261.353,237.033Z" transform="translate(-17 -17)" style="fill: url(#linear-gradient-14)"/>
          <path d="M272.019,241.1a93.066,93.066,0,0,1-10.666-4.066c.02.048.016.091.034.141a17.184,17.184,0,0,1-2.555,24.228c.1-.016.191-.053.286-.069a104.007,104.007,0,0,1,15.078-2.528A28.967,28.967,0,0,0,272.019,241.1Z" transform="translate(-17 -17)" style="mix-blend-mode: multiply;fill: url(#linear-gradient-15)"/>
          <g>
            <g>
              <rect x="190.858" y="386.025" width="89.038" height="1.159" transform="matrix(0.091, -0.996, 0.996, 0.091, -187.982, 568.949)" style="fill: url(#linear-gradient-16)"/>
              <rect x="216.103" y="108.816" width="89.038" height="1.159" transform="translate(111.041 342.022) rotate(-84.796)" style="fill: url(#linear-gradient-17)"/>
              <rect x="259.058" y="342.18" width="1.158" height="89.032" transform="translate(-48.42 6.06) rotate(-4.796)" style="fill: url(#linear-gradient-18)"/>
              <rect x="235.782" y="64.791" width="1.158" height="89.033" transform="translate(-25.311 3.143) rotate(-4.796)" style="fill: url(#linear-gradient-19)"/>
              <polygon points="277.353 408.755 254.616 322.676 255.737 322.378 278.473 408.457 277.353 408.755" style="fill: url(#linear-gradient-20)"/>
              <rect x="211.877" y="68.918" width="1.159" height="89.037" transform="matrix(0.967, -0.255, 0.255, 0.967, -38.925, 41.019)" style="fill: url(#linear-gradient-21)"/>
              <rect x="305.782" y="329.786" width="1.158" height="89.085" transform="translate(-145.746 145.998) rotate(-24.796)" style="fill: url(#linear-gradient-22)"/>
              <rect x="189.059" y="77.133" width="1.158" height="89.08" transform="translate(-50.546 73.757) rotate(-24.798)" style="fill: url(#linear-gradient-23)"/>
              <rect x="326.83" y="317.726" width="1.159" height="89.092" transform="translate(-165.186 234.607) rotate(-34.795)" style="fill: url(#linear-gradient-24)"/>
              <rect x="168.01" y="89.185" width="1.158" height="89.084" transform="translate(-63.166 103.116) rotate(-34.796)" style="fill: url(#linear-gradient-25)"/>
              <rect x="345.465" y="302.2" width="1.159" height="89.091" transform="translate(-160.827 327.501) rotate(-44.796)" style="fill: url(#linear-gradient-26)"/>
              <polygon points="163.934 164.276 101.157 101.049 101.979 100.235 164.756 163.462 163.934 164.276" style="fill: url(#linear-gradient-27)"/>
              <rect x="361.133" y="283.696" width="1.159" height="89.066" transform="translate(-132.013 417.546) rotate(-54.794)" style="fill: url(#linear-gradient-28)"/>
              <rect x="133.715" y="123.236" width="1.157" height="89.083" transform="translate(-97.216 163.794) rotate(-54.798)" style="fill: url(#linear-gradient-29)"/>
              <polygon points="396.962 309.755 316.403 271.837 316.896 270.787 397.455 308.703 396.962 309.755" style="fill: url(#linear-gradient-30)"/>
              <rect x="121.484" y="144.217" width="1.16" height="89.024" transform="translate(-117.676 201.809) rotate(-64.798)" style="fill: url(#linear-gradient-31)"/>
              <rect x="381.731" y="239.985" width="1.158" height="89.033" transform="translate(-9.488 561.829) rotate(-74.798)" style="fill: url(#linear-gradient-32)"/>
              <rect x="113.111" y="166.982" width="1.158" height="89.033" transform="translate(-137.223 248.736) rotate(-74.795)" style="fill: url(#linear-gradient-33)"/>
              <rect x="386.025" y="216.107" width="1.16" height="89.039" transform="translate(74.99 605.001) rotate(-84.796)" style="fill: url(#linear-gradient-34)"/>
              <rect x="108.815" y="190.856" width="1.16" height="89.04" transform="translate(-151.933 305.972) rotate(-84.796)" style="fill: url(#linear-gradient-35)"/>
              <rect x="342.179" y="235.784" width="89.033" height="1.159" transform="translate(-35.638 16.618) rotate(-4.861)" style="fill: url(#linear-gradient-36)"/>
              <rect x="64.789" y="259.06" width="89.032" height="1.158" transform="translate(-38.408 -6.909) rotate(-4.815)" style="fill: url(#linear-gradient-37)"/>
              <rect x="338.049" y="211.877" width="89.037" height="1.159" transform="translate(-58.452 87.275) rotate(-14.733)" style="fill: url(#linear-gradient-38)"/>
              <rect x="68.917" y="282.965" width="89.034" height="1.161" transform="translate(-85.495 21.256) rotate(-14.76)" style="fill: url(#linear-gradient-39)"/>
              <rect x="329.79" y="189.06" width="89.081" height="1.158" transform="translate(-62.019 157.387) rotate(-24.784)" style="fill: url(#linear-gradient-40)"/>
              <rect x="77.131" y="305.783" width="89.081" height="1.159" transform="translate(-134.187 62.187) rotate(-24.776)" style="fill: url(#linear-gradient-41)"/>
              <rect x="317.724" y="168.014" width="89.095" height="1.158" transform="translate(-48.31 220.568) rotate(-34.896)" style="fill: url(#linear-gradient-42)"/>
              <rect x="89.183" y="326.829" width="89.098" height="1.159" transform="translate(-180.024 118.012) rotate(-34.826)" style="fill: url(#linear-gradient-43)"/>
              <rect x="302.207" y="149.373" width="89.085" height="1.158" transform="translate(-21.992 270.787) rotate(-44.785)" style="fill: url(#linear-gradient-44)"/>
              <rect x="104.708" y="345.466" width="89.098" height="1.16" transform="translate(-217.407 188.474) rotate(-44.767)" style="fill: url(#linear-gradient-45)"/>
              <rect x="283.678" y="133.716" width="89.089" height="1.158" transform="translate(12.251 308.033) rotate(-54.789)" style="fill: url(#linear-gradient-46)"/>
              <rect x="123.236" y="361.129" width="89.085" height="1.158" transform="translate(-241.483 273.202) rotate(-54.785)" style="fill: url(#linear-gradient-47)"/>
              <rect x="262.751" y="121.489" width="89.04" height="1.159" transform="translate(49.147 331.286) rotate(-64.839)" style="fill: url(#linear-gradient-48)"/>
              <polygon points="153.299 397.462 152.251 396.967 190.166 316.407 191.214 316.902 153.299 397.462" style="fill: url(#linear-gradient-49)"/>
              <rect x="239.983" y="113.108" width="89.038" height="1.158" transform="translate(82.899 341.203) rotate(-74.73)" style="fill: url(#linear-gradient-50)"/>
              <rect x="166.984" y="381.733" width="89.032" height="1.158" transform="translate(-229.821 469.456) rotate(-74.838)" style="fill: url(#linear-gradient-51)"/>
            </g>
            <path d="M231.762,426.31c-98.321-8.954-171.028-96.228-162.074-194.551S165.918,60.736,264.239,69.69s171.026,96.23,162.073,194.546S330.081,435.264,231.762,426.31ZM264.029,72C166.98,63.16,80.836,134.924,72,231.969S134.923,415.164,231.972,424,415.165,361.077,424,264.026,361.077,80.836,264.029,72Z" transform="translate(-17 -17)" style="fill: #e8ac35"/>
            <path d="M235.273,387.761c-77.064-7.018-134.051-75.425-127.032-152.491s75.423-134.044,152.487-127.026,134.049,75.42,127.031,152.482S312.335,394.779,235.273,387.761Zm25.245-277.209c-75.791-6.9-143.067,49.139-149.969,124.928s49.143,143.071,124.934,149.973,143.066-49.144,149.968-124.938S336.307,117.454,260.518,110.552Z" transform="translate(-17 -17)" style="fill: #e8ac35"/>
          </g>
        </g>
        <path d="M256.586,153.731A94.659,94.659,0,1,0,342.27,256.583,94.768,94.768,0,0,0,256.586,153.731Zm-16.75,183.922a90.024,90.024,0,1,1,97.818-81.491A90.127,90.127,0,0,1,239.836,337.653Z" transform="translate(-17 -17)" style="fill: url(#linear-gradient-52)"/>
        <path d="M260.623,109.4C184.2,102.436,116.355,158.95,109.4,235.375S158.95,379.646,235.378,386.606,379.645,337.05,386.605,260.62,337.049,116.357,260.623,109.4ZM235.9,380.823c-73.239-6.67-127.4-71.679-120.726-144.921s71.679-127.39,144.918-120.72,127.4,71.674,120.726,144.912S309.142,387.492,235.9,380.823Z" transform="translate(-17 -17)" style="fill: url(#linear-gradient-53)"/>
        <path d="M264.661,65.06c-101.036-9.2-190.4,65.248-199.6,166.278a183.7,183.7,0,1,0,365.88,33.32C440.14,163.628,365.694,74.261,264.661,65.06Zm-32.794,360.1c-97.684-8.9-169.921-95.609-161.025-193.293S166.45,61.948,264.134,70.844s169.919,95.608,161.024,193.287S329.551,434.053,231.867,425.157Z" transform="translate(-17 -17)" style="fill: #eaeaea"/>
      </g>
    </g>
  </g>
</svg>
